<svg width="384" height="384" viewBox="0 0 384 384" fill="none" xmlns="http://www.w3.org/2000/svg">
<path d="M24 12L12 0L-6.00782e-07 12L12 24L24 12Z" fill="black"/>
<path d="M24 84L12 72L-6.00782e-07 84L12 96L24 84Z" fill="black"/>
<path d="M24 156L12 144L-6.00782e-07 156L12 168L24 156Z" fill="black"/>
<path d="M24 228L12 216L-6.00782e-07 228L12 240L24 228Z" fill="black"/>
<path d="M24 300L12 288L-6.00782e-07 300L12 312L24 300Z" fill="black"/>
<path d="M24 372L12 360L-6.00782e-07 372L12 384L24 372Z" fill="black"/>
<path d="M168 12L156 0L144 12L156 24L168 12Z" fill="black"/>
<path d="M168 84L156 72L144 84L156 96L168 84Z" fill="black"/>
<path d="M168 156L156 144L144 156L156 168L168 156Z" fill="black"/>
<path d="M168 228L156 216L144 228L156 240L168 228Z" fill="black"/>
<path d="M168 300L156 288L144 300L156 312L168 300Z" fill="black"/>
<path d="M168 372L156 360L144 372L156 384L168 372Z" fill="black"/>
<path d="M312 12L300 0L288 12L300 24L312 12Z" fill="black"/>
<path d="M312 84L300 72L288 84L300 96L312 84Z" fill="black"/>
<path d="M312 156L300 144L288 156L300 168L312 156Z" fill="black"/>
<path d="M312 228L300 216L288 228L300 240L312 228Z" fill="black"/>
<path d="M312 300L300 288L288 300L300 312L312 300Z" fill="black"/>
<path d="M312 372L300 360L288 372L300 384L312 372Z" fill="black"/>
<path d="M96 12L84 0L72 12L84 24L96 12Z" fill="black"/>
<path d="M96 84L84 72L72 84L84 96L96 84Z" fill="black"/>
<path d="M96 156L84 144L72 156L84 168L96 156Z" fill="black"/>
<path d="M96 228L84 216L72 228L84 240L96 228Z" fill="black"/>
<path d="M96 300L84 288L72 300L84 312L96 300Z" fill="black"/>
<path d="M96 372L84 360L72 372L84 384L96 372Z" fill="black"/>
<path d="M240 12L228 0L216 12L228 24L240 12Z" fill="black"/>
<path d="M240 84L228 72L216 84L228 96L240 84Z" fill="black"/>
<path d="M240 156L228 144L216 156L228 168L240 156Z" fill="black"/>
<path d="M240 228L228 216L216 228L228 240L240 228Z" fill="black"/>
<path d="M240 300L228 288L216 300L228 312L240 300Z" fill="black"/>
<path d="M240 372L228 360L216 372L228 384L240 372Z" fill="black"/>
<path d="M384 12L372 0L360 12L372 24L384 12Z" fill="black"/>
<path d="M384 84L372 72L360 84L372 96L384 84Z" fill="black"/>
<path d="M384 156L372 144L360 156L372 168L384 156Z" fill="black"/>
<path d="M384 228L372 216L360 228L372 240L384 228Z" fill="black"/>
<path d="M384 300L372 288L360 300L372 312L384 300Z" fill="black"/>
<path d="M384 372L372 360L360 372L372 384L384 372Z" fill="black"/>
</svg>
