<svg width="384" height="384" viewBox="0 0 384 384" fill="none" xmlns="http://www.w3.org/2000/svg">
<rect width="24" height="24" fill="black"/>
<rect y="72" width="24" height="24" fill="black"/>
<rect y="144" width="24" height="24" fill="black"/>
<rect y="216" width="24" height="24" fill="black"/>
<rect y="288" width="24" height="24" fill="black"/>
<rect y="360" width="24" height="24" fill="black"/>
<rect x="144" width="24" height="24" fill="black"/>
<rect x="144" y="72" width="24" height="24" fill="black"/>
<rect x="144" y="144" width="24" height="24" fill="black"/>
<rect x="144" y="216" width="24" height="24" fill="black"/>
<rect x="144" y="288" width="24" height="24" fill="black"/>
<rect x="144" y="360" width="24" height="24" fill="black"/>
<rect x="288" width="24" height="24" fill="black"/>
<rect x="288" y="72" width="24" height="24" fill="black"/>
<rect x="288" y="144" width="24" height="24" fill="black"/>
<rect x="288" y="216" width="24" height="24" fill="black"/>
<rect x="288" y="288" width="24" height="24" fill="black"/>
<rect x="288" y="360" width="24" height="24" fill="black"/>
<rect x="72" width="24" height="24" fill="black"/>
<rect x="72" y="72" width="24" height="24" fill="black"/>
<rect x="72" y="144" width="24" height="24" fill="black"/>
<rect x="72" y="216" width="24" height="24" fill="black"/>
<rect x="72" y="288" width="24" height="24" fill="black"/>
<rect x="72" y="360" width="24" height="24" fill="black"/>
<rect x="216" width="24" height="24" fill="black"/>
<rect x="216" y="72" width="24" height="24" fill="black"/>
<rect x="216" y="144" width="24" height="24" fill="black"/>
<rect x="216" y="216" width="24" height="24" fill="black"/>
<rect x="216" y="288" width="24" height="24" fill="black"/>
<rect x="216" y="360" width="24" height="24" fill="black"/>
<rect x="360" width="24" height="24" fill="black"/>
<rect x="360" y="72" width="24" height="24" fill="black"/>
<rect x="360" y="144" width="24" height="24" fill="black"/>
<rect x="360" y="216" width="24" height="24" fill="black"/>
<rect x="360" y="288" width="24" height="24" fill="black"/>
<rect x="360" y="360" width="24" height="24" fill="black"/>
</svg>
