<svg width="324" height="168" viewBox="0 0 324 168" fill="none" xmlns="http://www.w3.org/2000/svg">
<rect x="156" width="12" height="12" fill="black"/>
<rect x="156" y="26" width="12" height="12" fill="black"/>
<rect x="182" y="26" width="12" height="12" fill="black"/>
<rect x="130" y="26" width="12" height="12" fill="black"/>
<rect x="156" y="52" width="12" height="12" fill="black"/>
<rect x="182" y="52" width="12" height="12" fill="black"/>
<rect x="208" y="52" width="12" height="12" fill="black"/>
<rect x="104" y="52" width="12" height="12" fill="black"/>
<rect x="130" y="52" width="12" height="12" fill="black"/>
<rect x="156" y="78" width="12" height="12" fill="black"/>
<rect x="182" y="78" width="12" height="12" fill="black"/>
<rect x="208" y="78" width="12" height="12" fill="black"/>
<rect x="234" y="78" width="12" height="12" fill="black"/>
<rect x="78" y="78" width="12" height="12" fill="black"/>
<rect x="104" y="78" width="12" height="12" fill="black"/>
<rect x="130" y="78" width="12" height="12" fill="black"/>
<rect x="156" y="104" width="12" height="12" fill="black"/>
<rect x="182" y="104" width="12" height="12" fill="black"/>
<rect x="208" y="104" width="12" height="12" fill="black"/>
<rect x="234" y="104" width="12" height="12" fill="black"/>
<rect x="52" y="104" width="12" height="12" fill="black"/>
<rect x="260" y="104" width="12" height="12" fill="black"/>
<rect x="78" y="104" width="12" height="12" fill="black"/>
<rect x="104" y="104" width="12" height="12" fill="black"/>
<rect x="130" y="104" width="12" height="12" fill="black"/>
<rect x="156" y="130" width="12" height="12" fill="black"/>
<rect x="182" y="130" width="12" height="12" fill="black"/>
<rect x="208" y="130" width="12" height="12" fill="black"/>
<rect x="26" y="130" width="12" height="12" fill="black"/>
<rect x="234" y="130" width="12" height="12" fill="black"/>
<rect x="52" y="130" width="12" height="12" fill="black"/>
<rect x="260" y="130" width="12" height="12" fill="black"/>
<rect x="78" y="130" width="12" height="12" fill="black"/>
<rect x="286" y="130" width="12" height="12" fill="black"/>
<rect x="104" y="130" width="12" height="12" fill="black"/>
<rect x="130" y="130" width="12" height="12" fill="black"/>
<rect x="156" y="156" width="12" height="12" fill="black"/>
<rect x="182" y="156" width="12" height="12" fill="black"/>
<rect y="156" width="12" height="12" fill="black"/>
<rect x="208" y="156" width="12" height="12" fill="black"/>
<rect x="26" y="156" width="12" height="12" fill="black"/>
<rect x="234" y="156" width="12" height="12" fill="black"/>
<rect x="52" y="156" width="12" height="12" fill="black"/>
<rect x="260" y="156" width="12" height="12" fill="black"/>
<rect x="78" y="156" width="12" height="12" fill="black"/>
<rect x="286" y="156" width="12" height="12" fill="black"/>
<rect x="104" y="156" width="12" height="12" fill="black"/>
<rect x="312" y="156" width="12" height="12" fill="black"/>
<rect x="130" y="156" width="12" height="12" fill="black"/>
</svg>
