<svg width="324" height="168" viewBox="0 0 324 168" fill="none" xmlns="http://www.w3.org/2000/svg">
<circle cx="162" cy="6" r="6" fill="black"/>
<circle cx="162" cy="32" r="6" fill="black"/>
<circle cx="188" cy="32" r="6" fill="black"/>
<circle cx="136" cy="32" r="6" fill="black"/>
<circle cx="162" cy="58" r="6" fill="black"/>
<circle cx="188" cy="58" r="6" fill="black"/>
<circle cx="214" cy="58" r="6" fill="black"/>
<circle cx="110" cy="58" r="6" fill="black"/>
<circle cx="136" cy="58" r="6" fill="black"/>
<circle cx="162" cy="84" r="6" fill="black"/>
<circle cx="188" cy="84" r="6" fill="black"/>
<circle cx="214" cy="84" r="6" fill="black"/>
<circle cx="240" cy="84" r="6" fill="black"/>
<circle cx="84" cy="84" r="6" fill="black"/>
<circle cx="110" cy="84" r="6" fill="black"/>
<circle cx="136" cy="84" r="6" fill="black"/>
<circle cx="162" cy="110" r="6" fill="black"/>
<circle cx="188" cy="110" r="6" fill="black"/>
<circle cx="214" cy="110" r="6" fill="black"/>
<circle cx="240" cy="110" r="6" fill="black"/>
<circle cx="58" cy="110" r="6" fill="black"/>
<circle cx="266" cy="110" r="6" fill="black"/>
<circle cx="84" cy="110" r="6" fill="black"/>
<circle cx="110" cy="110" r="6" fill="black"/>
<circle cx="136" cy="110" r="6" fill="black"/>
<circle cx="162" cy="136" r="6" fill="black"/>
<circle cx="188" cy="136" r="6" fill="black"/>
<circle cx="214" cy="136" r="6" fill="black"/>
<circle cx="32" cy="136" r="6" fill="black"/>
<circle cx="240" cy="136" r="6" fill="black"/>
<circle cx="58" cy="136" r="6" fill="black"/>
<circle cx="266" cy="136" r="6" fill="black"/>
<circle cx="84" cy="136" r="6" fill="black"/>
<circle cx="292" cy="136" r="6" fill="black"/>
<circle cx="110" cy="136" r="6" fill="black"/>
<circle cx="136" cy="136" r="6" fill="black"/>
<circle cx="162" cy="162" r="6" fill="black"/>
<circle cx="188" cy="162" r="6" fill="black"/>
<circle cx="6" cy="162" r="6" fill="black"/>
<circle cx="214" cy="162" r="6" fill="black"/>
<circle cx="32" cy="162" r="6" fill="black"/>
<circle cx="240" cy="162" r="6" fill="black"/>
<circle cx="58" cy="162" r="6" fill="black"/>
<circle cx="266" cy="162" r="6" fill="black"/>
<circle cx="84" cy="162" r="6" fill="black"/>
<circle cx="292" cy="162" r="6" fill="black"/>
<circle cx="110" cy="162" r="6" fill="black"/>
<circle cx="318" cy="162" r="6" fill="black"/>
<circle cx="136" cy="162" r="6" fill="black"/>
</svg>
