<svg width="254" height="417" viewBox="0 0 254 417" fill="none" xmlns="http://www.w3.org/2000/svg">
<path d="M254 0H167V417L254 381.43V0Z" fill="white"/>
<mask id="mask0_3585_13930" style="mask-type:alpha" maskUnits="userSpaceOnUse" x="0" y="0" width="167" height="417">
<path d="M167 0V417L0 403.77V0H167Z" fill="black"/>
</mask>
<g mask="url(#mask0_3585_13930)">
<rect width="167" height="417" fill="black"/>
<path d="M34.0691 364.977L54.5344 340.833C55.428 339.779 55.9227 338.438 55.9227 337.041C55.9227 335.644 55.428 334.302 54.5344 333.249L37.2765 312.898L54.5344 292.539C55.428 291.485 55.9147 290.143 55.9147 288.754C55.9147 287.365 55.42 286.024 54.5344 284.97L37.2765 264.611L54.5344 244.252C55.428 243.198 55.9227 241.857 55.9227 240.467C55.9227 239.078 55.428 237.737 54.5424 236.683L37.2845 216.316L54.5424 195.965C55.436 194.911 55.9306 193.57 55.9306 192.173C55.9306 190.775 55.436 189.434 54.5424 188.38L37.2845 168.029L54.5424 147.67C55.436 146.616 55.9227 145.275 55.9227 143.886C55.9227 142.497 55.428 141.155 54.5424 140.101L37.2845 119.742L54.5424 99.3835C55.436 98.3296 55.9306 96.9883 55.9306 95.5991C55.9306 94.2099 55.436 92.8686 54.5503 91.8147L37.2845 71.4477L54.5424 51.0887C55.436 50.0348 55.9306 48.6935 55.9306 47.2963C55.9306 45.8992 55.436 44.5579 54.5424 43.504L37.2845 23.153L54.5424 2.79396C55.428 1.74008 55.9227 0.398791 55.9227 -0.990411C55.9227 -2.37961 55.428 -3.72091 54.5424 -4.78278L37.2845 -25.1418L54.5344 -45.5008C55.428 -46.5547 55.9227 -47.896 55.9227 -49.2852C55.9227 -50.6744 55.428 -52.0157 54.5424 -53.0696L37.2845 -73.4365L54.5344 -93.7955C55.428 -94.8494 55.9227 -96.1907 55.9227 -97.5879C55.9227 -98.9851 55.428 -100.326 54.5344 -101.38L37.2765 -121.731L54.5424 -142.082C55.428 -143.136 55.9227 -144.477 55.9227 -145.867C55.9227 -147.256 55.428 -148.597 54.5424 -149.659L37.2845 -170.018L54.5344 -190.377C55.428 -191.431 55.9227 -192.772 55.9227 -194.161C55.9227 -195.551 55.428 -196.892 54.5424 -197.946L37.2766 -218.313L54.5344 -238.672C55.428 -239.726 55.9227 -241.067 55.9227 -242.464C55.9227 -243.861 55.428 -245.203 54.5344 -246.257L37.2766 -266.608L54.5424 -286.959C55.428 -288.012 55.9227 -289.362 55.9227 -290.751C55.9227 -292.14 55.428 -293.481 54.5424 -294.535L37.2845 -314.894L54.5344 -335.261C55.428 -336.315 55.9227 -337.657 55.9227 -339.046C55.9227 -340.435 55.428 -341.776 54.5424 -342.83L34.0691 -366.981C32.0106 -369.409 28.3883 -369.688 26.0027 -367.596C24.7421 -366.494 24.016 -364.89 24.016 -363.197C24.016 -361.808 24.5107 -360.467 25.3963 -359.413L42.6542 -339.046L25.3963 -318.687C24.5027 -317.633 24.016 -316.292 24.016 -314.902C24.016 -313.513 24.5107 -312.172 25.3963 -311.118L42.6542 -290.759L25.3963 -270.4C24.5027 -269.346 24.0081 -268.005 24.008 -266.616C24.008 -265.226 24.5027 -263.877 25.3963 -262.823L42.6542 -242.472L25.3963 -222.113C25.3405 -222.041 25.2846 -221.969 25.2288 -221.898C25.1969 -221.858 25.157 -221.81 25.1251 -221.77C25.0213 -221.626 24.9256 -221.482 24.8378 -221.331C24.8299 -221.315 24.8219 -221.307 24.8139 -221.291C24.7181 -221.123 24.6304 -220.955 24.5506 -220.772C24.5267 -220.724 24.5107 -220.684 24.4947 -220.636C24.4389 -220.5 24.383 -220.373 24.3352 -220.237C24.3112 -220.181 24.2953 -220.117 24.2793 -220.053C24.2394 -219.926 24.2075 -219.798 24.1756 -219.67C24.1596 -219.606 24.1437 -219.55 24.1357 -219.486C24.1038 -219.343 24.0878 -219.207 24.0639 -219.063C24.0639 -219.015 24.0479 -218.96 24.0479 -218.912C24.032 -218.72 24.016 -218.52 24.016 -218.329L24.016 -218.313C24.016 -218.121 24.032 -217.938 24.0479 -217.746C24.0479 -217.682 24.0639 -217.626 24.0719 -217.562C24.0878 -217.427 24.1118 -217.299 24.1357 -217.163C24.1517 -217.099 24.1676 -217.027 24.1836 -216.964C24.2155 -216.836 24.2474 -216.716 24.2873 -216.588C24.3033 -216.524 24.3272 -216.469 24.3431 -216.405C24.391 -216.269 24.4469 -216.125 24.5027 -215.99C24.5187 -215.95 24.5346 -215.91 24.5506 -215.87C24.7102 -215.518 24.9096 -215.175 25.141 -214.864C25.165 -214.832 25.1889 -214.8 25.2208 -214.768C25.2846 -214.688 25.3405 -214.608 25.4043 -214.528L42.6621 -194.161L25.4043 -173.802C24.5107 -172.749 24.024 -171.407 24.024 -170.018C24.024 -168.629 24.5187 -167.288 25.4043 -166.234L42.6621 -145.875L25.4043 -125.516C24.5107 -124.462 24.016 -123.121 24.016 -121.731C24.016 -120.342 24.5107 -118.993 25.4043 -117.939L42.6621 -97.5879L25.4043 -77.2289C25.3485 -77.165 25.3006 -77.0932 25.2447 -77.0293C25.2048 -76.9814 25.1649 -76.9335 25.133 -76.8856C25.0373 -76.7499 24.9495 -76.6141 24.8618 -76.4784C24.8458 -76.4545 24.8298 -76.4305 24.8139 -76.4066C24.7181 -76.2389 24.6304 -76.0712 24.5506 -75.8956C24.5267 -75.8477 24.5107 -75.7918 24.4868 -75.7439C24.4309 -75.6162 24.383 -75.4884 24.3352 -75.3607C24.3112 -75.2968 24.2953 -75.2329 24.2713 -75.1691C24.2314 -75.0413 24.1995 -74.9216 24.1676 -74.7938C24.1517 -74.7299 24.1357 -74.6661 24.1277 -74.6022C24.0958 -74.4665 24.0798 -74.3228 24.0639 -74.187C24.0639 -74.1311 24.0479 -74.0832 24.04 -74.0274C24.024 -73.8357 24.008 -73.6361 24.008 -73.4445L24.008 -73.4206C24.008 -73.2369 24.024 -73.0453 24.04 -72.8617C24.04 -72.7978 24.0559 -72.734 24.0639 -72.6781C24.0798 -72.5503 24.1038 -72.4146 24.1277 -72.2868C24.1437 -72.215 24.1596 -72.1511 24.1756 -72.0793C24.2075 -71.9595 24.2394 -71.8318 24.2713 -71.712C24.2873 -71.6482 24.3112 -71.5843 24.3352 -71.5204C24.383 -71.3847 24.4309 -71.2569 24.4868 -71.1212C24.5027 -71.0733 24.5187 -71.0334 24.5426 -70.9855C24.6224 -70.8098 24.7102 -70.6342 24.8139 -70.4665L24.8298 -70.4426C24.9256 -70.2829 25.0293 -70.1312 25.133 -69.9795C25.1649 -69.9396 25.1969 -69.8997 25.2208 -69.8598C25.2766 -69.7879 25.3325 -69.7081 25.3963 -69.6362L42.6542 -49.2692L25.3963 -28.9102C24.5027 -27.8563 24.016 -26.515 24.016 -25.1258C24.016 -23.7366 24.5107 -22.3953 25.3963 -21.3414L42.6542 -0.98242L25.3963 19.3766C24.5027 20.4305 24.008 21.7718 24.008 23.161C24.008 24.5502 24.5027 25.8994 25.3963 26.9533L42.6542 47.3043L25.3963 67.6633C25.3245 67.7432 25.2687 67.831 25.1969 67.9188C25.1809 67.9428 25.157 67.9667 25.133 67.9987C24.9016 68.318 24.6942 68.6613 24.5346 69.0206C24.5187 69.0526 24.5107 69.0845 24.4947 69.1084C24.4309 69.2521 24.3751 69.4038 24.3192 69.5555C24.3032 69.6034 24.2873 69.6593 24.2713 69.7072C24.2314 69.843 24.1915 69.9787 24.1596 70.1224C24.1437 70.1783 24.1357 70.2341 24.1197 70.29C24.0878 70.4337 24.0639 70.5855 24.0479 70.7372C24.0479 70.7851 24.032 70.825 24.032 70.8729C24.016 71.0645 24.0001 71.2641 24.0001 71.4637C24.0001 71.6553 24.016 71.8469 24.032 72.0385C24.032 72.0944 24.0479 72.1503 24.0559 72.2062C24.0719 72.3419 24.0958 72.4857 24.1197 72.6214C24.1357 72.6852 24.1437 72.7411 24.1596 72.805C24.1915 72.9407 24.2314 73.0764 24.2713 73.2042C24.2873 73.2601 24.3032 73.308 24.3192 73.3639C24.3751 73.5156 24.4309 73.6753 24.4947 73.819C24.5027 73.8429 24.5107 73.8668 24.5266 73.8908C24.6942 74.2581 24.8937 74.6014 25.133 74.9287C25.149 74.9447 25.157 74.9607 25.1729 74.9766C25.2447 75.0725 25.3086 75.1602 25.3883 75.2481L42.6462 95.6151L25.3883 115.974C24.4947 117.028 24.008 118.369 24.008 119.758C24.008 121.148 24.5027 122.489 25.3883 123.543L42.6462 143.902L25.3883 164.261C24.4947 165.315 24.0001 166.656 24.0001 168.045C24.0001 169.434 24.4947 170.784 25.3883 171.838L42.6462 192.189L25.3883 212.548C25.3405 212.604 25.3006 212.659 25.2607 212.715C25.2128 212.779 25.157 212.843 25.1091 212.915C25.0373 213.019 24.9655 213.122 24.9016 213.226C24.8697 213.282 24.8298 213.33 24.7979 213.386C24.7102 213.546 24.6224 213.705 24.5506 213.873C24.5187 213.937 24.4947 214.009 24.4708 214.073C24.4229 214.184 24.375 214.296 24.3352 214.408C24.3112 214.48 24.2873 214.552 24.2633 214.623C24.2314 214.735 24.1995 214.855 24.1676 214.975C24.1516 215.047 24.1357 215.11 24.1197 215.182C24.0958 215.318 24.0719 215.446 24.0559 215.582C24.0559 215.637 24.0399 215.693 24.032 215.749C24.016 215.941 24.0001 216.14 24.0001 216.332C24.0001 216.34 24.0001 216.356 24.0001 216.364C24.0001 216.548 24.008 216.723 24.032 216.907C24.032 216.971 24.0479 217.043 24.0559 217.106C24.0719 217.234 24.0878 217.354 24.1118 217.474C24.1277 217.546 24.1437 217.625 24.1596 217.697C24.1836 217.809 24.2155 217.921 24.2554 218.033C24.2793 218.104 24.3032 218.176 24.3272 218.248C24.3671 218.368 24.4149 218.48 24.4628 218.599C24.4867 218.663 24.5107 218.719 24.5426 218.783C24.6224 218.951 24.7022 219.118 24.7979 219.278C24.8219 219.318 24.8458 219.35 24.8697 219.39C24.9495 219.518 25.0293 219.637 25.1171 219.757C25.157 219.813 25.2048 219.869 25.2447 219.925C25.2926 219.989 25.3405 220.053 25.3883 220.108L42.6462 240.475L25.3883 260.834C24.4947 261.888 24.008 263.23 24.008 264.619C24.008 266.008 24.5027 267.349 25.3883 268.403L42.6462 288.762L25.3883 309.121C24.4947 310.175 24 311.516 24 312.906C24 314.295 24.4947 315.644 25.3883 316.698L42.6462 337.049L25.3883 357.408C24.4947 358.462 24 359.803 24 361.192C24 362.885 24.7261 364.49 25.9867 365.599C28.3803 367.683 31.9947 367.412 34.0532 364.985L34.0691 364.977Z" fill="white"/>
<path d="M78.0691 364.977L98.5344 340.833C99.428 339.779 99.9227 338.438 99.9227 337.041C99.9227 335.644 99.428 334.302 98.5344 333.249L81.2765 312.898L98.5344 292.539C99.428 291.485 99.9147 290.143 99.9147 288.754C99.9147 287.365 99.42 286.024 98.5344 284.97L81.2765 264.611L98.5344 244.252C99.428 243.198 99.9227 241.857 99.9227 240.467C99.9227 239.078 99.428 237.737 98.5424 236.683L81.2845 216.316L98.5424 195.965C99.436 194.911 99.9306 193.57 99.9306 192.173C99.9306 190.775 99.436 189.434 98.5424 188.38L81.2845 168.029L98.5424 147.67C99.436 146.616 99.9227 145.275 99.9227 143.886C99.9227 142.497 99.428 141.155 98.5424 140.101L81.2845 119.742L98.5424 99.3835C99.436 98.3296 99.9306 96.9883 99.9306 95.5991C99.9306 94.2099 99.436 92.8686 98.5503 91.8147L81.2845 71.4477L98.5424 51.0887C99.436 50.0348 99.9306 48.6935 99.9306 47.2963C99.9306 45.8992 99.436 44.5579 98.5424 43.504L81.2845 23.153L98.5424 2.79396C99.428 1.74008 99.9227 0.398791 99.9227 -0.990411C99.9227 -2.37961 99.428 -3.72091 98.5424 -4.78278L81.2845 -25.1418L98.5344 -45.5008C99.428 -46.5547 99.9227 -47.896 99.9227 -49.2852C99.9227 -50.6744 99.428 -52.0157 98.5424 -53.0696L81.2845 -73.4365L98.5344 -93.7955C99.428 -94.8494 99.9227 -96.1907 99.9227 -97.5879C99.9227 -98.9851 99.428 -100.326 98.5344 -101.38L81.2765 -121.731L98.5424 -142.082C99.428 -143.136 99.9227 -144.477 99.9227 -145.867C99.9227 -147.256 99.428 -148.597 98.5424 -149.659L81.2845 -170.018L98.5344 -190.377C99.428 -191.431 99.9227 -192.772 99.9227 -194.161C99.9227 -195.551 99.428 -196.892 98.5424 -197.946L81.2766 -218.313L98.5344 -238.672C99.428 -239.726 99.9227 -241.067 99.9227 -242.464C99.9227 -243.861 99.428 -245.203 98.5344 -246.257L81.2766 -266.608L98.5424 -286.959C99.428 -288.012 99.9227 -289.362 99.9227 -290.751C99.9227 -292.14 99.428 -293.481 98.5424 -294.535L81.2845 -314.894L98.5344 -335.261C99.428 -336.315 99.9227 -337.657 99.9227 -339.046C99.9227 -340.435 99.428 -341.776 98.5424 -342.83L78.0691 -366.981C76.0106 -369.409 72.3883 -369.688 70.0027 -367.596C68.7421 -366.494 68.016 -364.89 68.016 -363.197C68.016 -361.808 68.5107 -360.467 69.3963 -359.413L86.6542 -339.046L69.3963 -318.687C68.5027 -317.633 68.016 -316.292 68.016 -314.902C68.016 -313.513 68.5107 -312.172 69.3963 -311.118L86.6542 -290.759L69.3963 -270.4C68.5027 -269.346 68.0081 -268.005 68.008 -266.616C68.008 -265.226 68.5027 -263.877 69.3963 -262.823L86.6542 -242.472L69.3963 -222.113C69.3405 -222.041 69.2846 -221.969 69.2288 -221.898C69.1969 -221.858 69.157 -221.81 69.1251 -221.77C69.0213 -221.626 68.9256 -221.482 68.8378 -221.331C68.8299 -221.315 68.8219 -221.307 68.8139 -221.291C68.7181 -221.123 68.6304 -220.955 68.5506 -220.772C68.5267 -220.724 68.5107 -220.684 68.4947 -220.636C68.4389 -220.5 68.383 -220.373 68.3352 -220.237C68.3112 -220.181 68.2953 -220.117 68.2793 -220.053C68.2394 -219.926 68.2075 -219.798 68.1756 -219.67C68.1596 -219.606 68.1437 -219.55 68.1357 -219.486C68.1038 -219.343 68.0878 -219.207 68.0639 -219.063C68.0639 -219.015 68.0479 -218.96 68.0479 -218.912C68.032 -218.72 68.016 -218.52 68.016 -218.329L68.016 -218.313C68.016 -218.121 68.032 -217.938 68.0479 -217.746C68.0479 -217.682 68.0639 -217.626 68.0719 -217.562C68.0878 -217.427 68.1118 -217.299 68.1357 -217.163C68.1517 -217.099 68.1676 -217.027 68.1836 -216.964C68.2155 -216.836 68.2474 -216.716 68.2873 -216.588C68.3033 -216.524 68.3272 -216.469 68.3431 -216.405C68.391 -216.269 68.4469 -216.125 68.5027 -215.99C68.5187 -215.95 68.5346 -215.91 68.5506 -215.87C68.7102 -215.518 68.9096 -215.175 69.141 -214.864C69.165 -214.832 69.1889 -214.8 69.2208 -214.768C69.2846 -214.688 69.3405 -214.608 69.4043 -214.528L86.6621 -194.161L69.4043 -173.802C68.5107 -172.749 68.024 -171.407 68.024 -170.018C68.024 -168.629 68.5187 -167.288 69.4043 -166.234L86.6621 -145.875L69.4043 -125.516C68.5107 -124.462 68.016 -123.121 68.016 -121.731C68.016 -120.342 68.5107 -118.993 69.4043 -117.939L86.6621 -97.5879L69.4043 -77.2289C69.3485 -77.165 69.3006 -77.0932 69.2447 -77.0293C69.2048 -76.9814 69.1649 -76.9335 69.133 -76.8856C69.0373 -76.7499 68.9495 -76.6141 68.8618 -76.4784C68.8458 -76.4545 68.8298 -76.4305 68.8139 -76.4066C68.7181 -76.2389 68.6304 -76.0712 68.5506 -75.8956C68.5267 -75.8477 68.5107 -75.7918 68.4868 -75.7439C68.4309 -75.6162 68.383 -75.4884 68.3352 -75.3607C68.3112 -75.2968 68.2953 -75.2329 68.2713 -75.1691C68.2314 -75.0413 68.1995 -74.9216 68.1676 -74.7938C68.1517 -74.7299 68.1357 -74.6661 68.1277 -74.6022C68.0958 -74.4665 68.0798 -74.3228 68.0639 -74.187C68.0639 -74.1311 68.0479 -74.0832 68.04 -74.0274C68.024 -73.8357 68.008 -73.6361 68.008 -73.4445L68.008 -73.4206C68.008 -73.2369 68.024 -73.0453 68.04 -72.8617C68.04 -72.7978 68.0559 -72.734 68.0639 -72.6781C68.0798 -72.5503 68.1038 -72.4146 68.1277 -72.2868C68.1437 -72.215 68.1596 -72.1511 68.1756 -72.0793C68.2075 -71.9595 68.2394 -71.8318 68.2713 -71.712C68.2873 -71.6482 68.3112 -71.5843 68.3352 -71.5204C68.383 -71.3847 68.4309 -71.2569 68.4868 -71.1212C68.5027 -71.0733 68.5187 -71.0334 68.5426 -70.9855C68.6224 -70.8098 68.7102 -70.6342 68.8139 -70.4665L68.8298 -70.4426C68.9256 -70.2829 69.0293 -70.1312 69.133 -69.9795C69.1649 -69.9396 69.1969 -69.8997 69.2208 -69.8598C69.2766 -69.7879 69.3325 -69.7081 69.3963 -69.6362L86.6542 -49.2692L69.3963 -28.9102C68.5027 -27.8563 68.016 -26.515 68.016 -25.1258C68.016 -23.7366 68.5107 -22.3953 69.3963 -21.3414L86.6542 -0.98242L69.3963 19.3766C68.5027 20.4305 68.008 21.7718 68.008 23.161C68.008 24.5502 68.5027 25.8994 69.3963 26.9533L86.6542 47.3043L69.3963 67.6633C69.3245 67.7432 69.2687 67.831 69.1969 67.9188C69.1809 67.9428 69.157 67.9667 69.133 67.9987C68.9016 68.318 68.6942 68.6613 68.5346 69.0206C68.5187 69.0526 68.5107 69.0845 68.4947 69.1084C68.4309 69.2521 68.3751 69.4038 68.3192 69.5555C68.3032 69.6034 68.2873 69.6593 68.2713 69.7072C68.2314 69.843 68.1915 69.9787 68.1596 70.1224C68.1437 70.1783 68.1357 70.2341 68.1197 70.29C68.0878 70.4337 68.0639 70.5855 68.0479 70.7372C68.0479 70.7851 68.032 70.825 68.032 70.8729C68.016 71.0645 68.0001 71.2641 68.0001 71.4637C68.0001 71.6553 68.016 71.8469 68.032 72.0385C68.032 72.0944 68.0479 72.1503 68.0559 72.2062C68.0719 72.3419 68.0958 72.4857 68.1197 72.6214C68.1357 72.6852 68.1437 72.7411 68.1596 72.805C68.1915 72.9407 68.2314 73.0764 68.2713 73.2042C68.2873 73.2601 68.3032 73.308 68.3192 73.3639C68.3751 73.5156 68.4309 73.6753 68.4947 73.819C68.5027 73.8429 68.5107 73.8668 68.5266 73.8908C68.6942 74.2581 68.8937 74.6014 69.133 74.9287C69.149 74.9447 69.157 74.9607 69.1729 74.9766C69.2447 75.0725 69.3086 75.1602 69.3883 75.2481L86.6462 95.6151L69.3883 115.974C68.4947 117.028 68.008 118.369 68.008 119.758C68.008 121.148 68.5027 122.489 69.3883 123.543L86.6462 143.902L69.3883 164.261C68.4947 165.315 68.0001 166.656 68.0001 168.045C68.0001 169.434 68.4947 170.784 69.3883 171.838L86.6462 192.189L69.3883 212.548C69.3405 212.604 69.3006 212.659 69.2607 212.715C69.2128 212.779 69.157 212.843 69.1091 212.915C69.0373 213.019 68.9655 213.122 68.9016 213.226C68.8697 213.282 68.8298 213.33 68.7979 213.386C68.7102 213.546 68.6224 213.705 68.5506 213.873C68.5187 213.937 68.4947 214.009 68.4708 214.073C68.4229 214.184 68.375 214.296 68.3352 214.408C68.3112 214.48 68.2873 214.552 68.2633 214.623C68.2314 214.735 68.1995 214.855 68.1676 214.975C68.1516 215.047 68.1357 215.11 68.1197 215.182C68.0958 215.318 68.0719 215.446 68.0559 215.582C68.0559 215.637 68.0399 215.693 68.032 215.749C68.016 215.941 68.0001 216.14 68.0001 216.332C68.0001 216.34 68.0001 216.356 68.0001 216.364C68.0001 216.548 68.008 216.723 68.032 216.907C68.032 216.971 68.0479 217.043 68.0559 217.106C68.0719 217.234 68.0878 217.354 68.1118 217.474C68.1277 217.546 68.1437 217.625 68.1596 217.697C68.1836 217.809 68.2155 217.921 68.2554 218.033C68.2793 218.104 68.3032 218.176 68.3272 218.248C68.3671 218.368 68.4149 218.48 68.4628 218.599C68.4867 218.663 68.5107 218.719 68.5426 218.783C68.6224 218.951 68.7022 219.118 68.7979 219.278C68.8219 219.318 68.8458 219.35 68.8697 219.39C68.9495 219.518 69.0293 219.637 69.1171 219.757C69.157 219.813 69.2048 219.869 69.2447 219.925C69.2926 219.989 69.3405 220.053 69.3883 220.108L86.6462 240.475L69.3883 260.834C68.4947 261.888 68.008 263.23 68.008 264.619C68.008 266.008 68.5027 267.349 69.3883 268.403L86.6462 288.762L69.3883 309.121C68.4947 310.175 68 311.516 68 312.906C68 314.295 68.4947 315.644 69.3883 316.698L86.6462 337.049L69.3883 357.408C68.4947 358.462 68 359.803 68 361.192C68 362.885 68.7261 364.49 69.9867 365.599C72.3803 367.683 75.9947 367.412 78.0532 364.985L78.0691 364.977Z" fill="white"/>
<path d="M122.069 364.977L142.534 340.833C143.428 339.779 143.923 338.438 143.923 337.041C143.923 335.644 143.428 334.302 142.534 333.249L125.277 312.898L142.534 292.539C143.428 291.485 143.915 290.143 143.915 288.754C143.915 287.365 143.42 286.024 142.534 284.97L125.277 264.611L142.534 244.252C143.428 243.198 143.923 241.857 143.923 240.467C143.923 239.078 143.428 237.737 142.542 236.683L125.285 216.316L142.542 195.965C143.436 194.911 143.931 193.57 143.931 192.173C143.931 190.775 143.436 189.434 142.542 188.38L125.285 168.029L142.542 147.67C143.436 146.616 143.923 145.275 143.923 143.886C143.923 142.497 143.428 141.155 142.542 140.101L125.285 119.742L142.542 99.3835C143.436 98.3296 143.931 96.9883 143.931 95.5991C143.931 94.2099 143.436 92.8686 142.55 91.8147L125.285 71.4477L142.542 51.0887C143.436 50.0348 143.931 48.6935 143.931 47.2963C143.931 45.8992 143.436 44.5579 142.542 43.504L125.285 23.153L142.542 2.79396C143.428 1.74008 143.923 0.398791 143.923 -0.990411C143.923 -2.37961 143.428 -3.72091 142.542 -4.78278L125.285 -25.1418L142.534 -45.5008C143.428 -46.5547 143.923 -47.896 143.923 -49.2852C143.923 -50.6744 143.428 -52.0157 142.542 -53.0696L125.285 -73.4365L142.534 -93.7955C143.428 -94.8494 143.923 -96.1907 143.923 -97.5879C143.923 -98.9851 143.428 -100.326 142.534 -101.38L125.277 -121.731L142.542 -142.082C143.428 -143.136 143.923 -144.477 143.923 -145.867C143.923 -147.256 143.428 -148.597 142.542 -149.659L125.285 -170.018L142.534 -190.377C143.428 -191.431 143.923 -192.772 143.923 -194.161C143.923 -195.551 143.428 -196.892 142.542 -197.946L125.277 -218.313L142.534 -238.672C143.428 -239.726 143.923 -241.067 143.923 -242.464C143.923 -243.861 143.428 -245.203 142.534 -246.257L125.277 -266.608L142.542 -286.959C143.428 -288.012 143.923 -289.362 143.923 -290.751C143.923 -292.14 143.428 -293.481 142.542 -294.535L125.285 -314.894L142.534 -335.261C143.428 -336.315 143.923 -337.657 143.923 -339.046C143.923 -340.435 143.428 -341.776 142.542 -342.83L122.069 -366.981C120.011 -369.409 116.388 -369.688 114.003 -367.596C112.742 -366.494 112.016 -364.89 112.016 -363.197C112.016 -361.808 112.511 -360.467 113.396 -359.413L130.654 -339.046L113.396 -318.687C112.503 -317.633 112.016 -316.292 112.016 -314.902C112.016 -313.513 112.511 -312.172 113.396 -311.118L130.654 -290.759L113.396 -270.4C112.503 -269.346 112.008 -268.005 112.008 -266.616C112.008 -265.226 112.503 -263.877 113.396 -262.823L130.654 -242.472L113.396 -222.113C113.34 -222.041 113.285 -221.969 113.229 -221.898C113.197 -221.858 113.157 -221.81 113.125 -221.77C113.021 -221.626 112.926 -221.482 112.838 -221.331C112.83 -221.315 112.822 -221.307 112.814 -221.291C112.718 -221.123 112.63 -220.955 112.551 -220.772C112.527 -220.724 112.511 -220.684 112.495 -220.636C112.439 -220.5 112.383 -220.373 112.335 -220.237C112.311 -220.181 112.295 -220.117 112.279 -220.053C112.239 -219.926 112.208 -219.798 112.176 -219.67C112.16 -219.606 112.144 -219.55 112.136 -219.486C112.104 -219.343 112.088 -219.207 112.064 -219.063C112.064 -219.015 112.048 -218.96 112.048 -218.912C112.032 -218.72 112.016 -218.52 112.016 -218.329L112.016 -218.313C112.016 -218.121 112.032 -217.938 112.048 -217.746C112.048 -217.682 112.064 -217.626 112.072 -217.562C112.088 -217.427 112.112 -217.299 112.136 -217.163C112.152 -217.099 112.168 -217.027 112.184 -216.964C112.215 -216.836 112.247 -216.716 112.287 -216.588C112.303 -216.524 112.327 -216.469 112.343 -216.405C112.391 -216.269 112.447 -216.125 112.503 -215.99C112.519 -215.95 112.535 -215.91 112.551 -215.87C112.71 -215.518 112.91 -215.175 113.141 -214.864C113.165 -214.832 113.189 -214.8 113.221 -214.768C113.285 -214.688 113.34 -214.608 113.404 -214.528L130.662 -194.161L113.404 -173.802C112.511 -172.749 112.024 -171.407 112.024 -170.018C112.024 -168.629 112.519 -167.288 113.404 -166.234L130.662 -145.875L113.404 -125.516C112.511 -124.462 112.016 -123.121 112.016 -121.731C112.016 -120.342 112.511 -118.993 113.404 -117.939L130.662 -97.5879L113.404 -77.2289C113.348 -77.165 113.301 -77.0932 113.245 -77.0293C113.205 -76.9814 113.165 -76.9335 113.133 -76.8856C113.037 -76.7499 112.95 -76.6141 112.862 -76.4784C112.846 -76.4545 112.83 -76.4305 112.814 -76.4066C112.718 -76.2389 112.63 -76.0712 112.551 -75.8956C112.527 -75.8477 112.511 -75.7918 112.487 -75.7439C112.431 -75.6162 112.383 -75.4884 112.335 -75.3607C112.311 -75.2968 112.295 -75.2329 112.271 -75.1691C112.231 -75.0413 112.2 -74.9216 112.168 -74.7938C112.152 -74.7299 112.136 -74.6661 112.128 -74.6022C112.096 -74.4665 112.08 -74.3228 112.064 -74.187C112.064 -74.1311 112.048 -74.0832 112.04 -74.0274C112.024 -73.8357 112.008 -73.6361 112.008 -73.4445L112.008 -73.4206C112.008 -73.2369 112.024 -73.0453 112.04 -72.8617C112.04 -72.7978 112.056 -72.734 112.064 -72.6781C112.08 -72.5503 112.104 -72.4146 112.128 -72.2868C112.144 -72.215 112.16 -72.1511 112.176 -72.0793C112.208 -71.9595 112.239 -71.8318 112.271 -71.712C112.287 -71.6482 112.311 -71.5843 112.335 -71.5204C112.383 -71.3847 112.431 -71.2569 112.487 -71.1212C112.503 -71.0733 112.519 -71.0334 112.543 -70.9855C112.622 -70.8098 112.71 -70.6342 112.814 -70.4665L112.83 -70.4426C112.926 -70.2829 113.029 -70.1312 113.133 -69.9795C113.165 -69.9396 113.197 -69.8997 113.221 -69.8598C113.277 -69.7879 113.332 -69.7081 113.396 -69.6362L130.654 -49.2692L113.396 -28.9102C112.503 -27.8563 112.016 -26.515 112.016 -25.1258C112.016 -23.7366 112.511 -22.3953 113.396 -21.3414L130.654 -0.98242L113.396 19.3766C112.503 20.4305 112.008 21.7718 112.008 23.161C112.008 24.5502 112.503 25.8994 113.396 26.9533L130.654 47.3043L113.396 67.6633C113.325 67.7432 113.269 67.831 113.197 67.9188C113.181 67.9428 113.157 67.9667 113.133 67.9987C112.902 68.318 112.694 68.6613 112.535 69.0206C112.519 69.0526 112.511 69.0845 112.495 69.1084C112.431 69.2521 112.375 69.4038 112.319 69.5555C112.303 69.6034 112.287 69.6593 112.271 69.7072C112.231 69.843 112.192 69.9787 112.16 70.1224C112.144 70.1783 112.136 70.2341 112.12 70.29C112.088 70.4337 112.064 70.5855 112.048 70.7372C112.048 70.7851 112.032 70.825 112.032 70.8729C112.016 71.0645 112 71.2641 112 71.4637C112 71.6553 112.016 71.8469 112.032 72.0385C112.032 72.0944 112.048 72.1503 112.056 72.2062C112.072 72.3419 112.096 72.4857 112.12 72.6214C112.136 72.6852 112.144 72.7411 112.16 72.805C112.192 72.9407 112.231 73.0764 112.271 73.2042C112.287 73.2601 112.303 73.308 112.319 73.3639C112.375 73.5156 112.431 73.6753 112.495 73.819C112.503 73.8429 112.511 73.8668 112.527 73.8908C112.694 74.2581 112.894 74.6014 113.133 74.9287C113.149 74.9447 113.157 74.9607 113.173 74.9766C113.245 75.0725 113.309 75.1602 113.388 75.2481L130.646 95.6151L113.388 115.974C112.495 117.028 112.008 118.369 112.008 119.758C112.008 121.148 112.503 122.489 113.388 123.543L130.646 143.902L113.388 164.261C112.495 165.315 112 166.656 112 168.045C112 169.434 112.495 170.784 113.388 171.838L130.646 192.189L113.388 212.548C113.34 212.604 113.301 212.659 113.261 212.715C113.213 212.779 113.157 212.843 113.109 212.915C113.037 213.019 112.965 213.122 112.902 213.226C112.87 213.282 112.83 213.33 112.798 213.386C112.71 213.546 112.622 213.705 112.551 213.873C112.519 213.937 112.495 214.009 112.471 214.073C112.423 214.184 112.375 214.296 112.335 214.408C112.311 214.48 112.287 214.552 112.263 214.623C112.231 214.735 112.2 214.855 112.168 214.975C112.152 215.047 112.136 215.11 112.12 215.182C112.096 215.318 112.072 215.446 112.056 215.582C112.056 215.637 112.04 215.693 112.032 215.749C112.016 215.941 112 216.14 112 216.332C112 216.34 112 216.356 112 216.364C112 216.548 112.008 216.723 112.032 216.907C112.032 216.971 112.048 217.043 112.056 217.106C112.072 217.234 112.088 217.354 112.112 217.474C112.128 217.546 112.144 217.625 112.16 217.697C112.184 217.809 112.215 217.921 112.255 218.033C112.279 218.104 112.303 218.176 112.327 218.248C112.367 218.368 112.415 218.48 112.463 218.599C112.487 218.663 112.511 218.719 112.543 218.783C112.622 218.951 112.702 219.118 112.798 219.278C112.822 219.318 112.846 219.35 112.87 219.39C112.95 219.518 113.029 219.637 113.117 219.757C113.157 219.813 113.205 219.869 113.245 219.925C113.293 219.989 113.34 220.053 113.388 220.108L130.646 240.475L113.388 260.834C112.495 261.888 112.008 263.23 112.008 264.619C112.008 266.008 112.503 267.349 113.388 268.403L130.646 288.762L113.388 309.121C112.495 310.175 112 311.516 112 312.906C112 314.295 112.495 315.644 113.388 316.698L130.646 337.049L113.388 357.408C112.495 358.462 112 359.803 112 361.192C112 362.885 112.726 364.49 113.987 365.599C116.38 367.683 119.995 367.412 122.053 364.985L122.069 364.977Z" fill="white"/>
</g>
</svg>
