<svg width="1230" height="48" viewBox="0 0 1230 48" fill="none" xmlns="http://www.w3.org/2000/svg">
<path d="M1219.21 24C1219.21 31.9768 1211.87 38.4616 1202.84 38.4616C1193.81 38.4616 1186.47 31.9768 1186.47 24C1186.47 10.7717 1174.28 0 1159.3 0C1144.32 0 1132.13 10.7617 1132.13 24C1132.13 31.9768 1124.78 38.4616 1115.75 38.4616C1106.73 38.4616 1099.38 31.9768 1099.38 24C1099.38 10.7717 1087.19 0 1072.21 0C1057.23 0 1045.04 10.7617 1045.04 24C1045.04 31.9768 1037.7 38.4616 1028.67 38.4616C1019.64 38.4616 1012.29 31.9768 1012.29 24C1012.29 10.7717 1000.11 0 985.125 0C970.144 0 957.956 10.7617 957.956 24C957.956 31.9768 950.609 38.4616 941.582 38.4616C932.556 38.4616 925.209 31.9768 925.209 24C925.209 10.7717 913.021 0 898.039 0C883.058 0 870.87 10.7617 870.87 24C870.87 31.9768 863.523 38.4616 854.496 38.4616C845.47 38.4616 838.123 31.9768 838.123 24C838.123 10.7717 825.935 0 810.953 0C795.972 0 783.784 10.7617 783.784 24C783.784 31.9768 776.437 38.4616 767.41 38.4616C758.384 38.4616 751.037 31.9768 751.037 24C751.037 10.7717 738.849 0 723.867 0C708.886 0 696.698 10.7617 696.698 24C696.698 31.9768 689.351 38.4616 680.324 38.4616C671.298 38.4616 663.951 31.9768 663.951 24C663.951 10.7717 651.763 0 636.781 0C621.8 0 609.612 10.7617 609.612 24C609.612 31.9768 602.265 38.4616 593.238 38.4616C584.212 38.4616 576.865 31.9768 576.865 24C576.865 10.7717 564.677 0 549.695 0C534.714 0 522.526 10.7617 522.526 24C522.526 31.9768 515.179 38.4616 506.152 38.4616C497.126 38.4616 489.779 31.9768 489.779 24C489.779 10.7717 477.591 0 462.609 0C447.628 0 435.44 10.7617 435.44 24C435.44 31.9768 428.093 38.4616 419.066 38.4616C410.04 38.4616 402.693 31.9768 402.693 24C402.693 10.7717 390.505 0 375.523 0C360.542 0 348.354 10.7617 348.354 24C348.354 31.9768 341.007 38.4616 331.98 38.4616C322.954 38.4616 315.607 31.9768 315.607 24C315.607 10.7717 303.419 0 288.438 0C273.456 0 261.268 10.7617 261.268 24C261.268 31.9768 253.921 38.4616 244.895 38.4616C235.868 38.4616 228.521 31.9768 228.521 24C228.521 10.7717 216.333 0 201.352 0C186.37 0 174.182 10.7617 174.182 24C174.182 31.9768 166.835 38.4616 157.809 38.4616C148.782 38.4616 141.435 31.9768 141.435 24C141.435 10.7717 129.247 0 114.266 0C99.284 0 87.0959 10.7617 87.0959 24C87.0959 31.9768 79.7493 38.4616 70.7226 38.4616C61.6958 38.4616 54.3492 31.9768 54.3492 24C54.3492 10.7717 42.1611 0 27.1796 0C12.198 0 0 10.7617 0 24H10.7963C10.7963 16.0232 18.1429 9.53833 27.1696 9.53833C36.1964 9.53833 43.543 16.0232 43.543 24C43.543 37.2283 55.731 48 70.7126 48C85.6942 48 97.8823 37.2383 97.8823 24C97.8823 16.0232 105.229 9.53833 114.256 9.53833C123.282 9.53833 130.629 16.0232 130.629 24C130.629 37.2283 142.817 48 157.799 48C172.78 48 184.968 37.2383 184.968 24C184.968 16.0232 192.315 9.53833 201.342 9.53833C210.368 9.53833 217.715 16.0232 217.715 24C217.715 37.2283 229.903 48 244.885 48C259.866 48 272.054 37.2383 272.054 24C272.054 16.0232 279.401 9.53833 288.428 9.53833C297.454 9.53833 304.801 16.0232 304.801 24C304.801 37.2283 316.989 48 331.971 48C346.952 48 359.14 37.2383 359.14 24C359.14 16.0232 366.487 9.53833 375.514 9.53833C384.54 9.53833 391.887 16.0232 391.887 24C391.887 37.2283 404.075 48 419.057 48C434.038 48 446.226 37.2383 446.226 24C446.226 16.0232 453.573 9.53833 462.6 9.53833C471.626 9.53833 478.973 16.0232 478.973 24C478.973 37.2283 491.161 48 506.143 48C521.124 48 533.312 37.2383 533.312 24C533.312 16.0232 540.659 9.53833 549.685 9.53833C558.712 9.53833 566.059 16.0232 566.059 24C566.059 37.2283 578.247 48 593.228 48C608.21 48 620.398 37.2383 620.398 24C620.398 16.0232 627.745 9.53833 636.772 9.53833C645.798 9.53833 653.145 16.0232 653.145 24C653.145 37.2283 665.333 48 680.314 48C695.296 48 707.484 37.2383 707.484 24C707.484 16.0232 714.831 9.53833 723.857 9.53833C732.884 9.53833 740.231 16.0232 740.231 24C740.231 37.2283 752.419 48 767.4 48C782.382 48 794.57 37.2383 794.57 24C794.57 16.0232 801.917 9.53833 810.943 9.53833C819.97 9.53833 827.317 16.0232 827.317 24C827.317 37.2283 839.505 48 854.486 48C869.468 48 881.656 37.2383 881.656 24C881.656 16.0232 889.003 9.53833 898.029 9.53833C907.056 9.53833 914.403 16.0232 914.403 24C914.403 37.2283 926.591 48 941.572 48C956.554 48 968.742 37.2383 968.742 24C968.742 16.0232 976.089 9.53833 985.115 9.53833C994.142 9.53833 1001.49 16.0232 1001.49 24C1001.49 37.2283 1013.68 48 1028.66 48C1043.64 48 1055.83 37.2383 1055.83 24C1055.83 16.0232 1063.17 9.53833 1072.2 9.53833C1081.23 9.53833 1088.57 16.0232 1088.57 24C1088.57 37.2283 1100.76 48 1115.74 48C1130.73 48 1142.91 37.2383 1142.91 24C1142.91 16.0232 1150.26 9.53833 1159.29 9.53833C1168.31 9.53833 1175.66 16.0232 1175.66 24C1175.66 37.2283 1187.85 48 1202.83 48C1217.81 48 1230 37.2383 1230 24H1219.2H1219.21Z" fill="black"/>
</svg>
