<svg xmlns="http://www.w3.org/2000/svg" width="16" height="17" viewBox="0 0 16 17"><path d="M5.22737 13.8795C5.22737 13.9457 5.1549 13.9986 5.06352 13.9986C4.95954 14.0085 4.88707 13.9556 4.88707 13.8795C4.88707 13.8133 4.95954 13.7604 5.05092 13.7604C5.14544 13.7505 5.22737 13.8034 5.22737 13.8795ZM4.24743 13.7306C4.22538 13.7968 4.2884 13.8729 4.38292 13.8927C4.46485 13.9258 4.55937 13.8927 4.57828 13.8266C4.59719 13.7604 4.53732 13.6843 4.44279 13.6545C4.36087 13.6314 4.26949 13.6645 4.24743 13.7306ZM5.64014 13.6744C5.54876 13.6975 5.48574 13.7604 5.4952 13.8365C5.50465 13.9027 5.58657 13.9457 5.6811 13.9225C5.77248 13.8994 5.83549 13.8365 5.82604 13.7703C5.81659 13.7075 5.73151 13.6645 5.64014 13.6744ZM7.71344 0.996338C3.34312 0.996338 0 4.48016 0 9.069C0 12.7381 2.19934 15.8778 5.3408 16.9829C5.74412 17.059 5.88591 16.7976 5.88591 16.5825C5.88591 16.3774 5.87646 15.2459 5.87646 14.5511C5.87646 14.5511 3.67082 15.0474 3.20763 13.5652C3.20763 13.5652 2.84843 12.6024 2.33168 12.3543C2.33168 12.3543 1.61012 11.8349 2.38209 11.8448C2.38209 11.8448 3.16667 11.911 3.59835 12.6984C4.2884 13.9755 5.44478 13.6082 5.89536 13.3899C5.96783 12.8605 6.17264 12.4933 6.39951 12.2749C4.63815 12.0698 2.86103 11.8018 2.86103 8.61905C2.86103 7.70922 3.1005 7.25265 3.60465 6.67036C3.52272 6.45531 3.2549 5.56864 3.68657 4.42391C4.34511 4.20886 5.8607 5.3172 5.8607 5.3172C6.49089 5.13192 7.16833 5.03598 7.83948 5.03598C8.51062 5.03598 9.18807 5.13192 9.81825 5.3172C9.81825 5.3172 11.3338 4.20555 11.9924 4.42391C12.4241 5.57195 12.1562 6.45531 12.0743 6.67036C12.5785 7.25596 12.8872 7.71253 12.8872 8.61905C12.8872 11.8117 11.0314 12.0665 9.26999 12.2749C9.55988 12.5363 9.80565 13.0325 9.80565 13.81C9.80565 14.925 9.7962 16.3046 9.7962 16.5759C9.7962 16.791 9.94114 17.0523 10.3413 16.9762C13.4922 15.8778 15.6285 12.7381 15.6285 9.069C15.6285 4.48016 12.0838 0.996338 7.71344 0.996338ZM3.06269 12.4072C3.02173 12.4403 3.03118 12.5164 3.08475 12.5793C3.13516 12.6322 3.20763 12.6554 3.24859 12.6124C3.28956 12.5793 3.2801 12.5032 3.22654 12.4403C3.17612 12.3874 3.10365 12.3642 3.06269 12.4072ZM2.72239 12.1393C2.70033 12.1823 2.73184 12.2352 2.79486 12.2683C2.84528 12.3014 2.90829 12.2914 2.93035 12.2451C2.95241 12.2021 2.9209 12.1492 2.85788 12.1161C2.79486 12.0962 2.74445 12.1062 2.72239 12.1393ZM3.74329 13.3171C3.69287 13.3601 3.71178 13.4593 3.78425 13.5222C3.85672 13.5983 3.9481 13.6082 3.98906 13.5553C4.03002 13.5123 4.01112 13.413 3.9481 13.3502C3.87878 13.2741 3.78425 13.2641 3.74329 13.3171ZM3.38408 12.8307C3.33367 12.8638 3.33367 12.9498 3.38408 13.0259C3.4345 13.102 3.51957 13.1351 3.56053 13.102C3.61095 13.059 3.61095 12.973 3.56053 12.8969C3.51642 12.8208 3.4345 12.7877 3.38408 12.8307Z"/></svg>