<svg width="69" height="77" viewBox="0 0 69 77" fill="none" xmlns="http://www.w3.org/2000/svg">
<path d="M68.3187 0.0654509C68.3187 0.785367 68.3187 1.2435 68.3187 1.70162C68.3187 26.2442 68.3187 50.8523 68.3187 75.3948C68.3187 75.9184 68.0562 76.9001 67.7936 76.9656C67.2686 77.0965 66.4811 76.8347 66.0217 76.5075C62.7403 74.0859 59.4589 71.6644 56.2431 69.112C54.7337 67.9339 53.093 67.4103 51.1898 67.4103C34.7828 67.4758 18.3102 67.4103 1.90321 67.4103C9.53674e-07 67.4103 0 67.4103 0 65.5124C0.0656279 62.5673 -0.459394 62.8945 2.55949 62.8945C19.1634 62.8945 35.8329 62.8945 52.4367 62.829C54.6024 62.829 56.3744 63.3526 58.0151 64.727C59.1308 65.7087 60.3121 66.625 61.559 67.4758C62.0184 67.803 62.8715 68.1957 63.1341 67.9994C63.5278 67.6721 63.7903 66.8868 63.7903 66.2977C63.856 59.6221 63.7903 52.9466 63.7903 46.271C63.7903 31.6109 63.7903 16.9508 63.7903 2.29064C63.7903 -0.327235 63.5278 0.0654469 66.1529 0C66.8092 0.0654469 67.4655 0.0654509 68.3187 0.0654509Z" fill="#482D38"/>
<path d="M28.7446 31.48C30.0572 31.48 31.3041 31.4145 32.5511 31.5454C32.9448 31.6108 33.4699 32.1344 33.6011 32.5925C34.323 35.145 34.848 37.6974 35.5043 40.2498C35.57 40.6425 35.7012 41.0352 36.095 41.4279C36.7512 38.6137 37.4075 35.7995 37.9982 32.9852C38.1951 31.9381 38.5888 31.48 39.7701 31.48C43.0515 31.5454 43.0515 31.48 43.8391 34.7523C44.2985 36.8466 44.8235 38.8755 45.611 40.9698C46.136 38.2864 46.6611 35.6031 47.0548 32.8543C47.1861 31.6763 47.7111 31.4145 48.6955 31.48C49.7456 31.5454 50.7956 31.48 52.1082 31.48C51.6488 33.5088 51.3206 35.3413 50.8613 37.1738C49.8768 41.4279 48.8268 45.6819 47.908 49.936C47.6455 51.0486 47.1861 51.3758 46.0704 51.3758C43.314 51.3104 43.3797 51.3758 42.7234 48.5616C42.1327 45.9437 41.4108 43.2604 40.492 40.6425C39.8358 43.3258 39.1795 46.0746 38.5232 48.7579C37.8669 51.3758 36.9481 51.9648 34.323 51.3104C34.0605 51.2449 33.6667 50.8522 33.6011 50.5904C31.8948 44.4384 30.2541 38.2864 28.6134 32.1344C28.6134 32.0035 28.679 31.8072 28.7446 31.48Z" fill="#482D38"/>
<path d="M8.99061 31.349C12.4689 31.4799 15.8815 31.2835 19.0973 31.8725C23.9538 32.7888 27.1039 38.3518 25.9882 43.3912C24.8726 48.4306 21.263 51.3103 16.0784 51.3103C14.1096 51.3103 12.1408 51.3103 10.1719 51.3103C9.58126 51.3103 8.99061 51.3103 9.05624 50.4595C8.99061 44.242 8.99061 37.9591 8.99061 31.349ZM13.6502 46.729C16.5378 46.8599 19.3598 47.1871 20.8693 44.1766C21.9193 42.0823 21.8537 39.8571 20.4099 37.8937C18.6379 35.603 16.1441 35.9303 13.6502 36.1266C13.6502 39.6607 13.6502 43.1294 13.6502 46.729Z" fill="#482D38"/>
<path d="M8.9247 23.9537C8.9247 17.7362 8.9247 11.7151 8.9247 5.30131C12.1405 5.49765 15.3562 5.36675 18.4407 5.95578C22.7722 6.80659 25.266 10.7988 24.9379 15.6419C24.6098 20.0269 21.5253 23.4955 17.2594 23.8228C14.5031 24.15 11.8123 23.9537 8.9247 23.9537ZM13.0593 19.7651C16.6032 20.2886 18.7689 19.6342 20.0158 17.6053C21.0659 15.9037 21.0002 13.2858 19.8189 11.7151C18.1126 9.29357 15.6187 9.68624 13.0593 9.81714C13.0593 13.2204 13.0593 16.4273 13.0593 19.7651Z" fill="#482D38"/>
<path d="M45.5462 17.6706C46.2024 18.9796 46.7931 20.1576 47.4494 21.2702C43.9055 24.9352 37.5396 25.0007 33.93 21.532C30.2549 17.9979 30.2549 11.8459 33.7988 8.11539C37.3427 4.45036 43.5117 4.38491 47.4494 8.11539C46.8587 9.29343 46.2024 10.5369 45.4805 11.9113C43.7086 10.406 41.871 9.09709 39.574 9.75156C38.4583 10.0133 37.277 10.6678 36.5551 11.4532C34.8488 13.2857 35.0457 16.558 36.752 18.3251C38.7865 20.5503 41.2803 20.4194 45.5462 17.6706Z" fill="#482D38"/>
</svg>
