<svg width="94" height="77" viewBox="0 0 94 77" fill="none" xmlns="http://www.w3.org/2000/svg">
<path d="M87.2755 0.692169C88.3265 0.692169 89.2461 0.798618 90.0344 1.01152C90.8227 1.20804 91.4878 1.51101 92.0297 1.92043C92.5716 2.32985 92.9822 2.83753 93.2613 3.44347C93.5405 4.03303 93.6801 4.72086 93.6801 5.50694V5.94912C93.6801 6.60419 93.6062 7.18557 93.4584 7.69325C93.3106 8.18455 93.0725 8.6431 92.744 9.0689C92.4156 9.47832 91.9722 9.87136 91.4139 10.248C90.8555 10.6083 90.1576 10.9768 89.32 11.3535C88.5646 11.6646 87.957 11.9594 87.4972 12.2378C87.0374 12.5162 86.6761 12.7946 86.4133 13.073C86.1506 13.3514 85.9617 13.6544 85.8468 13.9819C85.7482 14.2931 85.6908 14.6452 85.6743 15.0382L85.157 14.3995H87.1031L85.5512 14.7926C85.9289 14.5469 86.3148 14.3504 86.7089 14.203C87.1195 14.0393 87.5957 13.9246 88.1376 13.8591C88.6796 13.7772 89.32 13.7363 90.059 13.7363H93.6555C93.7376 13.7363 93.8033 13.7608 93.8525 13.81C93.9018 13.8591 93.9264 13.9246 93.9264 14.0065C93.9264 14.0556 93.9264 14.2276 93.9264 14.5224C93.9264 14.8172 93.9264 15.1693 93.9264 15.5787C93.9264 15.9881 93.9264 16.3975 93.9264 16.8069C93.9264 17.2164 93.9264 17.5685 93.9264 17.8632C93.9264 18.158 93.9264 18.33 93.9264 18.3791C93.8936 18.3791 93.6473 18.3791 93.1874 18.3791C92.7441 18.3791 92.1611 18.3791 91.4385 18.3791C90.7159 18.3791 89.9277 18.3791 89.0737 18.3791C88.2198 18.3791 87.3576 18.3791 86.4872 18.3791C85.6333 18.3791 84.845 18.3791 84.1225 18.3791C83.4163 18.3791 82.8333 18.3791 82.3735 18.3791C81.9137 18.3791 81.6674 18.3791 81.6345 18.3791C81.5852 18.3791 81.536 18.3709 81.4867 18.3545C81.4539 18.3218 81.421 18.289 81.3882 18.2563C81.3718 18.2235 81.3635 18.1744 81.3635 18.1089V15.0382C81.3635 14.0884 81.4785 13.245 81.7084 12.508C81.9383 11.7711 82.3489 11.1078 82.9401 10.5182C83.5477 9.92868 84.4016 9.37187 85.5019 8.84781C86.2737 8.5039 86.8814 8.20912 87.3248 7.96346C87.7846 7.71781 88.1212 7.52129 88.3347 7.3739C88.5482 7.21013 88.6878 7.06274 88.7535 6.93173C88.8356 6.78434 88.8766 6.64513 88.8766 6.51412V6.41586C88.8766 6.28484 88.8602 6.17839 88.8274 6.09651C88.811 6.01463 88.7617 5.94093 88.6796 5.87542C88.5975 5.77716 88.4332 5.71165 88.1869 5.6789C87.9406 5.62977 87.5793 5.60521 87.1031 5.60521C86.2163 5.60521 85.3705 5.70347 84.5658 5.89999C83.7612 6.08013 83.0468 6.35854 82.4228 6.7352H81.9301C81.9301 6.68607 81.9301 6.50593 81.9301 6.19477C81.9301 5.88361 81.9301 5.51513 81.9301 5.08934C81.9301 4.64716 81.9301 4.21318 81.9301 3.78738C81.9301 3.36159 81.9301 3.0013 81.9301 2.70651C81.9301 2.39536 81.9301 2.21521 81.9301 2.16608C81.9301 2.03507 81.9383 1.94499 81.9547 1.89586C81.9876 1.83036 82.0533 1.77304 82.1518 1.72391C82.6445 1.47826 83.3424 1.24898 84.2456 1.03608C85.1652 0.806807 86.1752 0.692169 87.2755 0.692169Z" fill="#F45999"/>
<path d="M87.4479 20.0987C88.6796 20.0987 89.7881 20.3525 90.7734 20.8602C91.7587 21.3515 92.5388 22.0884 93.1135 23.0711C93.7047 24.0373 94.0003 25.2655 94.0003 26.7558V31.4232C94.0003 32.9626 93.7047 34.24 93.1135 35.2554C92.5388 36.2707 91.7505 37.0323 90.7488 37.5399C89.7634 38.0313 88.6632 38.2769 87.4479 38.2769C86.5283 38.2769 85.6743 38.1377 84.8861 37.8593C84.0978 37.5809 83.3999 37.1551 82.7923 36.5819C82.2011 36.0087 81.733 35.2963 81.3882 34.4447C81.0597 33.5931 80.8955 32.586 80.8955 31.4232V26.7558C80.8955 25.2819 81.1829 24.0537 81.7577 23.0711C82.3489 22.0884 83.1371 21.3515 84.1225 20.8602C85.1242 20.3525 86.2327 20.0987 87.4479 20.0987ZM87.4479 24.5204C87.1195 24.5204 86.8485 24.5859 86.635 24.7169C86.4215 24.8316 86.2655 25.0117 86.167 25.2574C86.0685 25.503 86.0192 25.8142 86.0192 26.1908V32.3813C86.0192 32.545 86.0274 32.7006 86.0438 32.848C86.0767 32.979 86.1177 33.1018 86.167 33.2165C86.2327 33.3147 86.2984 33.413 86.3641 33.5113C86.479 33.6259 86.6268 33.716 86.8075 33.7815C86.9881 33.8306 87.1934 33.8552 87.4233 33.8552C87.7846 33.8552 88.0637 33.7978 88.2608 33.6832C88.4743 33.5686 88.6303 33.4048 88.7289 33.1919C88.8274 32.9626 88.8766 32.6924 88.8766 32.3813V26.1663C88.8766 25.9861 88.8602 25.8224 88.8274 25.675C88.811 25.5112 88.7781 25.3638 88.7289 25.2328C88.6796 25.1018 88.6139 25.0035 88.5318 24.938C88.4004 24.807 88.2444 24.7087 88.0638 24.6432C87.8995 24.5613 87.6943 24.5204 87.4479 24.5204Z" fill="#F45999"/>
<path d="M87.2755 39.5052C88.3265 39.5052 89.2461 39.6116 90.0344 39.8245C90.8227 40.021 91.4878 40.324 92.0297 40.7334C92.5716 41.1428 92.9822 41.6505 93.2613 42.2565C93.5405 42.846 93.6801 43.5338 93.6801 44.3199V44.7621C93.6801 45.4172 93.6062 45.9986 93.4584 46.5062C93.3106 46.9975 93.0725 47.4561 92.744 47.8819C92.4156 48.2913 91.9722 48.6844 91.4139 49.061C90.8555 49.4213 90.1576 49.7898 89.32 50.1665C88.5646 50.4776 87.957 50.7724 87.4972 51.0508C87.0374 51.3292 86.6761 51.6076 86.4133 51.886C86.1506 52.1644 85.9617 52.4674 85.8468 52.7949C85.7482 53.1061 85.6908 53.4582 85.6743 53.8512L85.157 53.2125H87.1031L85.5512 53.6056C85.9289 53.3599 86.3148 53.1634 86.7089 53.016C87.1195 52.8522 87.5957 52.7376 88.1376 52.6721C88.6796 52.5902 89.32 52.5493 90.059 52.5493H93.6555C93.7376 52.5493 93.8033 52.5738 93.8525 52.623C93.9018 52.6721 93.9264 52.7376 93.9264 52.8195C93.9264 52.8686 93.9264 53.0406 93.9264 53.3354C93.9264 53.6301 93.9264 53.9822 93.9264 54.3917C93.9264 54.8011 93.9264 55.2105 93.9264 55.6199C93.9264 56.0293 93.9264 56.3814 93.9264 56.6762C93.9264 56.971 93.9264 57.143 93.9264 57.1921C93.8936 57.1921 93.6473 57.1921 93.1874 57.1921C92.7441 57.1921 92.1611 57.1921 91.4385 57.1921C90.7159 57.1921 89.9277 57.1921 89.0737 57.1921C88.2198 57.1921 87.3576 57.1921 86.4872 57.1921C85.6333 57.1921 84.845 57.1921 84.1225 57.1921C83.4163 57.1921 82.8333 57.1921 82.3735 57.1921C81.9137 57.1921 81.6674 57.1921 81.6345 57.1921C81.5852 57.1921 81.536 57.1839 81.4867 57.1675C81.4539 57.1348 81.421 57.102 81.3882 57.0693C81.3718 57.0365 81.3635 56.9874 81.3635 56.9219V53.8512C81.3635 52.9014 81.4785 52.058 81.7084 51.321C81.9383 50.5841 82.3489 49.9208 82.9401 49.3312C83.5477 48.7417 84.4016 48.1849 85.5019 47.6608C86.2737 47.3169 86.8814 47.0221 87.3248 46.7765C87.7846 46.5308 88.1212 46.3343 88.3347 46.1869C88.5482 46.0231 88.6878 45.8757 88.7535 45.7447C88.8356 45.5973 88.8766 45.4581 88.8766 45.3271V45.2289C88.8766 45.0978 88.8602 44.9914 88.8274 44.9095C88.811 44.8276 88.7617 44.7539 88.6796 44.6884C88.5975 44.5902 88.4332 44.5246 88.1869 44.4919C87.9406 44.4428 87.5793 44.4182 87.1031 44.4182C86.2163 44.4182 85.3705 44.5165 84.5658 44.713C83.7612 44.8931 83.0468 45.1715 82.4228 45.5482H81.9301C81.9301 45.4991 81.9301 45.3189 81.9301 45.0078C81.9301 44.6966 81.9301 44.3281 81.9301 43.9023C81.9301 43.4602 81.9301 43.0262 81.9301 42.6004C81.9301 42.1746 81.9301 41.8143 81.9301 41.5195C81.9301 41.2083 81.9301 41.0282 81.9301 40.9791C81.9301 40.8481 81.9383 40.758 81.9547 40.7089C81.9876 40.6433 82.0533 40.586 82.1518 40.5369C82.6445 40.2912 83.3424 40.062 84.2456 39.8491C85.1652 39.6198 86.1752 39.5052 87.2755 39.5052Z" fill="#F45999"/>
<path d="M87.2755 58.9117C88.3265 58.9117 89.2461 59.0181 90.0344 59.231C90.8227 59.4275 91.4878 59.7305 92.0297 60.1399C92.5716 60.5493 92.9822 61.057 93.2613 61.663C93.5405 62.2525 93.6801 62.9403 93.6801 63.7264V64.1686C93.6801 64.8237 93.6062 65.4051 93.4584 65.9127C93.3106 66.404 93.0725 66.8626 92.744 67.2884C92.4156 67.6978 91.9722 68.0908 91.4139 68.4675C90.8555 68.8278 90.1576 69.1963 89.32 69.5729C88.5646 69.8841 87.957 70.1789 87.4972 70.4573C87.0374 70.7357 86.6761 71.0141 86.4133 71.2925C86.1506 71.5709 85.9617 71.8739 85.8468 72.2014C85.7482 72.5126 85.6908 72.8647 85.6743 73.2577L85.157 72.619H87.1031L85.5512 73.0121C85.9289 72.7664 86.3148 72.5699 86.7089 72.4225C87.1195 72.2587 87.5957 72.1441 88.1376 72.0786C88.6796 71.9967 89.32 71.9558 90.059 71.9558H93.6555C93.7376 71.9558 93.8033 71.9803 93.8525 72.0295C93.9018 72.0786 93.9264 72.1441 93.9264 72.226C93.9264 72.2751 93.9264 72.4471 93.9264 72.7419C93.9264 73.0366 93.9264 73.3887 93.9264 73.7982C93.9264 74.2076 93.9264 74.617 93.9264 75.0264C93.9264 75.4358 93.9264 75.7879 93.9264 76.0827C93.9264 76.3775 93.9264 76.5495 93.9264 76.5986C93.8936 76.5986 93.6473 76.5986 93.1874 76.5986C92.7441 76.5986 92.1611 76.5986 91.4385 76.5986C90.7159 76.5986 89.9277 76.5986 89.0737 76.5986C88.2198 76.5986 87.3576 76.5986 86.4872 76.5986C85.6333 76.5986 84.845 76.5986 84.1225 76.5986C83.4163 76.5986 82.8333 76.5986 82.3735 76.5986C81.9137 76.5986 81.6674 76.5986 81.6345 76.5986C81.5852 76.5986 81.536 76.5904 81.4867 76.574C81.4539 76.5413 81.421 76.5085 81.3882 76.4758C81.3718 76.443 81.3635 76.3939 81.3635 76.3284V73.2577C81.3635 72.3079 81.4785 71.4645 81.7084 70.7275C81.9383 69.9906 82.3489 69.3273 82.9401 68.7377C83.5477 68.1482 84.4016 67.5914 85.5019 67.0673C86.2737 66.7234 86.8814 66.4286 87.3248 66.183C87.7846 65.9373 88.1212 65.7408 88.3347 65.5934C88.5482 65.4296 88.6878 65.2822 88.7535 65.1512C88.8356 65.0038 88.8766 64.8646 88.8766 64.7336V64.6353C88.8766 64.5043 88.8602 64.3979 88.8274 64.316C88.811 64.2341 88.7617 64.1604 88.6796 64.0949C88.5975 63.9966 88.4332 63.9311 88.1869 63.8984C87.9406 63.8493 87.5793 63.8247 87.1031 63.8247C86.2163 63.8247 85.3705 63.923 84.5658 64.1195C83.7612 64.2996 83.0468 64.578 82.4228 64.9547H81.9301C81.9301 64.9056 81.9301 64.7254 81.9301 64.4143C81.9301 64.1031 81.9301 63.7346 81.9301 63.3088C81.9301 62.8666 81.9301 62.4327 81.9301 62.0069C81.9301 61.5811 81.9301 61.2208 81.9301 60.926C81.9301 60.6148 81.9301 60.4347 81.9301 60.3856C81.9301 60.2546 81.9383 60.1645 81.9547 60.1153C81.9876 60.0498 82.0533 59.9925 82.1518 59.9434C82.6445 59.6977 83.3424 59.4685 84.2456 59.2556C85.1652 59.0263 86.1752 58.9117 87.2755 58.9117Z" fill="#F45999"/>
<path d="M68.3187 0.0654509C68.3187 0.785367 68.3187 1.2435 68.3187 1.70162C68.3187 26.2442 68.3187 50.8523 68.3187 75.3948C68.3187 75.9184 68.0562 76.9001 67.7936 76.9656C67.2686 77.0965 66.4811 76.8347 66.0217 76.5075C62.7403 74.0859 59.4589 71.6644 56.2431 69.112C54.7337 67.9339 53.093 67.4103 51.1898 67.4103C34.7828 67.4758 18.3102 67.4103 1.90321 67.4103C9.53674e-07 67.4103 0 67.4103 0 65.5124C0.0656279 62.5673 -0.459394 62.8945 2.55949 62.8945C19.1634 62.8945 35.8329 62.8945 52.4367 62.829C54.6024 62.829 56.3744 63.3526 58.0151 64.727C59.1308 65.7087 60.3121 66.625 61.559 67.4758C62.0184 67.803 62.8715 68.1957 63.1341 67.9994C63.5278 67.6721 63.7903 66.8868 63.7903 66.2977C63.856 59.6221 63.7903 52.9466 63.7903 46.271C63.7903 31.6109 63.7903 16.9508 63.7903 2.29064C63.7903 -0.327235 63.5278 0.0654469 66.1529 0C66.8092 0.0654469 67.4655 0.0654509 68.3187 0.0654509Z" fill="#482D38"/>
<path d="M28.7446 31.48C30.0572 31.48 31.3041 31.4145 32.5511 31.5454C32.9448 31.6108 33.4699 32.1344 33.6011 32.5925C34.323 35.145 34.848 37.6974 35.5043 40.2498C35.57 40.6425 35.7012 41.0352 36.095 41.4279C36.7512 38.6137 37.4075 35.7995 37.9982 32.9852C38.1951 31.9381 38.5888 31.48 39.7701 31.48C43.0515 31.5454 43.0515 31.48 43.8391 34.7523C44.2985 36.8466 44.8235 38.8755 45.611 40.9698C46.136 38.2864 46.6611 35.6031 47.0548 32.8543C47.1861 31.6763 47.7111 31.4145 48.6955 31.48C49.7456 31.5454 50.7956 31.48 52.1082 31.48C51.6488 33.5088 51.3206 35.3413 50.8613 37.1738C49.8768 41.4279 48.8268 45.6819 47.908 49.936C47.6455 51.0486 47.1861 51.3758 46.0704 51.3758C43.314 51.3104 43.3797 51.3758 42.7234 48.5616C42.1327 45.9437 41.4108 43.2604 40.492 40.6425C39.8358 43.3258 39.1795 46.0746 38.5232 48.7579C37.8669 51.3758 36.9481 51.9648 34.323 51.3104C34.0605 51.2449 33.6667 50.8522 33.6011 50.5904C31.8948 44.4384 30.2541 38.2864 28.6134 32.1344C28.6134 32.0035 28.679 31.8072 28.7446 31.48Z" fill="#482D38"/>
<path d="M8.99061 31.349C12.4689 31.4799 15.8815 31.2835 19.0973 31.8725C23.9538 32.7888 27.1039 38.3518 25.9882 43.3912C24.8726 48.4306 21.263 51.3103 16.0784 51.3103C14.1096 51.3103 12.1408 51.3103 10.1719 51.3103C9.58126 51.3103 8.99061 51.3103 9.05624 50.4595C8.99061 44.242 8.99061 37.9591 8.99061 31.349ZM13.6502 46.729C16.5378 46.8599 19.3598 47.1871 20.8693 44.1766C21.9193 42.0823 21.8537 39.8571 20.4099 37.8937C18.6379 35.603 16.1441 35.9303 13.6502 36.1266C13.6502 39.6607 13.6502 43.1294 13.6502 46.729Z" fill="#482D38"/>
<path d="M8.9247 23.9537C8.9247 17.7362 8.9247 11.7151 8.9247 5.30131C12.1405 5.49765 15.3562 5.36675 18.4407 5.95578C22.7722 6.80659 25.266 10.7988 24.9379 15.6419C24.6098 20.0269 21.5253 23.4955 17.2594 23.8228C14.5031 24.15 11.8123 23.9537 8.9247 23.9537ZM13.0593 19.7651C16.6032 20.2886 18.7689 19.6342 20.0158 17.6053C21.0659 15.9037 21.0002 13.2858 19.8189 11.7151C18.1126 9.29357 15.6187 9.68624 13.0593 9.81714C13.0593 13.2204 13.0593 16.4273 13.0593 19.7651Z" fill="#482D38"/>
<path d="M45.5462 17.6706C46.2024 18.9796 46.7931 20.1576 47.4494 21.2702C43.9055 24.9352 37.5396 25.0007 33.93 21.532C30.2549 17.9979 30.2549 11.8459 33.7988 8.11539C37.3427 4.45036 43.5117 4.38491 47.4494 8.11539C46.8587 9.29343 46.2024 10.5369 45.4805 11.9113C43.7086 10.406 41.871 9.09709 39.574 9.75156C38.4583 10.0133 37.277 10.6678 36.5551 11.4532C34.8488 13.2857 35.0457 16.558 36.752 18.3251C38.7865 20.5503 41.2803 20.4194 45.5462 17.6706Z" fill="#482D38"/>
</svg>
