<svg xmlns="http://www.w3.org/2000/svg" width="324" height="168" fill="none" viewBox="0 0 324 168"><rect width="12" height="12" x="156" fill="#000"/><rect width="12" height="12" x="156" y="26" fill="#000"/><rect width="12" height="12" x="182" y="26" fill="#000"/><rect width="12" height="12" x="130" y="26" fill="#000"/><rect width="12" height="12" x="156" y="52" fill="#000"/><rect width="12" height="12" x="182" y="52" fill="#000"/><rect width="12" height="12" x="208" y="52" fill="#000"/><rect width="12" height="12" x="104" y="52" fill="#000"/><rect width="12" height="12" x="130" y="52" fill="#000"/><rect width="12" height="12" x="156" y="78" fill="#000"/><rect width="12" height="12" x="182" y="78" fill="#000"/><rect width="12" height="12" x="208" y="78" fill="#000"/><rect width="12" height="12" x="234" y="78" fill="#000"/><rect width="12" height="12" x="78" y="78" fill="#000"/><rect width="12" height="12" x="104" y="78" fill="#000"/><rect width="12" height="12" x="130" y="78" fill="#000"/><rect width="12" height="12" x="156" y="104" fill="#000"/><rect width="12" height="12" x="182" y="104" fill="#000"/><rect width="12" height="12" x="208" y="104" fill="#000"/><rect width="12" height="12" x="234" y="104" fill="#000"/><rect width="12" height="12" x="52" y="104" fill="#000"/><rect width="12" height="12" x="260" y="104" fill="#000"/><rect width="12" height="12" x="78" y="104" fill="#000"/><rect width="12" height="12" x="104" y="104" fill="#000"/><rect width="12" height="12" x="130" y="104" fill="#000"/><rect width="12" height="12" x="156" y="130" fill="#000"/><rect width="12" height="12" x="182" y="130" fill="#000"/><rect width="12" height="12" x="208" y="130" fill="#000"/><rect width="12" height="12" x="26" y="130" fill="#000"/><rect width="12" height="12" x="234" y="130" fill="#000"/><rect width="12" height="12" x="52" y="130" fill="#000"/><rect width="12" height="12" x="260" y="130" fill="#000"/><rect width="12" height="12" x="78" y="130" fill="#000"/><rect width="12" height="12" x="286" y="130" fill="#000"/><rect width="12" height="12" x="104" y="130" fill="#000"/><rect width="12" height="12" x="130" y="130" fill="#000"/><rect width="12" height="12" x="156" y="156" fill="#000"/><rect width="12" height="12" x="182" y="156" fill="#000"/><rect width="12" height="12" y="156" fill="#000"/><rect width="12" height="12" x="208" y="156" fill="#000"/><rect width="12" height="12" x="26" y="156" fill="#000"/><rect width="12" height="12" x="234" y="156" fill="#000"/><rect width="12" height="12" x="52" y="156" fill="#000"/><rect width="12" height="12" x="260" y="156" fill="#000"/><rect width="12" height="12" x="78" y="156" fill="#000"/><rect width="12" height="12" x="286" y="156" fill="#000"/><rect width="12" height="12" x="104" y="156" fill="#000"/><rect width="12" height="12" x="312" y="156" fill="#000"/><rect width="12" height="12" x="130" y="156" fill="#000"/></svg>