<svg xmlns="http://www.w3.org/2000/svg" width="384" height="384" fill="none" viewBox="0 0 384 384"><circle cx="12" cy="12" r="12" fill="#000"/><circle cx="12" cy="84" r="12" fill="#000"/><circle cx="12" cy="156" r="12" fill="#000"/><circle cx="12" cy="228" r="12" fill="#000"/><circle cx="12" cy="300" r="12" fill="#000"/><circle cx="12" cy="372" r="12" fill="#000"/><circle cx="156" cy="12" r="12" fill="#000"/><circle cx="156" cy="84" r="12" fill="#000"/><circle cx="156" cy="156" r="12" fill="#000"/><circle cx="156" cy="228" r="12" fill="#000"/><circle cx="156" cy="300" r="12" fill="#000"/><circle cx="156" cy="372" r="12" fill="#000"/><circle cx="300" cy="12" r="12" fill="#000"/><circle cx="300" cy="84" r="12" fill="#000"/><circle cx="300" cy="156" r="12" fill="#000"/><circle cx="300" cy="228" r="12" fill="#000"/><circle cx="300" cy="300" r="12" fill="#000"/><circle cx="300" cy="372" r="12" fill="#000"/><circle cx="84" cy="12" r="12" fill="#000"/><circle cx="84" cy="84" r="12" fill="#000"/><circle cx="84" cy="156" r="12" fill="#000"/><circle cx="84" cy="228" r="12" fill="#000"/><circle cx="84" cy="300" r="12" fill="#000"/><circle cx="84" cy="372" r="12" fill="#000"/><circle cx="228" cy="12" r="12" fill="#000"/><circle cx="228" cy="84" r="12" fill="#000"/><circle cx="228" cy="156" r="12" fill="#000"/><circle cx="228" cy="228" r="12" fill="#000"/><circle cx="228" cy="300" r="12" fill="#000"/><circle cx="228" cy="372" r="12" fill="#000"/><circle cx="372" cy="12" r="12" fill="#000"/><circle cx="372" cy="84" r="12" fill="#000"/><circle cx="372" cy="156" r="12" fill="#000"/><circle cx="372" cy="228" r="12" fill="#000"/><circle cx="372" cy="300" r="12" fill="#000"/><circle cx="372" cy="372" r="12" fill="#000"/></svg>