<svg xmlns="http://www.w3.org/2000/svg" width="324" height="168" fill="none" viewBox="0 0 324 168"><path fill="#000" d="M168 6L162 0L156 6L162 12L168 6Z"/><path fill="#000" d="M168 32L162 26L156 32L162 38L168 32Z"/><path fill="#000" d="M194 32L188 26L182 32L188 38L194 32Z"/><path fill="#000" d="M142 32L136 26L130 32L136 38L142 32Z"/><path fill="#000" d="M168 58L162 52L156 58L162 64L168 58Z"/><path fill="#000" d="M194 58L188 52L182 58L188 64L194 58Z"/><path fill="#000" d="M220 58L214 52L208 58L214 64L220 58Z"/><path fill="#000" d="M116 58L110 52L104 58L110 64L116 58Z"/><path fill="#000" d="M142 58L136 52L130 58L136 64L142 58Z"/><path fill="#000" d="M168 84L162 78L156 84L162 90L168 84Z"/><path fill="#000" d="M194 84L188 78L182 84L188 90L194 84Z"/><path fill="#000" d="M220 84L214 78L208 84L214 90L220 84Z"/><path fill="#000" d="M246 84L240 78L234 84L240 90L246 84Z"/><path fill="#000" d="M90 84L84 78L78 84L84 90L90 84Z"/><path fill="#000" d="M116 84L110 78L104 84L110 90L116 84Z"/><path fill="#000" d="M142 84L136 78L130 84L136 90L142 84Z"/><path fill="#000" d="M168 110L162 104L156 110L162 116L168 110Z"/><path fill="#000" d="M194 110L188 104L182 110L188 116L194 110Z"/><path fill="#000" d="M220 110L214 104L208 110L214 116L220 110Z"/><path fill="#000" d="M246 110L240 104L234 110L240 116L246 110Z"/><path fill="#000" d="M64 110L58 104L52 110L58 116L64 110Z"/><path fill="#000" d="M272 110L266 104L260 110L266 116L272 110Z"/><path fill="#000" d="M90 110L84 104L78 110L84 116L90 110Z"/><path fill="#000" d="M116 110L110 104L104 110L110 116L116 110Z"/><path fill="#000" d="M142 110L136 104L130 110L136 116L142 110Z"/><path fill="#000" d="M168 136L162 130L156 136L162 142L168 136Z"/><path fill="#000" d="M194 136L188 130L182 136L188 142L194 136Z"/><path fill="#000" d="M220 136L214 130L208 136L214 142L220 136Z"/><path fill="#000" d="M38 136L32 130L26 136L32 142L38 136Z"/><path fill="#000" d="M246 136L240 130L234 136L240 142L246 136Z"/><path fill="#000" d="M64 136L58 130L52 136L58 142L64 136Z"/><path fill="#000" d="M272 136L266 130L260 136L266 142L272 136Z"/><path fill="#000" d="M90 136L84 130L78 136L84 142L90 136Z"/><path fill="#000" d="M298 136L292 130L286 136L292 142L298 136Z"/><path fill="#000" d="M116 136L110 130L104 136L110 142L116 136Z"/><path fill="#000" d="M142 136L136 130L130 136L136 142L142 136Z"/><path fill="#000" d="M168 162L162 156L156 162L162 168L168 162Z"/><path fill="#000" d="M194 162L188 156L182 162L188 168L194 162Z"/><path fill="#000" d="M12 162L6 156L-3.00391e-07 162L6 168L12 162Z"/><path fill="#000" d="M220 162L214 156L208 162L214 168L220 162Z"/><path fill="#000" d="M38 162L32 156L26 162L32 168L38 162Z"/><path fill="#000" d="M246 162L240 156L234 162L240 168L246 162Z"/><path fill="#000" d="M64 162L58 156L52 162L58 168L64 162Z"/><path fill="#000" d="M272 162L266 156L260 162L266 168L272 162Z"/><path fill="#000" d="M90 162L84 156L78 162L84 168L90 162Z"/><path fill="#000" d="M298 162L292 156L286 162L292 168L298 162Z"/><path fill="#000" d="M116 162L110 156L104 162L110 168L116 162Z"/><path fill="#000" d="M324 162L318 156L312 162L318 168L324 162Z"/><path fill="#000" d="M142 162L136 156L130 162L136 168L142 162Z"/></svg>