<svg xmlns="http://www.w3.org/2000/svg" width="254" height="776" fill="none" viewBox="0 0 254 776"><path fill="#fff" stroke="#000" stroke-width="8" d="M171 770.043V4H250V737.744L171 770.043Z"/><mask id="mask0_3585_13926" width="167" height="776" x="0" y="0" maskUnits="userSpaceOnUse" style="mask-type:alpha"><path fill="#000" d="M167 0V776L0 762.77V0H167Z"/></mask><g mask="url(#mask0_3585_13926)"><path fill="#000" d="M0 0H167V776H0V0Z"/><path fill="#fff" d="M34.0691 723.977L54.5344 699.833C55.428 698.779 55.9227 697.438 55.9227 696.041C55.9227 694.644 55.428 693.302 54.5344 692.249L37.2765 671.898L54.5344 651.539C55.428 650.485 55.9147 649.143 55.9147 647.754C55.9147 646.365 55.42 645.024 54.5344 643.97L37.2765 623.611L54.5344 603.252C55.428 602.198 55.9227 600.857 55.9227 599.467C55.9227 598.078 55.428 596.737 54.5424 595.683L37.2845 575.316L54.5424 554.965C55.436 553.911 55.9306 552.57 55.9306 551.173C55.9306 549.775 55.436 548.434 54.5424 547.38L37.2845 527.029L54.5424 506.67C55.436 505.616 55.9227 504.275 55.9227 502.886C55.9227 501.497 55.428 500.155 54.5424 499.101L37.2845 478.742L54.5424 458.383C55.436 457.33 55.9306 455.988 55.9306 454.599C55.9306 453.21 55.436 451.869 54.5503 450.815L37.2845 430.448L54.5424 410.089C55.436 409.035 55.9306 407.694 55.9306 406.296C55.9306 404.899 55.436 403.558 54.5424 402.504L37.2845 382.153L54.5424 361.794C55.428 360.74 55.9227 359.399 55.9227 358.01C55.9227 356.62 55.428 355.279 54.5424 354.217L37.2845 333.858L54.5344 313.499C55.428 312.445 55.9227 311.104 55.9227 309.715C55.9227 308.326 55.428 306.984 54.5424 305.93L37.2845 285.563L54.5344 265.204C55.428 264.151 55.9227 262.809 55.9227 261.412C55.9227 260.015 55.428 258.674 54.5344 257.62L37.2765 237.269L54.5424 216.918C55.428 215.864 55.9227 214.523 55.9227 213.133C55.9227 211.744 55.428 210.403 54.5424 209.341L37.2845 188.982L54.5344 168.623C55.428 167.569 55.9227 166.228 55.9227 164.839C55.9227 163.449 55.428 162.108 54.5424 161.054L37.2766 140.687L54.5344 120.328C55.428 119.274 55.9227 117.933 55.9227 116.536C55.9227 115.139 55.428 113.797 54.5344 112.743L37.2766 92.3924L54.5424 72.0414C55.428 70.9875 55.9227 69.6382 55.9227 68.249C55.9227 66.8598 55.428 65.5185 54.5424 64.4647L37.2845 44.1056L54.5344 23.7387C55.428 22.6848 55.9227 21.3435 55.9227 19.9543C55.9227 18.5651 55.428 17.2238 54.5424 16.1699L34.0691 -7.98147C32.0106 -10.4086 28.3883 -10.688 26.0027 -8.59623C24.7421 -7.49445 24.016 -5.88968 24.016 -4.19709C24.016 -2.80789 24.5107 -1.46659 25.3963 -0.412711L42.6542 19.9543L25.3963 40.3133C24.5027 41.3672 24.016 42.7085 24.016 44.0977C24.016 45.4869 24.5107 46.8282 25.3963 47.882L42.6542 68.2411L25.3963 88.6001C24.5027 89.6539 24.0081 90.9952 24.008 92.3844C24.008 93.7736 24.5027 95.1229 25.3963 96.1768L42.6542 116.528L25.3963 136.887C25.3405 136.959 25.2846 137.031 25.2288 137.102C25.1969 137.142 25.157 137.19 25.1251 137.23C25.0213 137.374 24.9256 137.518 24.8378 137.669C24.8299 137.685 24.8219 137.693 24.8139 137.709C24.7181 137.877 24.6304 138.045 24.5506 138.228C24.5267 138.276 24.5107 138.316 24.4947 138.364C24.4389 138.5 24.383 138.627 24.3352 138.763C24.3112 138.819 24.2953 138.883 24.2793 138.947C24.2394 139.074 24.2075 139.202 24.1756 139.33C24.1596 139.394 24.1437 139.45 24.1357 139.514C24.1038 139.657 24.0878 139.793 24.0639 139.937C24.0639 139.985 24.0479 140.04 24.0479 140.088C24.032 140.28 24.016 140.48 24.016 140.671L24.016 140.687C24.016 140.879 24.032 141.062 24.0479 141.254C24.0479 141.318 24.0639 141.374 24.0719 141.438C24.0878 141.573 24.1118 141.701 24.1357 141.837C24.1517 141.901 24.1676 141.973 24.1836 142.036C24.2155 142.164 24.2474 142.284 24.2873 142.412C24.3033 142.476 24.3272 142.531 24.3431 142.595C24.391 142.731 24.4469 142.875 24.5027 143.01C24.5187 143.05 24.5346 143.09 24.5506 143.13C24.7102 143.482 24.9096 143.825 25.141 144.136C25.165 144.168 25.1889 144.2 25.2208 144.232C25.2846 144.312 25.3405 144.392 25.4043 144.472L42.6621 164.839L25.4043 185.198C24.5107 186.251 24.024 187.593 24.024 188.982C24.024 190.371 24.5187 191.712 25.4043 192.766L42.6621 213.125L25.4043 233.484C24.5107 234.538 24.016 235.879 24.016 237.269C24.016 238.658 24.5107 240.007 25.4043 241.061L42.6621 261.412L25.4043 281.771C25.3485 281.835 25.3006 281.907 25.2447 281.971C25.2048 282.019 25.1649 282.067 25.133 282.114C25.0373 282.25 24.9495 282.386 24.8618 282.522C24.8458 282.546 24.8298 282.569 24.8139 282.593C24.7181 282.761 24.6304 282.929 24.5506 283.104C24.5267 283.152 24.5107 283.208 24.4868 283.256C24.4309 283.384 24.383 283.512 24.3352 283.639C24.3112 283.703 24.2953 283.767 24.2713 283.831C24.2314 283.959 24.1995 284.078 24.1676 284.206C24.1517 284.27 24.1357 284.334 24.1277 284.398C24.0958 284.534 24.0798 284.677 24.0639 284.813C24.0639 284.869 24.0479 284.917 24.04 284.973C24.024 285.164 24.008 285.364 24.008 285.555L24.008 285.579C24.008 285.763 24.024 285.955 24.04 286.138C24.04 286.202 24.0559 286.266 24.0639 286.322C24.0798 286.45 24.1038 286.585 24.1277 286.713C24.1437 286.785 24.1596 286.849 24.1756 286.921C24.2075 287.04 24.2394 287.168 24.2713 287.288C24.2873 287.352 24.3112 287.416 24.3352 287.48C24.383 287.615 24.4309 287.743 24.4868 287.879C24.5027 287.927 24.5187 287.967 24.5426 288.015C24.6224 288.19 24.7102 288.366 24.8139 288.533L24.8298 288.557C24.9256 288.717 25.0293 288.869 25.133 289.02C25.1649 289.06 25.1969 289.1 25.2208 289.14C25.2766 289.212 25.3325 289.292 25.3963 289.364L42.6542 309.731L25.3963 330.09C24.5027 331.144 24.016 332.485 24.016 333.874C24.016 335.263 24.5107 336.605 25.3963 337.659L42.6542 358.018L25.3963 378.377C24.5027 379.43 24.008 380.772 24.008 382.161C24.008 383.55 24.5027 384.899 25.3963 385.953L42.6542 406.304L25.3963 426.663C25.3245 426.743 25.2687 426.831 25.1969 426.919C25.1809 426.943 25.157 426.967 25.133 426.999C24.9016 427.318 24.6942 427.661 24.5346 428.021C24.5187 428.053 24.5107 428.084 24.4947 428.108C24.4309 428.252 24.3751 428.404 24.3192 428.556C24.3032 428.603 24.2873 428.659 24.2713 428.707C24.2314 428.843 24.1915 428.979 24.1596 429.122C24.1437 429.178 24.1357 429.234 24.1197 429.29C24.0878 429.434 24.0639 429.585 24.0479 429.737C24.0479 429.785 24.032 429.825 24.032 429.873C24.016 430.065 24.0001 430.264 24.0001 430.464C24.0001 430.655 24.016 430.847 24.032 431.039C24.032 431.094 24.0479 431.15 24.0559 431.206C24.0719 431.342 24.0958 431.486 24.1197 431.621C24.1357 431.685 24.1437 431.741 24.1596 431.805C24.1915 431.941 24.2314 432.076 24.2713 432.204C24.2873 432.26 24.3032 432.308 24.3192 432.364C24.3751 432.516 24.4309 432.675 24.4947 432.819C24.5027 432.843 24.5107 432.867 24.5266 432.891C24.6942 433.258 24.8937 433.601 25.133 433.929C25.149 433.945 25.157 433.961 25.1729 433.977C25.2447 434.072 25.3086 434.16 25.3883 434.248L42.6462 454.615L25.3883 474.974C24.4947 476.028 24.008 477.369 24.008 478.758C24.008 480.148 24.5027 481.489 25.3883 482.543L42.6462 502.902L25.3883 523.261C24.4947 524.315 24.0001 525.656 24.0001 527.045C24.0001 528.434 24.4947 529.784 25.3883 530.838L42.6462 551.189L25.3883 571.548C25.3405 571.604 25.3006 571.659 25.2607 571.715C25.2128 571.779 25.157 571.843 25.1091 571.915C25.0373 572.019 24.9655 572.122 24.9016 572.226C24.8697 572.282 24.8298 572.33 24.7979 572.386C24.7102 572.546 24.6224 572.705 24.5506 572.873C24.5187 572.937 24.4947 573.009 24.4708 573.073C24.4229 573.184 24.375 573.296 24.3352 573.408C24.3112 573.48 24.2873 573.552 24.2633 573.623C24.2314 573.735 24.1995 573.855 24.1676 573.975C24.1516 574.047 24.1357 574.11 24.1197 574.182C24.0958 574.318 24.0719 574.446 24.0559 574.582C24.0559 574.637 24.0399 574.693 24.032 574.749C24.016 574.941 24.0001 575.14 24.0001 575.332C24.0001 575.34 24.0001 575.356 24.0001 575.364C24.0001 575.548 24.008 575.723 24.032 575.907C24.032 575.971 24.0479 576.043 24.0559 576.106C24.0719 576.234 24.0878 576.354 24.1118 576.474C24.1277 576.546 24.1437 576.625 24.1596 576.697C24.1836 576.809 24.2155 576.921 24.2554 577.033C24.2793 577.104 24.3032 577.176 24.3272 577.248C24.3671 577.368 24.4149 577.48 24.4628 577.599C24.4867 577.663 24.5107 577.719 24.5426 577.783C24.6224 577.951 24.7022 578.118 24.7979 578.278C24.8219 578.318 24.8458 578.35 24.8697 578.39C24.9495 578.518 25.0293 578.637 25.1171 578.757C25.157 578.813 25.2048 578.869 25.2447 578.925C25.2926 578.989 25.3405 579.053 25.3883 579.108L42.6462 599.475L25.3883 619.834C24.4947 620.888 24.008 622.23 24.008 623.619C24.008 625.008 24.5027 626.349 25.3883 627.403L42.6462 647.762L25.3883 668.121C24.4947 669.175 24 670.516 24 671.906C24 673.295 24.4947 674.644 25.3883 675.698L42.6462 696.049L25.3883 716.408C24.4947 717.462 24 718.803 24 720.192C24 721.885 24.7261 723.49 25.9867 724.599C28.3803 726.683 31.9947 726.412 34.0532 723.985L34.0691 723.977Z"/><path fill="#fff" d="M78.0691 723.977L98.5344 699.833C99.428 698.779 99.9227 697.438 99.9227 696.041C99.9227 694.644 99.428 693.302 98.5344 692.249L81.2765 671.898L98.5344 651.539C99.428 650.485 99.9147 649.143 99.9147 647.754C99.9147 646.365 99.42 645.024 98.5344 643.97L81.2765 623.611L98.5344 603.252C99.428 602.198 99.9227 600.857 99.9227 599.467C99.9227 598.078 99.428 596.737 98.5424 595.683L81.2845 575.316L98.5424 554.965C99.436 553.911 99.9306 552.57 99.9306 551.173C99.9306 549.775 99.436 548.434 98.5424 547.38L81.2845 527.029L98.5424 506.67C99.436 505.616 99.9227 504.275 99.9227 502.886C99.9227 501.497 99.428 500.155 98.5424 499.101L81.2845 478.742L98.5424 458.383C99.436 457.33 99.9306 455.988 99.9306 454.599C99.9306 453.21 99.436 451.869 98.5503 450.815L81.2845 430.448L98.5424 410.089C99.436 409.035 99.9306 407.694 99.9306 406.296C99.9306 404.899 99.436 403.558 98.5424 402.504L81.2845 382.153L98.5424 361.794C99.428 360.74 99.9227 359.399 99.9227 358.01C99.9227 356.62 99.428 355.279 98.5424 354.217L81.2845 333.858L98.5344 313.499C99.428 312.445 99.9227 311.104 99.9227 309.715C99.9227 308.326 99.428 306.984 98.5424 305.93L81.2845 285.563L98.5344 265.204C99.428 264.151 99.9227 262.809 99.9227 261.412C99.9227 260.015 99.428 258.674 98.5344 257.62L81.2765 237.269L98.5424 216.918C99.428 215.864 99.9227 214.523 99.9227 213.133C99.9227 211.744 99.428 210.403 98.5424 209.341L81.2845 188.982L98.5344 168.623C99.428 167.569 99.9227 166.228 99.9227 164.839C99.9227 163.449 99.428 162.108 98.5424 161.054L81.2766 140.687L98.5344 120.328C99.428 119.274 99.9227 117.933 99.9227 116.536C99.9227 115.139 99.428 113.797 98.5344 112.743L81.2766 92.3924L98.5424 72.0414C99.428 70.9875 99.9227 69.6382 99.9227 68.249C99.9227 66.8598 99.428 65.5185 98.5424 64.4647L81.2845 44.1056L98.5344 23.7387C99.428 22.6848 99.9227 21.3435 99.9227 19.9543C99.9227 18.5651 99.428 17.2238 98.5424 16.1699L78.0691 -7.98147C76.0106 -10.4086 72.3883 -10.688 70.0027 -8.59623C68.7421 -7.49445 68.016 -5.88968 68.016 -4.19709C68.016 -2.80789 68.5107 -1.46659 69.3963 -0.412711L86.6542 19.9543L69.3963 40.3133C68.5027 41.3672 68.016 42.7085 68.016 44.0977C68.016 45.4869 68.5107 46.8282 69.3963 47.882L86.6542 68.2411L69.3963 88.6001C68.5027 89.6539 68.0081 90.9952 68.008 92.3844C68.008 93.7736 68.5027 95.1229 69.3963 96.1768L86.6542 116.528L69.3963 136.887C69.3405 136.959 69.2846 137.031 69.2288 137.102C69.1969 137.142 69.157 137.19 69.1251 137.23C69.0213 137.374 68.9256 137.518 68.8378 137.669C68.8299 137.685 68.8219 137.693 68.8139 137.709C68.7181 137.877 68.6304 138.045 68.5506 138.228C68.5267 138.276 68.5107 138.316 68.4947 138.364C68.4389 138.5 68.383 138.627 68.3352 138.763C68.3112 138.819 68.2953 138.883 68.2793 138.947C68.2394 139.074 68.2075 139.202 68.1756 139.33C68.1596 139.394 68.1437 139.45 68.1357 139.514C68.1038 139.657 68.0878 139.793 68.0639 139.937C68.0639 139.985 68.0479 140.04 68.0479 140.088C68.032 140.28 68.016 140.48 68.016 140.671L68.016 140.687C68.016 140.879 68.032 141.062 68.0479 141.254C68.0479 141.318 68.0639 141.374 68.0719 141.438C68.0878 141.573 68.1118 141.701 68.1357 141.837C68.1517 141.901 68.1676 141.973 68.1836 142.036C68.2155 142.164 68.2474 142.284 68.2873 142.412C68.3033 142.476 68.3272 142.531 68.3431 142.595C68.391 142.731 68.4469 142.875 68.5027 143.01C68.5187 143.05 68.5346 143.09 68.5506 143.13C68.7102 143.482 68.9096 143.825 69.141 144.136C69.165 144.168 69.1889 144.2 69.2208 144.232C69.2846 144.312 69.3405 144.392 69.4043 144.472L86.6621 164.839L69.4043 185.198C68.5107 186.251 68.024 187.593 68.024 188.982C68.024 190.371 68.5187 191.712 69.4043 192.766L86.6621 213.125L69.4043 233.484C68.5107 234.538 68.016 235.879 68.016 237.269C68.016 238.658 68.5107 240.007 69.4043 241.061L86.6621 261.412L69.4043 281.771C69.3485 281.835 69.3006 281.907 69.2447 281.971C69.2048 282.019 69.1649 282.067 69.133 282.114C69.0373 282.25 68.9495 282.386 68.8618 282.522C68.8458 282.546 68.8298 282.569 68.8139 282.593C68.7181 282.761 68.6304 282.929 68.5506 283.104C68.5267 283.152 68.5107 283.208 68.4868 283.256C68.4309 283.384 68.383 283.512 68.3352 283.639C68.3112 283.703 68.2953 283.767 68.2713 283.831C68.2314 283.959 68.1995 284.078 68.1676 284.206C68.1517 284.27 68.1357 284.334 68.1277 284.398C68.0958 284.534 68.0798 284.677 68.0639 284.813C68.0639 284.869 68.0479 284.917 68.04 284.973C68.024 285.164 68.008 285.364 68.008 285.555L68.008 285.579C68.008 285.763 68.024 285.955 68.04 286.138C68.04 286.202 68.0559 286.266 68.0639 286.322C68.0798 286.45 68.1038 286.585 68.1277 286.713C68.1437 286.785 68.1596 286.849 68.1756 286.921C68.2075 287.04 68.2394 287.168 68.2713 287.288C68.2873 287.352 68.3112 287.416 68.3352 287.48C68.383 287.615 68.4309 287.743 68.4868 287.879C68.5027 287.927 68.5187 287.967 68.5426 288.015C68.6224 288.19 68.7102 288.366 68.8139 288.533L68.8298 288.557C68.9256 288.717 69.0293 288.869 69.133 289.02C69.1649 289.06 69.1969 289.1 69.2208 289.14C69.2766 289.212 69.3325 289.292 69.3963 289.364L86.6542 309.731L69.3963 330.09C68.5027 331.144 68.016 332.485 68.016 333.874C68.016 335.263 68.5107 336.605 69.3963 337.659L86.6542 358.018L69.3963 378.377C68.5027 379.43 68.008 380.772 68.008 382.161C68.008 383.55 68.5027 384.899 69.3963 385.953L86.6542 406.304L69.3963 426.663C69.3245 426.743 69.2687 426.831 69.1969 426.919C69.1809 426.943 69.157 426.967 69.133 426.999C68.9016 427.318 68.6942 427.661 68.5346 428.021C68.5187 428.053 68.5107 428.084 68.4947 428.108C68.4309 428.252 68.3751 428.404 68.3192 428.556C68.3032 428.603 68.2873 428.659 68.2713 428.707C68.2314 428.843 68.1915 428.979 68.1596 429.122C68.1437 429.178 68.1357 429.234 68.1197 429.29C68.0878 429.434 68.0639 429.585 68.0479 429.737C68.0479 429.785 68.032 429.825 68.032 429.873C68.016 430.065 68.0001 430.264 68.0001 430.464C68.0001 430.655 68.016 430.847 68.032 431.039C68.032 431.094 68.0479 431.15 68.0559 431.206C68.0719 431.342 68.0958 431.486 68.1197 431.621C68.1357 431.685 68.1437 431.741 68.1596 431.805C68.1915 431.941 68.2314 432.076 68.2713 432.204C68.2873 432.26 68.3032 432.308 68.3192 432.364C68.3751 432.516 68.4309 432.675 68.4947 432.819C68.5027 432.843 68.5107 432.867 68.5266 432.891C68.6942 433.258 68.8937 433.601 69.133 433.929C69.149 433.945 69.157 433.961 69.1729 433.977C69.2447 434.072 69.3086 434.16 69.3883 434.248L86.6462 454.615L69.3883 474.974C68.4947 476.028 68.008 477.369 68.008 478.758C68.008 480.148 68.5027 481.489 69.3883 482.543L86.6462 502.902L69.3883 523.261C68.4947 524.315 68.0001 525.656 68.0001 527.045C68.0001 528.434 68.4947 529.784 69.3883 530.838L86.6462 551.189L69.3883 571.548C69.3405 571.604 69.3006 571.659 69.2607 571.715C69.2128 571.779 69.157 571.843 69.1091 571.915C69.0373 572.019 68.9655 572.122 68.9016 572.226C68.8697 572.282 68.8298 572.33 68.7979 572.386C68.7102 572.546 68.6224 572.705 68.5506 572.873C68.5187 572.937 68.4947 573.009 68.4708 573.073C68.4229 573.184 68.375 573.296 68.3352 573.408C68.3112 573.48 68.2873 573.552 68.2633 573.623C68.2314 573.735 68.1995 573.855 68.1676 573.975C68.1516 574.047 68.1357 574.11 68.1197 574.182C68.0958 574.318 68.0719 574.446 68.0559 574.582C68.0559 574.637 68.0399 574.693 68.032 574.749C68.016 574.941 68.0001 575.14 68.0001 575.332C68.0001 575.34 68.0001 575.356 68.0001 575.364C68.0001 575.548 68.008 575.723 68.032 575.907C68.032 575.971 68.0479 576.043 68.0559 576.106C68.0719 576.234 68.0878 576.354 68.1118 576.474C68.1277 576.546 68.1437 576.625 68.1596 576.697C68.1836 576.809 68.2155 576.921 68.2554 577.033C68.2793 577.104 68.3032 577.176 68.3272 577.248C68.3671 577.368 68.4149 577.48 68.4628 577.599C68.4867 577.663 68.5107 577.719 68.5426 577.783C68.6224 577.951 68.7022 578.118 68.7979 578.278C68.8219 578.318 68.8458 578.35 68.8697 578.39C68.9495 578.518 69.0293 578.637 69.1171 578.757C69.157 578.813 69.2048 578.869 69.2447 578.925C69.2926 578.989 69.3405 579.053 69.3883 579.108L86.6462 599.475L69.3883 619.834C68.4947 620.888 68.008 622.23 68.008 623.619C68.008 625.008 68.5027 626.349 69.3883 627.403L86.6462 647.762L69.3883 668.121C68.4947 669.175 68 670.516 68 671.906C68 673.295 68.4947 674.644 69.3883 675.698L86.6462 696.049L69.3883 716.408C68.4947 717.462 68 718.803 68 720.192C68 721.885 68.7261 723.49 69.9867 724.599C72.3803 726.683 75.9947 726.412 78.0532 723.985L78.0691 723.977Z"/><path fill="#fff" d="M122.069 723.977L142.534 699.833C143.428 698.779 143.923 697.438 143.923 696.041C143.923 694.644 143.428 693.302 142.534 692.249L125.277 671.898L142.534 651.539C143.428 650.485 143.915 649.143 143.915 647.754C143.915 646.365 143.42 645.024 142.534 643.97L125.277 623.611L142.534 603.252C143.428 602.198 143.923 600.857 143.923 599.467C143.923 598.078 143.428 596.737 142.542 595.683L125.285 575.316L142.542 554.965C143.436 553.911 143.931 552.57 143.931 551.173C143.931 549.775 143.436 548.434 142.542 547.38L125.285 527.029L142.542 506.67C143.436 505.616 143.923 504.275 143.923 502.886C143.923 501.497 143.428 500.155 142.542 499.101L125.285 478.742L142.542 458.383C143.436 457.33 143.931 455.988 143.931 454.599C143.931 453.21 143.436 451.869 142.55 450.815L125.285 430.448L142.542 410.089C143.436 409.035 143.931 407.694 143.931 406.296C143.931 404.899 143.436 403.558 142.542 402.504L125.285 382.153L142.542 361.794C143.428 360.74 143.923 359.399 143.923 358.01C143.923 356.62 143.428 355.279 142.542 354.217L125.285 333.858L142.534 313.499C143.428 312.445 143.923 311.104 143.923 309.715C143.923 308.326 143.428 306.984 142.542 305.93L125.285 285.563L142.534 265.204C143.428 264.151 143.923 262.809 143.923 261.412C143.923 260.015 143.428 258.674 142.534 257.62L125.277 237.269L142.542 216.918C143.428 215.864 143.923 214.523 143.923 213.133C143.923 211.744 143.428 210.403 142.542 209.341L125.285 188.982L142.534 168.623C143.428 167.569 143.923 166.228 143.923 164.839C143.923 163.449 143.428 162.108 142.542 161.054L125.277 140.687L142.534 120.328C143.428 119.274 143.923 117.933 143.923 116.536C143.923 115.139 143.428 113.797 142.534 112.743L125.277 92.3924L142.542 72.0414C143.428 70.9875 143.923 69.6382 143.923 68.249C143.923 66.8598 143.428 65.5185 142.542 64.4647L125.285 44.1056L142.534 23.7387C143.428 22.6848 143.923 21.3435 143.923 19.9543C143.923 18.5651 143.428 17.2238 142.542 16.1699L122.069 -7.98147C120.011 -10.4086 116.388 -10.688 114.003 -8.59623C112.742 -7.49445 112.016 -5.88968 112.016 -4.19709C112.016 -2.80789 112.511 -1.46659 113.396 -0.412711L130.654 19.9543L113.396 40.3133C112.503 41.3672 112.016 42.7085 112.016 44.0977C112.016 45.4869 112.511 46.8282 113.396 47.882L130.654 68.2411L113.396 88.6001C112.503 89.6539 112.008 90.9952 112.008 92.3844C112.008 93.7736 112.503 95.1229 113.396 96.1768L130.654 116.528L113.396 136.887C113.34 136.959 113.285 137.031 113.229 137.102C113.197 137.142 113.157 137.19 113.125 137.23C113.021 137.374 112.926 137.518 112.838 137.669C112.83 137.685 112.822 137.693 112.814 137.709C112.718 137.877 112.63 138.045 112.551 138.228C112.527 138.276 112.511 138.316 112.495 138.364C112.439 138.5 112.383 138.627 112.335 138.763C112.311 138.819 112.295 138.883 112.279 138.947C112.239 139.074 112.208 139.202 112.176 139.33C112.16 139.394 112.144 139.45 112.136 139.514C112.104 139.657 112.088 139.793 112.064 139.937C112.064 139.985 112.048 140.04 112.048 140.088C112.032 140.28 112.016 140.48 112.016 140.671L112.016 140.687C112.016 140.879 112.032 141.062 112.048 141.254C112.048 141.318 112.064 141.374 112.072 141.438C112.088 141.573 112.112 141.701 112.136 141.837C112.152 141.901 112.168 141.973 112.184 142.036C112.215 142.164 112.247 142.284 112.287 142.412C112.303 142.476 112.327 142.531 112.343 142.595C112.391 142.731 112.447 142.875 112.503 143.01C112.519 143.05 112.535 143.09 112.551 143.13C112.71 143.482 112.91 143.825 113.141 144.136C113.165 144.168 113.189 144.2 113.221 144.232C113.285 144.312 113.34 144.392 113.404 144.472L130.662 164.839L113.404 185.198C112.511 186.251 112.024 187.593 112.024 188.982C112.024 190.371 112.519 191.712 113.404 192.766L130.662 213.125L113.404 233.484C112.511 234.538 112.016 235.879 112.016 237.269C112.016 238.658 112.511 240.007 113.404 241.061L130.662 261.412L113.404 281.771C113.348 281.835 113.301 281.907 113.245 281.971C113.205 282.019 113.165 282.067 113.133 282.114C113.037 282.25 112.95 282.386 112.862 282.522C112.846 282.546 112.83 282.569 112.814 282.593C112.718 282.761 112.63 282.929 112.551 283.104C112.527 283.152 112.511 283.208 112.487 283.256C112.431 283.384 112.383 283.512 112.335 283.639C112.311 283.703 112.295 283.767 112.271 283.831C112.231 283.959 112.2 284.078 112.168 284.206C112.152 284.27 112.136 284.334 112.128 284.398C112.096 284.534 112.08 284.677 112.064 284.813C112.064 284.869 112.048 284.917 112.04 284.973C112.024 285.164 112.008 285.364 112.008 285.555L112.008 285.579C112.008 285.763 112.024 285.955 112.04 286.138C112.04 286.202 112.056 286.266 112.064 286.322C112.08 286.45 112.104 286.585 112.128 286.713C112.144 286.785 112.16 286.849 112.176 286.921C112.208 287.04 112.239 287.168 112.271 287.288C112.287 287.352 112.311 287.416 112.335 287.48C112.383 287.615 112.431 287.743 112.487 287.879C112.503 287.927 112.519 287.967 112.543 288.015C112.622 288.19 112.71 288.366 112.814 288.533L112.83 288.557C112.926 288.717 113.029 288.869 113.133 289.02C113.165 289.06 113.197 289.1 113.221 289.14C113.277 289.212 113.332 289.292 113.396 289.364L130.654 309.731L113.396 330.09C112.503 331.144 112.016 332.485 112.016 333.874C112.016 335.263 112.511 336.605 113.396 337.659L130.654 358.018L113.396 378.377C112.503 379.43 112.008 380.772 112.008 382.161C112.008 383.55 112.503 384.899 113.396 385.953L130.654 406.304L113.396 426.663C113.325 426.743 113.269 426.831 113.197 426.919C113.181 426.943 113.157 426.967 113.133 426.999C112.902 427.318 112.694 427.661 112.535 428.021C112.519 428.053 112.511 428.084 112.495 428.108C112.431 428.252 112.375 428.404 112.319 428.556C112.303 428.603 112.287 428.659 112.271 428.707C112.231 428.843 112.192 428.979 112.16 429.122C112.144 429.178 112.136 429.234 112.12 429.29C112.088 429.434 112.064 429.585 112.048 429.737C112.048 429.785 112.032 429.825 112.032 429.873C112.016 430.065 112 430.264 112 430.464C112 430.655 112.016 430.847 112.032 431.039C112.032 431.094 112.048 431.15 112.056 431.206C112.072 431.342 112.096 431.486 112.12 431.621C112.136 431.685 112.144 431.741 112.16 431.805C112.192 431.941 112.231 432.076 112.271 432.204C112.287 432.26 112.303 432.308 112.319 432.364C112.375 432.516 112.431 432.675 112.495 432.819C112.503 432.843 112.511 432.867 112.527 432.891C112.694 433.258 112.894 433.601 113.133 433.929C113.149 433.945 113.157 433.961 113.173 433.977C113.245 434.072 113.309 434.16 113.388 434.248L130.646 454.615L113.388 474.974C112.495 476.028 112.008 477.369 112.008 478.758C112.008 480.148 112.503 481.489 113.388 482.543L130.646 502.902L113.388 523.261C112.495 524.315 112 525.656 112 527.045C112 528.434 112.495 529.784 113.388 530.838L130.646 551.189L113.388 571.548C113.34 571.604 113.301 571.659 113.261 571.715C113.213 571.779 113.157 571.843 113.109 571.915C113.037 572.019 112.965 572.122 112.902 572.226C112.87 572.282 112.83 572.33 112.798 572.386C112.71 572.546 112.622 572.705 112.551 572.873C112.519 572.937 112.495 573.009 112.471 573.073C112.423 573.184 112.375 573.296 112.335 573.408C112.311 573.48 112.287 573.552 112.263 573.623C112.231 573.735 112.2 573.855 112.168 573.975C112.152 574.047 112.136 574.11 112.12 574.182C112.096 574.318 112.072 574.446 112.056 574.582C112.056 574.637 112.04 574.693 112.032 574.749C112.016 574.941 112 575.14 112 575.332C112 575.34 112 575.356 112 575.364C112 575.548 112.008 575.723 112.032 575.907C112.032 575.971 112.048 576.043 112.056 576.106C112.072 576.234 112.088 576.354 112.112 576.474C112.128 576.546 112.144 576.625 112.16 576.697C112.184 576.809 112.215 576.921 112.255 577.033C112.279 577.104 112.303 577.176 112.327 577.248C112.367 577.368 112.415 577.48 112.463 577.599C112.487 577.663 112.511 577.719 112.543 577.783C112.622 577.951 112.702 578.118 112.798 578.278C112.822 578.318 112.846 578.35 112.87 578.39C112.95 578.518 113.029 578.637 113.117 578.757C113.157 578.813 113.205 578.869 113.245 578.925C113.293 578.989 113.34 579.053 113.388 579.108L130.646 599.475L113.388 619.834C112.495 620.888 112.008 622.23 112.008 623.619C112.008 625.008 112.503 626.349 113.388 627.403L130.646 647.762L113.388 668.121C112.495 669.175 112 670.516 112 671.906C112 673.295 112.495 674.644 113.388 675.698L130.646 696.049L113.388 716.408C112.495 717.462 112 718.803 112 720.192C112 721.885 112.726 723.49 113.987 724.599C116.38 726.683 119.995 726.412 122.053 723.985L122.069 723.977Z"/></g></svg>