<svg xmlns="http://www.w3.org/2000/svg" width="378" height="40" fill="none" viewBox="0 0 378 40"><path fill="#fff" stroke="#000" stroke-width="2" d="M374.826 28.1598L375.056 28.3552C377.46 30.6038 377.669 34.3404 375.489 36.8426C374.288 38.2042 372.55 38.99 370.715 38.99C369.21 38.99 367.757 38.4542 366.615 37.4867L366.022 38.1864L366.615 37.4866L341.079 15.8512L340.432 15.3034L339.786 15.8513L314.26 37.4867C313.119 38.4533 311.656 38.99 310.149 38.99C308.644 38.99 307.191 38.4542 306.049 37.4867L305.408 38.2434L306.049 37.4866L280.513 15.8512L279.866 15.3035L279.22 15.8512L253.687 37.4838C253.686 37.4841 253.686 37.4845 253.686 37.4848C252.543 38.4443 251.088 38.98 249.583 38.98C248.074 38.98 246.622 38.4517 245.483 37.4867L245.483 37.4866L219.947 15.8512L219.3 15.3036L218.654 15.8511L193.119 37.4764C193.086 37.5025 193.051 37.529 193.004 37.5643C192.956 37.6004 192.893 37.6471 192.829 37.6984L192.786 37.733L192.757 37.7614L192.756 37.7627L192.737 37.7769C192.736 37.7774 192.735 37.778 192.735 37.7786C192.411 38.0189 192.05 38.2296 191.678 38.4001L191.625 38.4212L191.55 38.4512L191.541 38.455C191.394 38.5153 191.243 38.5742 191.102 38.6246C191.043 38.6412 190.994 38.6578 190.969 38.6661C190.935 38.6777 190.927 38.6799 190.927 38.68L190.9 38.6867L190.872 38.6954C190.738 38.7374 190.608 38.7721 190.457 38.8097C190.425 38.8178 190.389 38.8262 190.345 38.8365C190.329 38.8404 190.311 38.8446 190.293 38.8489C190.276 38.8528 190.259 38.8569 190.242 38.8611L190.206 38.8674C190.058 38.8937 189.949 38.9131 189.832 38.9268L189.824 38.9277C189.782 38.933 189.746 38.939 189.72 38.9434L189.688 38.949L189.682 38.95H189.677L189.635 38.9534L189.626 38.9542C189.381 38.9746 189.196 38.99 189.007 38.99H188.987C188.794 38.99 188.584 38.9738 188.339 38.9534L188.308 38.9509C188.301 38.9498 188.291 38.9483 188.279 38.9466C188.264 38.9445 188.247 38.9421 188.229 38.94C188.214 38.9382 188.196 38.9362 188.175 38.9345C188.109 38.9239 188.056 38.9159 188.009 38.9089C187.912 38.8944 187.843 38.8841 187.752 38.8637L187.706 38.8535L187.661 38.848C187.659 38.8476 187.655 38.8467 187.647 38.8448C187.643 38.844 187.639 38.8429 187.634 38.8418C187.627 38.8401 187.619 38.8381 187.609 38.8356L187.547 38.8197C187.382 38.7787 187.25 38.7453 187.122 38.7053L187.094 38.6967L187.066 38.6897L187.015 38.6768C187.001 38.6731 186.991 38.6704 186.983 38.6682C186.981 38.6675 186.979 38.6668 186.977 38.6664L186.957 38.6577L186.926 38.6468C186.823 38.6106 186.731 38.5723 186.61 38.5218C186.569 38.5045 186.523 38.4857 186.473 38.465L186.441 38.4519L186.409 38.4411C186.401 38.4385 186.396 38.4366 186.392 38.4352C186.389 38.4342 186.387 38.4334 186.386 38.4329C186.384 38.4319 186.379 38.4299 186.369 38.4252L186.346 38.4132L186.321 38.4026C186.137 38.3225 185.963 38.2324 185.777 38.1269C185.761 38.1166 185.738 38.1023 185.71 38.0869C185.567 38.0034 185.425 37.91 185.277 37.8035C185.272 37.8 185.268 37.7964 185.263 37.7926C185.251 37.7829 185.238 37.7722 185.224 37.7603L185.194 37.7361C185.175 37.7205 185.154 37.704 185.135 37.6883L185.124 37.6799L184.989 37.5749L184.87 37.4828L159.35 15.8612L158.704 15.3134L158.057 15.8613L132.531 37.4967C131.391 38.4633 129.927 39 128.421 39C126.916 39 125.462 38.4642 124.321 37.4967L124.321 37.4966L98.7842 15.8612L98.1378 15.3135L97.4914 15.8612L71.9583 37.4938C71.9578 37.4943 71.9573 37.4948 71.9567 37.4952C70.8139 38.4544 69.3595 38.99 67.8548 38.99C66.3457 38.99 64.8932 38.4617 63.7545 37.4967L63.7544 37.4966L38.2181 15.8612L37.5718 15.3136L36.9254 15.8611L11.3822 37.4938C11.3817 37.4943 11.3812 37.4947 11.3807 37.4951C10.2379 38.4544 8.78345 38.99 7.27859 38.99C5.44118 38.99 3.70373 38.2022 2.51353 36.8411L2.51247 36.8399C0.260632 34.2731 0.556672 30.3721 3.17847 28.1497L33.4781 2.49616C33.4786 2.49576 33.4791 2.49536 33.4795 2.49495C34.6224 1.53564 36.0768 1 37.5817 1C39.0869 1 40.5403 1.53579 41.6819 2.50332L41.682 2.50342L67.2183 24.1388L67.8648 24.6865L68.5112 24.1388L94.0442 2.50617C94.0447 2.5058 94.0451 2.50542 94.0456 2.50504C95.1884 1.54569 96.6429 1.01001 98.1478 1.01001C99.6569 1.01001 101.109 1.53831 102.248 2.50332L102.248 2.50342L127.784 24.1388L128.431 24.6866L129.077 24.1387L154.604 2.50332C155.745 1.53626 157.198 1 158.714 1C160.23 1 161.683 1.53626 162.824 2.50329L188.35 24.1387L188.997 24.6866L189.643 24.1388L215.187 2.49616C215.187 2.49567 215.188 2.49517 215.188 2.49468C216.331 1.53554 217.785 1 219.29 1C220.795 1 222.249 1.53579 223.39 2.50332L223.39 2.50342L248.927 24.1388L249.573 24.6865L250.22 24.1388L275.75 2.50856C275.751 2.50746 275.752 2.50636 275.754 2.50526C276.908 1.54455 278.363 1.01001 279.866 1.01001C281.375 1.01001 282.828 1.53831 283.966 2.50332L283.967 2.50342L309.503 24.1388L310.149 24.6866L310.796 24.1387L336.322 2.50332C337.463 1.53626 338.917 1 340.432 1C341.948 1 343.402 1.53626 344.543 2.50332L344.543 2.50343L374.826 28.1598ZM185.798 38.1407C185.802 38.143 185.803 38.1438 185.801 38.1425L185.799 38.1414C185.799 38.1412 185.799 38.141 185.798 38.1407Z"/></svg>