<svg width="356" height="29" viewBox="0 0 356 29" fill="none" xmlns="http://www.w3.org/2000/svg">
<path d="M350.905 28.1499C339.925 28.1499 334.286 22.0933 329.756 17.2296C325.206 12.3453 322.34 9.58949 316.321 9.58949C310.302 9.58949 307.436 12.3556 302.896 17.2296C298.367 22.0933 292.728 28.1499 281.747 28.1499C270.767 28.1499 265.128 22.0933 260.598 17.2296C256.048 12.3453 253.182 9.58949 247.173 9.58949C241.165 9.58949 238.289 12.3556 233.749 17.2296C229.219 22.0933 223.58 28.1499 212.6 28.1499C201.619 28.1499 195.98 22.0933 191.451 17.2296C186.9 12.3453 184.035 9.58949 178.015 9.58949C171.996 9.58949 169.131 12.3556 164.58 17.2296C160.051 22.0933 154.411 28.1499 143.431 28.1499C132.451 28.1499 126.812 22.0933 122.282 17.2296C117.732 12.3453 114.866 9.58949 108.847 9.58949C102.828 9.58949 99.9623 12.3556 95.412 17.2296C90.8823 22.0933 85.2432 28.1499 74.263 28.1499C63.2827 28.1499 57.6437 22.0933 53.1139 17.2296C48.5637 12.3453 45.6979 9.58949 39.6788 9.58949C33.6597 9.58949 30.794 12.3556 26.2437 17.2296C21.714 22.0933 16.0749 28.1499 5.09466 28.1499C2.28027 28.1499 0 26.0419 0 23.4301C0 20.8183 2.28027 18.7103 5.09466 18.7103C11.1138 18.7103 13.9795 15.9442 18.5298 11.0702C23.0595 6.20646 28.6986 0.149902 39.6788 0.149902C50.6591 0.149902 56.2981 6.20646 60.8278 11.0702C65.3781 15.9545 68.2439 18.7103 74.263 18.7103C80.2821 18.7103 83.1478 15.9442 87.6981 11.0702C92.2278 6.20646 97.8669 0.149902 108.847 0.149902C119.827 0.149902 125.466 6.20646 129.996 11.0702C134.546 15.9545 137.412 18.7103 143.431 18.7103C149.45 18.7103 152.316 15.9442 156.866 11.0702C161.396 6.20646 167.035 0.149902 178.015 0.149902C188.996 0.149902 194.635 6.20646 199.164 11.0702C203.715 15.9545 206.58 18.7103 212.6 18.7103C218.619 18.7103 221.484 15.9442 226.024 11.0702C230.554 6.20646 236.193 0.149902 247.173 0.149902C258.154 0.149902 263.793 6.20646 268.322 11.0702C272.873 15.9545 275.738 18.7103 281.747 18.7103C287.756 18.7103 290.632 15.9442 295.172 11.0702C299.702 6.20646 305.341 0.149902 316.321 0.149902C327.301 0.149902 332.94 6.20646 337.47 11.0702C342.02 15.9545 344.886 18.7103 350.905 18.7103C353.72 18.7103 356 20.8183 356 23.4301C356 26.0419 353.72 28.1499 350.905 28.1499Z" fill="black"/>
</svg>
