<svg xmlns="http://www.w3.org/2000/svg" width="549" height="90" fill="none" viewBox="0 0 549 90"><path fill="#000" d="M547.256 49.2596C546.277 50.2336 544.698 50.2336 543.719 49.2596L500.246 6.00775L456.762 49.2695C455.783 50.2435 454.204 50.2435 453.225 49.2695L409.741 6.00775L366.257 49.2695C365.278 50.2435 363.7 50.2435 362.721 49.2695L319.247 6.00775L275.763 49.2695C274.784 50.2435 273.206 50.2435 272.227 49.2695L228.743 6.00775L185.259 49.2695C184.28 50.2435 182.702 50.2435 181.723 49.2695L138.249 6.00775L94.7647 49.2695C93.7857 50.2435 92.2074 50.2435 91.2284 49.2695L47.7545 6.00775L4.27048 49.2695C3.29152 50.2435 1.71319 50.2435 0.734223 49.2695C-0.244741 48.2956 -0.244741 46.7253 0.734223 45.7513L45.9863 0.730471C46.9653 -0.24349 48.5436 -0.24349 49.5226 0.730471L93.0066 43.9922L136.481 0.730471C137.46 -0.24349 139.038 -0.24349 140.017 0.730471L183.501 43.9922L226.985 0.730471C227.964 -0.24349 229.542 -0.24349 230.521 0.730471L274.005 43.9922L317.479 0.730471C318.458 -0.24349 320.036 -0.24349 321.015 0.730471L364.499 43.9922L407.983 0.730471C408.962 -0.24349 410.54 -0.24349 411.519 0.730471L455.003 43.9922L498.477 0.730471C499.456 -0.24349 501.035 -0.24349 502.014 0.730471L547.266 45.7513C548.245 46.7253 548.245 48.2956 547.266 49.2695L547.256 49.2596Z"/><path fill="#000" d="M547.256 89.2596C546.277 90.2336 544.698 90.2336 543.719 89.2596L500.246 46.0078L456.762 89.2695C455.783 90.2435 454.204 90.2435 453.225 89.2695L409.741 46.0078L366.257 89.2695C365.278 90.2435 363.7 90.2435 362.721 89.2695L319.247 46.0078L275.763 89.2695C274.784 90.2435 273.206 90.2435 272.227 89.2695L228.743 46.0078L185.259 89.2695C184.28 90.2435 182.702 90.2435 181.723 89.2695L138.249 46.0078L94.7647 89.2695C93.7857 90.2435 92.2074 90.2435 91.2284 89.2695L47.7545 46.0078L4.27048 89.2695C3.29152 90.2435 1.71319 90.2435 0.734223 89.2695C-0.244741 88.2956 -0.244741 86.7253 0.734223 85.7513L45.9863 40.7305C46.9653 39.7565 48.5436 39.7565 49.5226 40.7305L93.0066 83.9922L136.481 40.7305C137.46 39.7565 139.038 39.7565 140.017 40.7305L183.501 83.9922L226.985 40.7305C227.964 39.7565 229.542 39.7565 230.521 40.7305L274.005 83.9922L317.479 40.7305C318.458 39.7565 320.036 39.7565 321.015 40.7305L364.499 83.9922L407.983 40.7305C408.962 39.7565 410.54 39.7565 411.519 40.7305L455.003 83.9922L498.477 40.7305C499.456 39.7565 501.035 39.7565 502.014 40.7305L547.266 85.7513C548.245 86.7253 548.245 88.2956 547.266 89.2695L547.256 89.2596Z"/></svg>