<svg xmlns="http://www.w3.org/2000/svg" width="702" height="64" fill="none" viewBox="0 0 702 64"><path fill="#000" d="M696.925 18.7904C690.904 18.7904 688.037 16.0243 683.486 11.1503C678.955 6.28654 673.314 0.22998 662.331 0.22998C651.348 0.22998 645.707 6.28654 641.176 11.1503C636.625 16.0346 633.758 18.7904 627.748 18.7904C621.737 18.7904 618.861 16.0243 614.319 11.1503C609.788 6.28654 604.148 0.22998 593.165 0.22998C582.181 0.22998 576.541 6.28654 572.01 11.1503C567.458 16.0346 564.592 18.7904 558.581 18.7904C552.571 18.7904 549.694 16.0243 545.143 11.1503C540.612 6.28654 534.971 0.22998 523.988 0.22998C513.005 0.22998 507.364 6.28654 502.833 11.1503C498.282 16.0346 495.415 18.7904 489.394 18.7904C483.374 18.7904 480.507 16.0243 475.956 11.1503C471.425 6.28654 465.784 0.22998 454.801 0.22998C443.818 0.22998 438.177 6.28654 433.646 11.1503C429.095 16.0346 426.228 18.7904 420.207 18.7904C414.187 18.7904 411.32 16.0243 406.769 11.1503C402.238 6.28654 396.597 0.22998 385.614 0.22998C374.631 0.22998 368.99 6.28654 364.459 11.1503C359.908 16.0346 357.041 18.7904 351.021 18.7904C345 18.7904 342.133 16.0243 337.592 11.1503C333.061 6.28654 327.421 0.22998 316.437 0.22998C305.454 0.22998 299.814 6.28654 295.283 11.1503C290.731 16.0346 287.865 18.7904 281.854 18.7904C275.844 18.7904 272.967 16.0243 268.426 11.1503C263.895 6.28654 258.254 0.22998 247.271 0.22998C236.288 0.22998 230.647 6.28654 226.116 11.1503C221.565 16.0346 218.698 18.7904 212.688 18.7904C206.677 18.7904 203.8 16.0243 199.249 11.1503C194.718 6.28654 189.077 0.22998 178.094 0.22998C167.111 0.22998 161.47 6.28654 156.94 11.1503C152.388 16.0346 149.521 18.7904 143.501 18.7904C137.48 18.7904 134.614 16.0243 130.062 11.1503C125.531 6.28654 119.89 0.22998 108.907 0.22998C97.9241 0.22998 92.2835 6.28654 87.7526 11.1503C83.2011 16.0346 80.3345 18.7904 74.3138 18.7904C68.2931 18.7904 65.4266 16.0243 60.8751 11.1503C56.3236 6.28654 50.683 0.22998 39.6998 0.22998C28.7166 0.22998 23.0657 6.28654 18.5348 11.1503C13.9833 16.0346 11.1168 18.7904 5.09604 18.7904C2.28089 18.7904 0 20.8984 0 23.5102C0 26.122 2.28089 28.23 5.09604 28.23C16.0792 28.23 21.7198 22.1734 26.2508 17.3097C30.8023 12.4254 33.6688 9.66957 39.6895 9.66957C45.7102 9.66957 48.5768 12.4356 53.1283 17.3097C57.6592 22.1734 63.2998 28.23 74.283 28.23C85.2662 28.23 90.9068 22.1734 95.4377 17.3097C99.9892 12.4254 102.856 9.66957 108.876 9.66957C114.897 9.66957 117.764 12.4356 122.315 17.3097C126.846 22.1734 132.487 28.23 143.47 28.23C154.453 28.23 160.094 22.1734 164.625 17.3097C169.176 12.4254 172.043 9.66957 178.063 9.66957C184.084 9.66957 186.951 12.4356 191.502 17.3097C196.033 22.1734 201.674 28.23 212.657 28.23C223.64 28.23 229.281 22.1734 233.812 17.3097C238.363 12.4254 241.23 9.66957 247.24 9.66957C253.251 9.66957 256.127 12.4356 260.669 17.3097C265.2 22.1734 270.84 28.23 281.823 28.23C292.806 28.23 298.447 22.1734 302.978 17.3097C307.53 12.4254 310.396 9.66957 316.407 9.66957C322.417 9.66957 325.294 12.4356 329.845 17.3097C334.376 22.1734 340.017 28.2197 351 28.23C361.983 28.23 367.624 22.1734 372.155 17.3097C376.706 12.4254 379.573 9.66957 385.593 9.66957C391.614 9.66957 394.481 12.4356 399.032 17.3097C403.563 22.1734 409.204 28.23 420.187 28.23C431.17 28.23 436.811 22.1734 441.342 17.3097C445.893 12.4254 448.76 9.66957 454.78 9.66957C460.801 9.66957 463.668 12.4356 468.219 17.3097C472.75 22.1734 478.391 28.23 489.374 28.23C500.357 28.23 505.998 22.1734 510.529 17.3097C515.08 12.4254 517.947 9.66957 523.967 9.66957C529.988 9.66957 532.855 12.4356 537.406 17.3097C541.937 22.1734 547.578 28.23 558.561 28.23C569.544 28.23 575.185 22.1734 579.716 17.3097C584.267 12.4254 587.134 9.66957 593.144 9.66957C599.155 9.66957 602.031 12.4356 606.573 17.3097C611.103 22.1734 616.744 28.23 627.727 28.23C638.71 28.23 644.351 22.1734 648.882 17.3097C653.433 12.4254 656.3 9.66957 662.31 9.66957C668.321 9.66957 671.198 12.4356 675.749 17.3097C680.28 22.1734 685.921 28.23 696.904 28.23C699.719 28.23 702 26.122 702 23.5102C702 20.8984 699.719 18.7904 696.904 18.7904H696.925Z"/><path fill="#000" d="M696.925 54.0204C690.904 54.0204 688.037 51.2543 683.486 46.3803C678.955 41.5165 673.314 35.46 662.331 35.46C651.348 35.46 645.707 41.5165 641.176 46.3803C636.625 51.2646 633.758 54.0204 627.748 54.0204C621.737 54.0204 618.861 51.2543 614.319 46.3803C609.788 41.5165 604.148 35.46 593.165 35.46C582.181 35.46 576.541 41.5165 572.01 46.3803C567.458 51.2646 564.592 54.0204 558.581 54.0204C552.571 54.0204 549.694 51.2543 545.143 46.3803C540.612 41.5165 534.971 35.46 523.988 35.46C513.005 35.46 507.364 41.5165 502.833 46.3803C498.282 51.2646 495.415 54.0204 489.394 54.0204C483.374 54.0204 480.507 51.2543 475.956 46.3803C471.425 41.5165 465.784 35.46 454.801 35.46C443.818 35.46 438.177 41.5165 433.646 46.3803C429.095 51.2646 426.228 54.0204 420.207 54.0204C414.187 54.0204 411.32 51.2543 406.769 46.3803C402.238 41.5165 396.597 35.46 385.614 35.46C374.631 35.46 368.99 41.5165 364.459 46.3803C359.908 51.2646 357.041 54.0204 351.021 54.0204C345 54.0204 342.133 51.2543 337.592 46.3803C333.061 41.5165 327.421 35.46 316.437 35.46C305.454 35.46 299.814 41.5165 295.283 46.3803C290.731 51.2646 287.865 54.0204 281.854 54.0204C275.844 54.0204 272.967 51.2543 268.426 46.3803C263.895 41.5165 258.254 35.46 247.271 35.46C236.288 35.46 230.647 41.5165 226.116 46.3803C221.565 51.2646 218.698 54.0204 212.688 54.0204C206.677 54.0204 203.8 51.2543 199.249 46.3803C194.718 41.5165 189.077 35.46 178.094 35.46C167.111 35.46 161.47 41.5165 156.94 46.3803C152.388 51.2646 149.521 54.0204 143.501 54.0204C137.48 54.0204 134.614 51.2543 130.062 46.3803C125.531 41.5165 119.89 35.46 108.907 35.46C97.9241 35.46 92.2835 41.5165 87.7526 46.3803C83.2011 51.2646 80.3345 54.0204 74.3138 54.0204C68.2931 54.0204 65.4266 51.2543 60.8751 46.3803C56.3236 41.5165 50.683 35.46 39.6998 35.46C28.7166 35.46 23.0657 41.5165 18.5348 46.3803C13.9833 51.2646 11.1168 54.0204 5.09604 54.0204C2.28089 54.0204 0 56.1283 0 58.7402C0 61.352 2.28089 63.46 5.09604 63.46C16.0792 63.46 21.7198 57.4034 26.2508 52.5397C30.8023 47.6553 33.6688 44.8995 39.6895 44.8995C45.7102 44.8995 48.5768 47.6656 53.1283 52.5397C57.6592 57.4034 63.2998 63.46 74.283 63.46C85.2662 63.46 90.9068 57.4034 95.4377 52.5397C99.9892 47.6553 102.856 44.8995 108.876 44.8995C114.897 44.8995 117.764 47.6656 122.315 52.5397C126.846 57.4034 132.487 63.46 143.47 63.46C154.453 63.46 160.094 57.4034 164.625 52.5397C169.176 47.6553 172.043 44.8995 178.063 44.8995C184.084 44.8995 186.951 47.6656 191.502 52.5397C196.033 57.4034 201.674 63.46 212.657 63.46C223.64 63.46 229.281 57.4034 233.812 52.5397C238.363 47.6553 241.23 44.8995 247.24 44.8995C253.251 44.8995 256.127 47.6656 260.669 52.5397C265.2 57.4034 270.84 63.46 281.823 63.46C292.806 63.46 298.447 57.4034 302.978 52.5397C307.53 47.6553 310.396 44.8995 316.407 44.8995C322.417 44.8995 325.294 47.6656 329.845 52.5397C334.376 57.4034 340.017 63.4497 351 63.46C361.983 63.46 367.624 57.4034 372.155 52.5397C376.706 47.6553 379.573 44.8995 385.593 44.8995C391.614 44.8995 394.481 47.6656 399.032 52.5397C403.563 57.4034 409.204 63.46 420.187 63.46C431.17 63.46 436.811 57.4034 441.342 52.5397C445.893 47.6553 448.76 44.8995 454.78 44.8995C460.801 44.8995 463.668 47.6656 468.219 52.5397C472.75 57.4034 478.391 63.46 489.374 63.46C500.357 63.46 505.998 57.4034 510.529 52.5397C515.08 47.6553 517.947 44.8995 523.967 44.8995C529.988 44.8995 532.855 47.6656 537.406 52.5397C541.937 57.4034 547.578 63.46 558.561 63.46C569.544 63.46 575.185 57.4034 579.716 52.5397C584.267 47.6553 587.134 44.8995 593.144 44.8995C599.155 44.8995 602.031 47.6656 606.573 52.5397C611.103 57.4034 616.744 63.46 627.727 63.46C638.71 63.46 644.351 57.4034 648.882 52.5397C653.433 47.6553 656.3 44.8995 662.31 44.8995C668.321 44.8995 671.198 47.6656 675.749 52.5397C680.28 57.4034 685.921 63.46 696.904 63.46C699.719 63.46 702 61.352 702 58.7402C702 56.1283 699.719 54.0204 696.904 54.0204H696.925Z"/></svg>