<svg width="2450" height="48" viewBox="0 0 2450 48" fill="none" xmlns="http://www.w3.org/2000/svg">
<path d="M2439.22 24C2439.22 31.9768 2431.87 38.4617 2422.84 38.4617C2413.81 38.4617 2406.46 31.9768 2406.46 24C2406.46 10.7717 2394.27 0 2379.28 0C2364.3 0 2352.11 10.7617 2352.11 24C2352.11 31.9768 2344.76 38.4617 2335.73 38.4617C2326.7 38.4617 2319.35 31.9768 2319.35 24C2319.35 10.7717 2307.16 0 2292.17 0C2277.18 0 2264.99 10.7617 2264.99 24C2264.99 31.9768 2257.64 38.4617 2248.61 38.4617C2239.58 38.4617 2232.23 31.9768 2232.23 24C2232.23 10.7717 2220.04 0 2205.06 0C2190.07 0 2177.88 10.7617 2177.88 24C2177.88 31.9768 2170.53 38.4617 2161.5 38.4617C2152.47 38.4617 2145.12 31.9768 2145.12 24C2145.12 10.7717 2132.93 0 2117.94 0C2102.96 0 2090.76 10.7617 2090.76 24C2090.76 31.9768 2083.41 38.4617 2074.38 38.4617C2065.35 38.4617 2058.01 31.9768 2058.01 24C2058.01 10.7717 2045.81 0 2030.83 0C2015.84 0 2003.65 10.7617 2003.65 24C2003.65 31.9768 1996.3 38.4617 1987.27 38.4617C1978.24 38.4617 1970.89 31.9768 1970.89 24C1970.89 10.7717 1958.7 0 1943.71 0C1928.73 0 1916.53 10.7617 1916.53 24C1916.53 31.9768 1909.19 38.4617 1900.16 38.4617C1891.13 38.4617 1883.78 31.9768 1883.78 24C1883.78 10.7717 1871.59 0 1856.6 0C1841.61 0 1829.42 10.7617 1829.42 24C1829.42 31.9768 1822.07 38.4617 1813.04 38.4617C1804.01 38.4617 1796.66 31.9768 1796.66 24C1796.66 10.7717 1784.47 0 1769.48 0C1754.5 0 1742.31 10.7617 1742.31 24C1742.31 31.9768 1734.96 38.4617 1725.93 38.4617C1716.9 38.4617 1709.55 31.9768 1709.55 24C1709.55 10.7717 1697.36 0 1682.37 0C1667.38 0 1655.19 10.7617 1655.19 24C1655.19 31.9768 1647.84 38.4617 1638.81 38.4617C1629.78 38.4617 1622.43 31.9768 1622.43 24C1622.43 10.7717 1610.24 0 1595.26 0C1580.27 0 1568.08 10.7617 1568.08 24C1568.08 31.9768 1560.73 38.4617 1551.7 38.4617C1542.67 38.4617 1535.32 31.9768 1535.32 24C1535.32 10.7717 1523.13 0 1508.14 0C1493.16 0 1480.96 10.7617 1480.96 24C1480.96 31.9768 1473.61 38.4617 1464.58 38.4617C1455.55 38.4617 1448.21 31.9768 1448.21 24C1448.21 10.7717 1436.01 0 1421.03 0C1406.04 0 1393.85 10.7617 1393.85 24C1393.85 31.9768 1386.5 38.4617 1377.47 38.4617C1368.44 38.4617 1361.09 31.9768 1361.09 24C1361.09 10.7717 1348.9 0 1333.91 0C1318.93 0 1306.73 10.7617 1306.73 24C1306.73 31.9768 1299.39 38.4617 1290.36 38.4617C1281.33 38.4617 1273.98 31.9768 1273.98 24C1273.98 10.7717 1261.78 0 1246.8 0C1231.81 0 1219.62 10.7617 1219.62 24C1219.62 31.9768 1212.27 38.4617 1203.24 38.4617C1194.21 38.4617 1186.86 31.9768 1186.86 24C1186.86 10.7717 1174.67 0 1159.68 0C1144.7 0 1132.51 10.7617 1132.51 24C1132.51 31.9768 1125.16 38.4617 1116.13 38.4617C1107.1 38.4617 1099.75 31.9768 1099.75 24C1099.75 10.7717 1087.56 0 1072.57 0C1057.58 0 1045.39 10.7617 1045.39 24C1045.39 31.9768 1038.04 38.4617 1029.01 38.4617C1019.98 38.4617 1012.63 31.9768 1012.63 24C1012.63 10.7717 1000.44 0 985.456 0C970.469 0 958.277 10.7617 958.277 24C958.277 31.9768 950.928 38.4617 941.899 38.4617C932.869 38.4617 925.52 31.9768 925.52 24C925.52 10.7717 913.328 0 898.341 0C883.355 0 871.163 10.7617 871.163 24C871.163 31.9768 863.814 38.4617 854.784 38.4617C845.755 38.4617 838.406 31.9768 838.406 24C838.406 10.7717 826.213 0 811.227 0C796.241 0 784.049 10.7617 784.049 24C784.049 31.9768 776.7 38.4617 767.67 38.4617C758.64 38.4617 751.291 31.9768 751.291 24C751.291 10.7717 739.099 0 724.113 0C709.126 0 696.934 10.7617 696.934 24C696.934 31.9768 689.585 38.4617 680.556 38.4617C671.526 38.4617 664.177 31.9768 664.177 24C664.177 10.7717 651.985 0 636.998 0C622.012 0 609.82 10.7617 609.82 24C609.82 31.9768 602.471 38.4617 593.441 38.4617C584.412 38.4617 577.063 31.9768 577.063 24C577.063 10.7717 564.871 0 549.884 0C534.898 0 522.706 10.7617 522.706 24C522.706 31.9768 515.357 38.4617 506.327 38.4617C497.297 38.4617 489.948 31.9768 489.948 24C489.948 10.7717 477.756 0 462.77 0C447.783 0 435.591 10.7617 435.591 24C435.591 31.9768 428.242 38.4617 419.213 38.4617C410.183 38.4617 402.834 31.9768 402.834 24C402.834 10.7717 390.642 0 375.656 0C360.669 0 348.477 10.7617 348.477 24C348.477 31.9768 341.128 38.4617 332.098 38.4617C323.069 38.4617 315.72 31.9768 315.72 24C315.72 10.7717 303.528 0 288.541 0C273.555 0 261.363 10.7617 261.363 24C261.363 31.9768 254.014 38.4617 244.984 38.4617C235.954 38.4617 228.605 31.9768 228.605 24C228.605 10.7717 216.413 0 201.427 0C186.441 0 174.248 10.7617 174.248 24C174.248 31.9768 166.899 38.4617 157.87 38.4617C148.84 38.4617 141.491 31.9768 141.491 24C141.491 10.7717 129.299 0 114.313 0C99.3262 0 87.1342 10.7617 87.1342 24C87.1342 31.9768 79.7852 38.4617 70.7555 38.4617C61.7259 38.4617 54.3768 31.9768 54.3768 24C54.3569 10.7617 42.1649 0 27.1785 0C12.192 0 0 10.7617 0 24H10.7998C10.7998 16.0232 18.1488 9.53833 27.1785 9.53833C36.2081 9.53833 43.5571 16.0232 43.5571 24C43.5571 37.2283 55.7492 48 70.7356 48C85.7221 48 97.9141 37.2383 97.9141 24C97.9141 16.0232 105.263 9.53833 114.293 9.53833C123.322 9.53833 130.671 16.0232 130.671 24C130.671 37.2283 142.863 48 157.85 48C172.836 48 185.028 37.2383 185.028 24C185.028 16.0232 192.377 9.53833 201.407 9.53833C210.437 9.53833 217.786 16.0232 217.786 24C217.786 37.2283 229.978 48 244.964 48C259.951 48 272.143 37.2383 272.143 24C272.143 16.0232 279.492 9.53833 288.521 9.53833C297.551 9.53833 304.9 16.0232 304.9 24C304.9 37.2283 317.092 48 332.079 48C347.065 48 359.257 37.2383 359.257 24C359.257 16.0232 366.606 9.53833 375.636 9.53833C384.665 9.53833 392.014 16.0232 392.014 24C392.014 37.2283 404.206 48 419.193 48C434.179 48 446.371 37.2383 446.371 24C446.371 16.0232 453.72 9.53833 462.75 9.53833C471.78 9.53833 479.129 16.0232 479.129 24C479.129 37.2283 491.321 48 506.307 48C521.294 48 533.486 37.2383 533.486 24C533.486 16.0232 540.835 9.53833 549.864 9.53833C558.894 9.53833 566.243 16.0232 566.243 24C566.243 37.2283 578.435 48 593.421 48C608.408 48 620.6 37.2383 620.6 24C620.6 16.0232 627.949 9.53833 636.979 9.53833C646.008 9.53833 653.357 16.0232 653.357 24C653.357 37.2283 665.549 48 680.536 48C695.522 48 707.714 37.2383 707.714 24C707.714 16.0232 715.063 9.53833 724.093 9.53833C733.123 9.53833 740.472 16.0232 740.472 24C740.472 37.2283 752.664 48 767.65 48C782.636 48 794.828 37.2383 794.828 24C794.828 16.0232 802.177 9.53833 811.207 9.53833C820.237 9.53833 827.586 16.0232 827.586 24C827.586 37.2283 839.778 48 854.764 48C869.751 48 881.943 37.2383 881.943 24C881.943 16.0232 889.292 9.53833 898.321 9.53833C907.351 9.53833 914.7 16.0232 914.7 24C914.7 37.2283 926.892 48 941.879 48C956.865 48 969.057 37.2383 969.057 24C969.057 16.0232 976.406 9.53833 985.436 9.53833C994.465 9.53833 1001.81 16.0232 1001.81 24C1001.81 37.2283 1014.01 48 1028.99 48C1043.98 48 1056.17 37.2383 1056.17 24C1056.17 16.0232 1063.52 9.53833 1072.55 9.53833C1081.58 9.53833 1088.93 16.0232 1088.93 24C1088.93 37.2283 1101.12 48 1116.11 48C1131.09 48 1143.29 37.2383 1143.29 24C1143.29 16.0232 1150.63 9.53833 1159.66 9.53833C1168.69 9.53833 1176.04 16.0232 1176.04 24C1176.04 37.2283 1188.24 48 1203.22 48C1218.21 48 1230.4 37.2383 1230.4 24C1230.4 16.0232 1237.75 9.53833 1246.78 9.53833C1255.81 9.53833 1263.16 16.0232 1263.16 24C1263.16 37.2283 1275.35 48 1290.34 48C1305.32 48 1317.51 37.2383 1317.51 24C1317.51 16.0232 1324.86 9.53833 1333.89 9.53833C1342.92 9.53833 1350.27 16.0232 1350.27 24C1350.27 37.2283 1362.46 48 1377.45 48C1392.44 48 1404.63 37.2383 1404.63 24C1404.63 16.0232 1411.98 9.53833 1421.01 9.53833C1430.04 9.53833 1437.39 16.0232 1437.39 24C1437.39 37.2283 1449.58 48 1464.56 48C1479.55 48 1491.74 37.2383 1491.74 24C1491.74 16.0232 1499.09 9.53833 1508.12 9.53833C1517.15 9.53833 1524.5 16.0232 1524.5 24C1524.5 37.2283 1536.69 48 1551.68 48C1566.67 48 1578.86 37.2383 1578.86 24C1578.86 16.0232 1586.21 9.53833 1595.24 9.53833C1604.27 9.53833 1611.61 16.0232 1611.61 24C1611.61 37.2283 1623.81 48 1638.79 48C1653.78 48 1665.97 37.2383 1665.97 24C1665.97 16.0232 1673.32 9.53833 1682.35 9.53833C1691.38 9.53833 1698.73 16.0232 1698.73 24C1698.73 37.2283 1710.92 48 1725.91 48C1740.89 48 1753.09 37.2383 1753.09 24C1753.09 16.0232 1760.43 9.53833 1769.46 9.53833C1778.49 9.53833 1785.84 16.0232 1785.84 24C1785.84 37.2283 1798.04 48 1813.02 48C1828.01 48 1840.2 37.2383 1840.2 24C1840.2 16.0232 1847.55 9.53833 1856.58 9.53833C1865.61 9.53833 1872.96 16.0232 1872.96 24C1872.96 37.2283 1885.15 48 1900.14 48C1915.12 48 1927.31 37.2383 1927.31 24C1927.31 16.0232 1934.66 9.53833 1943.69 9.53833C1952.72 9.53833 1960.07 16.0232 1960.07 24C1960.07 37.2283 1972.26 48 1987.25 48C2002.24 48 2014.43 37.2383 2014.43 24C2014.43 16.0232 2021.78 9.53833 2030.81 9.53833C2039.84 9.53833 2047.19 16.0232 2047.19 24C2047.19 37.2283 2059.38 48 2074.36 48C2089.35 48 2101.54 37.2383 2101.54 24C2101.54 16.0232 2108.89 9.53833 2117.92 9.53833C2126.95 9.53833 2134.3 16.0232 2134.3 24C2134.3 37.2283 2146.49 48 2161.48 48C2176.47 48 2188.66 37.2383 2188.66 24C2188.66 16.0232 2196.01 9.53833 2205.04 9.53833C2214.07 9.53833 2221.41 16.0232 2221.41 24C2221.41 37.2283 2233.61 48 2248.59 48C2263.58 48 2275.77 37.2383 2275.77 24C2275.77 16.0232 2283.12 9.53833 2292.15 9.53833C2301.18 9.53833 2308.53 16.0232 2308.53 24C2308.53 37.2283 2320.72 48 2335.71 48C2350.69 48 2362.89 37.2383 2362.89 24C2362.89 16.0232 2370.23 9.53833 2379.26 9.53833C2388.29 9.53833 2395.64 16.0232 2395.64 24C2395.64 37.2283 2407.84 48 2422.82 48C2437.81 48 2450 37.2383 2450 24H2439.2H2439.22Z" fill="black"/>
</svg>
