<svg width="356" height="65" viewBox="0 0 356 65" fill="none" xmlns="http://www.w3.org/2000/svg">
<path d="M350.905 28.5298C339.925 28.5298 334.286 22.4732 329.756 17.6095C325.206 12.7252 322.34 9.96937 316.321 9.96937C310.302 9.96937 307.436 12.7354 302.896 17.6095C298.367 22.4732 292.728 28.5298 281.747 28.5298C270.767 28.5298 265.128 22.4732 260.598 17.6095C256.048 12.7252 253.182 9.96937 247.173 9.96937C241.165 9.96937 238.289 12.7354 233.749 17.6095C229.219 22.4732 223.58 28.5298 212.6 28.5298C201.619 28.5298 195.98 22.4732 191.451 17.6095C186.9 12.7252 184.035 9.96937 178.015 9.96937C171.996 9.96937 169.131 12.7354 164.58 17.6095C160.051 22.4732 154.411 28.5298 143.431 28.5298C132.451 28.5298 126.812 22.4732 122.282 17.6095C117.732 12.7252 114.866 9.96937 108.847 9.96937C102.828 9.96937 99.9623 12.7354 95.412 17.6095C90.8823 22.4732 85.2432 28.5298 74.263 28.5298C63.2827 28.5298 57.6437 22.4732 53.1139 17.6095C48.5637 12.7252 45.6979 9.96937 39.6788 9.96937C33.6597 9.96937 30.794 12.7354 26.2437 17.6095C21.714 22.4732 16.0749 28.5298 5.09466 28.5298C2.28027 28.5298 0 26.4218 0 23.81C0 21.1982 2.28027 19.0902 5.09466 19.0902C11.1138 19.0902 13.9795 16.3241 18.5298 11.4501C23.0595 6.58634 28.6986 0.529785 39.6788 0.529785C50.6591 0.529785 56.2981 6.58634 60.8278 11.4501C65.3781 16.3344 68.2439 19.0902 74.263 19.0902C80.2821 19.0902 83.1478 16.3241 87.6981 11.4501C92.2278 6.58634 97.8669 0.529785 108.847 0.529785C119.827 0.529785 125.466 6.58634 129.996 11.4501C134.546 16.3344 137.412 19.0902 143.431 19.0902C149.45 19.0902 152.316 16.3241 156.866 11.4501C161.396 6.58634 167.035 0.529785 178.015 0.529785C188.996 0.529785 194.635 6.58634 199.164 11.4501C203.715 16.3344 206.58 19.0902 212.6 19.0902C218.619 19.0902 221.484 16.3241 226.024 11.4501C230.554 6.58634 236.193 0.529785 247.173 0.529785C258.154 0.529785 263.793 6.58634 268.322 11.4501C272.873 16.3344 275.738 19.0902 281.747 19.0902C287.756 19.0902 290.632 16.3241 295.172 11.4501C299.702 6.58634 305.341 0.529785 316.321 0.529785C327.301 0.529785 332.94 6.58634 337.47 11.4501C342.02 16.3344 344.886 19.0902 350.905 19.0902C353.72 19.0902 356 21.1982 356 23.81C356 26.4218 353.72 28.5298 350.905 28.5298Z" fill="black"/>
<path d="M350.905 63.7598C339.925 63.7598 334.286 57.7032 329.756 52.8395C325.206 47.9551 322.34 45.1994 316.321 45.1994C310.302 45.1994 307.436 47.9654 302.896 52.8395C298.367 57.7032 292.728 63.7598 281.747 63.7598C270.767 63.7598 265.128 57.7032 260.598 52.8395C256.048 47.9551 253.182 45.1994 247.173 45.1994C241.165 45.1994 238.289 47.9654 233.749 52.8395C229.219 57.7032 223.58 63.7598 212.6 63.7598C201.619 63.7598 195.98 57.7032 191.451 52.8395C186.9 47.9551 184.035 45.1994 178.015 45.1994C171.996 45.1994 169.131 47.9654 164.58 52.8395C160.051 57.7032 154.411 63.7598 143.431 63.7598C132.451 63.7598 126.812 57.7032 122.282 52.8395C117.732 47.9551 114.866 45.1994 108.847 45.1994C102.828 45.1994 99.9623 47.9654 95.412 52.8395C90.8823 57.7032 85.2432 63.7598 74.263 63.7598C63.2827 63.7598 57.6437 57.7032 53.1139 52.8395C48.5637 47.9551 45.6979 45.1994 39.6788 45.1994C33.6597 45.1994 30.794 47.9654 26.2437 52.8395C21.714 57.7032 16.0749 63.7598 5.09466 63.7598C2.28027 63.7598 0 61.6518 0 59.04C0 56.4281 2.28027 54.3202 5.09466 54.3202C11.1138 54.3202 13.9795 51.5541 18.5298 46.6801C23.0595 41.8163 28.6986 35.7598 39.6788 35.7598C50.6591 35.7598 56.2981 41.8163 60.8278 46.6801C65.3781 51.5644 68.2439 54.3202 74.263 54.3202C80.2821 54.3202 83.1478 51.5541 87.6981 46.6801C92.2278 41.8163 97.8669 35.7598 108.847 35.7598C119.827 35.7598 125.466 41.8163 129.996 46.6801C134.546 51.5644 137.412 54.3202 143.431 54.3202C149.45 54.3202 152.316 51.5541 156.866 46.6801C161.396 41.8163 167.035 35.7598 178.015 35.7598C188.996 35.7598 194.635 41.8163 199.164 46.6801C203.715 51.5644 206.58 54.3202 212.6 54.3202C218.619 54.3202 221.484 51.5541 226.024 46.6801C230.554 41.8163 236.193 35.7598 247.173 35.7598C258.154 35.7598 263.793 41.8163 268.322 46.6801C272.873 51.5644 275.738 54.3202 281.747 54.3202C287.756 54.3202 290.632 51.5541 295.172 46.6801C299.702 41.8163 305.341 35.7598 316.321 35.7598C327.301 35.7598 332.94 41.8163 337.47 46.6801C342.02 51.5644 344.886 54.3202 350.905 54.3202C353.72 54.3202 356 56.4281 356 59.04C356 61.6518 353.72 63.7598 350.905 63.7598Z" fill="black"/>
</svg>
