<svg width="922" height="40" viewBox="0 0 922 40" fill="none" xmlns="http://www.w3.org/2000/svg">
<mask id="path-1-inside-1_3587_14758" fill="white">
<path d="M919.465 27.3863L889.221 1.74913C887.9 0.629685 886.22 0.009995 884.47 0.009995C882.72 0.009995 881.039 0.629685 879.719 1.74913L854.225 23.3683L828.721 1.74913C827.401 0.629685 825.72 0.01999 823.98 0.01999C822.24 0.01999 820.56 0.63968 819.239 1.74913L793.735 23.3683L768.231 1.74913C766.911 0.629685 765.231 0.009995 763.49 0.009995C761.75 0.009995 760.07 0.629685 758.75 1.73913L733.236 23.3583L707.742 1.73913C706.421 0.61969 704.741 0 702.991 0C701.24 0 699.56 0.61969 698.24 1.73913L672.746 23.3583L647.242 1.73913C645.922 0.61969 644.241 0.009995 642.501 0.009995C640.761 0.009995 639.081 0.629685 637.76 1.73913L612.256 23.3583L586.752 1.73913C585.432 0.61969 583.752 0 582.011 0C580.271 0 578.591 0.61969 577.271 1.72914L551.757 23.3583L526.252 1.73913C524.932 0.61969 523.252 0 521.502 0C519.751 0 518.071 0.61969 516.751 1.73913L491.257 23.3583L465.753 1.73913C464.433 0.629685 462.752 0.009995 461.012 0.009995C459.272 0.009995 457.591 0.629685 456.261 1.73913L430.757 23.3583L405.253 1.74913C403.933 0.629685 402.253 0.009995 400.512 0.009995C398.772 0.009995 397.092 0.629685 395.772 1.73913L370.258 23.3583L344.753 1.74913C343.433 0.629685 341.753 0.009995 340.003 0.009995C338.252 0.009995 336.572 0.629685 335.252 1.74913L309.758 23.3683L284.264 1.73913C282.944 0.629685 281.263 0.009995 279.523 0.009995C277.783 0.009995 276.102 0.629685 274.772 1.73913L249.268 23.3583L223.764 1.74913C222.444 0.629685 220.764 0.009995 219.023 0.009995C217.283 0.009995 215.603 0.629685 214.283 1.73913L188.768 23.3683L163.264 1.74913C161.944 0.629685 160.264 0.009995 158.514 0.009995C156.763 0.009995 155.083 0.629685 153.763 1.74913L128.269 23.3683L102.775 1.73913C101.454 0.629685 99.7642 0.009995 98.0239 0.009995C96.2837 0.009995 94.6034 0.629685 93.2832 1.73913L67.7791 23.3583L42.265 1.74913C40.9448 0.629685 39.2645 0.009995 37.5243 0.009995C35.784 0.009995 34.1037 0.629685 32.7835 1.73913L2.52865 27.3863C-0.511838 29.965 -0.861894 34.5027 1.75853 37.4913C3.13875 39.0705 5.14907 39.98 7.26941 39.98C9.00969 39.98 10.69 39.3603 12.0102 38.2509L37.5243 16.6317L63.0283 38.2509C64.3485 39.3703 66.0288 39.98 67.7691 39.98C69.5094 39.98 71.1896 39.3603 72.5099 38.2509L98.0139 16.6317L123.518 38.2509C124.838 39.3703 126.519 39.99 128.259 39.99C129.999 39.99 131.689 39.3703 133.01 38.2509L158.504 16.6317L184.008 38.2509C184.098 38.3208 184.188 38.3908 184.278 38.4608C184.328 38.5008 184.388 38.5507 184.438 38.5907C184.618 38.7206 184.798 38.8406 184.988 38.9505C185.008 38.9605 185.018 38.9705 185.038 38.9805C185.248 39.1005 185.458 39.2104 185.688 39.3103C185.748 39.3403 185.798 39.3603 185.858 39.3803C186.028 39.4503 186.188 39.5202 186.358 39.5802C186.428 39.6102 186.508 39.6302 186.588 39.6502C186.748 39.7002 186.908 39.7401 187.068 39.7801C187.148 39.8001 187.218 39.8201 187.298 39.8301C187.478 39.8701 187.648 39.8901 187.828 39.92C187.888 39.92 187.958 39.94 188.018 39.94C188.258 39.96 188.508 39.98 188.748 39.98H188.768C189.009 39.98 189.239 39.96 189.479 39.94C189.559 39.94 189.629 39.92 189.709 39.91C189.879 39.8901 190.039 39.8601 190.209 39.8301C190.289 39.8101 190.379 39.7901 190.459 39.7701C190.619 39.7301 190.769 39.6902 190.929 39.6402C191.009 39.6202 191.079 39.5902 191.159 39.5702C191.329 39.5102 191.509 39.4403 191.679 39.3703C191.729 39.3503 191.779 39.3303 191.829 39.3103C192.269 39.1104 192.699 38.8606 193.089 38.5707C193.129 38.5407 193.169 38.5107 193.209 38.4708C193.309 38.3908 193.409 38.3208 193.509 38.2409L219.023 16.6217L244.527 38.2409C245.848 39.3603 247.528 39.97 249.268 39.97C251.008 39.97 252.689 39.3503 254.009 38.2409L279.513 16.6217L305.017 38.2409C306.337 39.3603 308.018 39.98 309.758 39.98C311.498 39.98 313.188 39.3603 314.509 38.2409L340.003 16.6217L365.507 38.2409C365.587 38.3108 365.677 38.3708 365.757 38.4408C365.817 38.4908 365.877 38.5407 365.937 38.5807C366.107 38.7007 366.277 38.8106 366.447 38.9205C366.477 38.9405 366.507 38.9605 366.537 38.9805C366.747 39.1005 366.957 39.2104 367.177 39.3103C367.237 39.3403 367.307 39.3603 367.367 39.3903C367.527 39.4603 367.687 39.5202 367.847 39.5802C367.927 39.6102 368.007 39.6302 368.087 39.6602C368.247 39.7101 368.397 39.7501 368.557 39.7901C368.637 39.8101 368.717 39.8301 368.797 39.8401C368.967 39.8801 369.147 39.9001 369.317 39.92C369.387 39.92 369.447 39.94 369.517 39.95C369.757 39.97 370.007 39.99 370.247 39.99H370.278C370.508 39.99 370.748 39.97 370.978 39.95C371.058 39.95 371.138 39.93 371.208 39.92C371.368 39.9001 371.538 39.8701 371.698 39.8401C371.788 39.8201 371.868 39.8001 371.958 39.7801C372.108 39.7401 372.268 39.7001 372.418 39.6602C372.498 39.6402 372.578 39.6102 372.658 39.5802C372.828 39.5202 372.988 39.4603 373.158 39.3903C373.218 39.3703 373.268 39.3503 373.328 39.3203C373.548 39.2204 373.768 39.1104 373.978 38.9805L374.008 38.9605C374.208 38.8406 374.398 38.7106 374.588 38.5807C374.638 38.5407 374.688 38.5008 374.738 38.4708C374.828 38.4008 374.928 38.3308 375.018 38.2509L400.532 16.6317L426.036 38.2509C427.357 39.3703 429.037 39.98 430.777 39.98C432.517 39.98 434.198 39.3603 435.518 38.2509L461.022 16.6317L486.526 38.2509C487.846 39.3703 489.527 39.99 491.267 39.99C493.007 39.99 494.697 39.3703 496.018 38.2509L521.512 16.6317L547.016 38.2509C547.116 38.3408 547.226 38.4108 547.336 38.5007C547.366 38.5207 547.396 38.5507 547.436 38.5807C547.836 38.8706 548.266 39.1304 548.716 39.3303C548.756 39.3503 548.796 39.3603 548.826 39.3803C549.006 39.4603 549.196 39.5302 549.386 39.6002C549.446 39.6202 549.516 39.6402 549.576 39.6602C549.746 39.7101 549.916 39.7601 550.096 39.8001C550.166 39.8201 550.236 39.8301 550.306 39.8501C550.486 39.8901 550.676 39.92 550.866 39.94C550.926 39.94 550.976 39.96 551.036 39.96C551.276 39.98 551.527 40 551.777 40C552.017 40 552.257 39.98 552.497 39.96C552.567 39.96 552.637 39.94 552.707 39.93C552.877 39.91 553.057 39.8801 553.227 39.8501C553.307 39.8301 553.377 39.8201 553.457 39.8001C553.627 39.7601 553.797 39.7101 553.957 39.6602C554.027 39.6402 554.087 39.6202 554.157 39.6002C554.347 39.5302 554.547 39.4603 554.727 39.3803C554.757 39.3703 554.787 39.3603 554.817 39.3403C555.277 39.1304 555.707 38.8806 556.117 38.5807C556.137 38.5607 556.157 38.5507 556.177 38.5307C556.297 38.4408 556.407 38.3608 556.517 38.2609L582.031 16.6417L607.535 38.2609C608.856 39.3803 610.536 39.99 612.276 39.99C614.017 39.99 615.697 39.3703 617.017 38.2609L642.521 16.6417L668.025 38.2609C669.345 39.3803 671.026 40 672.766 40C674.506 40 676.196 39.3803 677.517 38.2609L703.011 16.6417L728.515 38.2609C728.585 38.3208 728.655 38.3708 728.725 38.4208C728.805 38.4808 728.885 38.5507 728.975 38.6107C729.105 38.7007 729.235 38.7906 729.365 38.8706C729.435 38.9105 729.495 38.9605 729.565 39.0005C729.765 39.1104 729.965 39.2204 730.175 39.3103C730.255 39.3503 730.345 39.3803 730.425 39.4103C730.565 39.4703 730.705 39.5302 730.845 39.5802C730.935 39.6102 731.025 39.6402 731.115 39.6702C731.255 39.7101 731.405 39.7501 731.555 39.7901C731.645 39.8101 731.725 39.8301 731.815 39.8501C731.985 39.8801 732.145 39.91 732.315 39.93C732.385 39.93 732.455 39.95 732.525 39.96C732.765 39.98 733.016 40 733.256 40C733.266 40 733.286 40 733.296 40C733.526 40 733.746 39.99 733.976 39.96C734.056 39.96 734.146 39.94 734.226 39.93C734.386 39.91 734.536 39.8901 734.686 39.8601C734.776 39.8401 734.876 39.8201 734.966 39.8001C735.106 39.7701 735.246 39.7301 735.386 39.6802C735.476 39.6502 735.566 39.6202 735.656 39.5902C735.806 39.5402 735.946 39.4803 736.096 39.4203C736.176 39.3903 736.246 39.3603 736.326 39.3203C736.536 39.2204 736.746 39.1204 736.946 39.0005C736.996 38.9705 737.036 38.9405 737.086 38.9105C737.246 38.8106 737.396 38.7106 737.546 38.6007C737.616 38.5507 737.686 38.4908 737.756 38.4408C737.836 38.3808 737.916 38.3208 737.986 38.2609L763.5 16.6417L789.005 38.2609C790.325 39.3803 792.005 39.99 793.745 39.99C795.486 39.99 797.166 39.3703 798.486 38.2609L823.99 16.6417L849.494 38.2609C850.814 39.3803 852.495 40 854.235 40C855.975 40 857.665 39.3803 858.986 38.2609L884.48 16.6417L909.984 38.2609C911.304 39.3803 912.984 40 914.725 40C916.845 40 918.855 39.0905 920.246 37.5112C922.856 34.5127 922.516 29.985 919.475 27.4063L919.465 27.3863Z"/>
</mask>
<path d="M919.465 27.3863L889.221 1.74913C887.9 0.629685 886.22 0.009995 884.47 0.009995C882.72 0.009995 881.039 0.629685 879.719 1.74913L854.225 23.3683L828.721 1.74913C827.401 0.629685 825.72 0.01999 823.98 0.01999C822.24 0.01999 820.56 0.63968 819.239 1.74913L793.735 23.3683L768.231 1.74913C766.911 0.629685 765.231 0.009995 763.49 0.009995C761.75 0.009995 760.07 0.629685 758.75 1.73913L733.236 23.3583L707.742 1.73913C706.421 0.61969 704.741 0 702.991 0C701.24 0 699.56 0.61969 698.24 1.73913L672.746 23.3583L647.242 1.73913C645.922 0.61969 644.241 0.009995 642.501 0.009995C640.761 0.009995 639.081 0.629685 637.76 1.73913L612.256 23.3583L586.752 1.73913C585.432 0.61969 583.752 0 582.011 0C580.271 0 578.591 0.61969 577.271 1.72914L551.757 23.3583L526.252 1.73913C524.932 0.61969 523.252 0 521.502 0C519.751 0 518.071 0.61969 516.751 1.73913L491.257 23.3583L465.753 1.73913C464.433 0.629685 462.752 0.009995 461.012 0.009995C459.272 0.009995 457.591 0.629685 456.261 1.73913L430.757 23.3583L405.253 1.74913C403.933 0.629685 402.253 0.009995 400.512 0.009995C398.772 0.009995 397.092 0.629685 395.772 1.73913L370.258 23.3583L344.753 1.74913C343.433 0.629685 341.753 0.009995 340.003 0.009995C338.252 0.009995 336.572 0.629685 335.252 1.74913L309.758 23.3683L284.264 1.73913C282.944 0.629685 281.263 0.009995 279.523 0.009995C277.783 0.009995 276.102 0.629685 274.772 1.73913L249.268 23.3583L223.764 1.74913C222.444 0.629685 220.764 0.009995 219.023 0.009995C217.283 0.009995 215.603 0.629685 214.283 1.73913L188.768 23.3683L163.264 1.74913C161.944 0.629685 160.264 0.009995 158.514 0.009995C156.763 0.009995 155.083 0.629685 153.763 1.74913L128.269 23.3683L102.775 1.73913C101.454 0.629685 99.7642 0.009995 98.0239 0.009995C96.2837 0.009995 94.6034 0.629685 93.2832 1.73913L67.7791 23.3583L42.265 1.74913C40.9448 0.629685 39.2645 0.009995 37.5243 0.009995C35.784 0.009995 34.1037 0.629685 32.7835 1.73913L2.52865 27.3863C-0.511838 29.965 -0.861894 34.5027 1.75853 37.4913C3.13875 39.0705 5.14907 39.98 7.26941 39.98C9.00969 39.98 10.69 39.3603 12.0102 38.2509L37.5243 16.6317L63.0283 38.2509C64.3485 39.3703 66.0288 39.98 67.7691 39.98C69.5094 39.98 71.1896 39.3603 72.5099 38.2509L98.0139 16.6317L123.518 38.2509C124.838 39.3703 126.519 39.99 128.259 39.99C129.999 39.99 131.689 39.3703 133.01 38.2509L158.504 16.6317L184.008 38.2509C184.098 38.3208 184.188 38.3908 184.278 38.4608C184.328 38.5008 184.388 38.5507 184.438 38.5907C184.618 38.7206 184.798 38.8406 184.988 38.9505C185.008 38.9605 185.018 38.9705 185.038 38.9805C185.248 39.1005 185.458 39.2104 185.688 39.3103C185.748 39.3403 185.798 39.3603 185.858 39.3803C186.028 39.4503 186.188 39.5202 186.358 39.5802C186.428 39.6102 186.508 39.6302 186.588 39.6502C186.748 39.7002 186.908 39.7401 187.068 39.7801C187.148 39.8001 187.218 39.8201 187.298 39.8301C187.478 39.8701 187.648 39.8901 187.828 39.92C187.888 39.92 187.958 39.94 188.018 39.94C188.258 39.96 188.508 39.98 188.748 39.98H188.768C189.009 39.98 189.239 39.96 189.479 39.94C189.559 39.94 189.629 39.92 189.709 39.91C189.879 39.8901 190.039 39.8601 190.209 39.8301C190.289 39.8101 190.379 39.7901 190.459 39.7701C190.619 39.7301 190.769 39.6902 190.929 39.6402C191.009 39.6202 191.079 39.5902 191.159 39.5702C191.329 39.5102 191.509 39.4403 191.679 39.3703C191.729 39.3503 191.779 39.3303 191.829 39.3103C192.269 39.1104 192.699 38.8606 193.089 38.5707C193.129 38.5407 193.169 38.5107 193.209 38.4708C193.309 38.3908 193.409 38.3208 193.509 38.2409L219.023 16.6217L244.527 38.2409C245.848 39.3603 247.528 39.97 249.268 39.97C251.008 39.97 252.689 39.3503 254.009 38.2409L279.513 16.6217L305.017 38.2409C306.337 39.3603 308.018 39.98 309.758 39.98C311.498 39.98 313.188 39.3603 314.509 38.2409L340.003 16.6217L365.507 38.2409C365.587 38.3108 365.677 38.3708 365.757 38.4408C365.817 38.4908 365.877 38.5407 365.937 38.5807C366.107 38.7007 366.277 38.8106 366.447 38.9205C366.477 38.9405 366.507 38.9605 366.537 38.9805C366.747 39.1005 366.957 39.2104 367.177 39.3103C367.237 39.3403 367.307 39.3603 367.367 39.3903C367.527 39.4603 367.687 39.5202 367.847 39.5802C367.927 39.6102 368.007 39.6302 368.087 39.6602C368.247 39.7101 368.397 39.7501 368.557 39.7901C368.637 39.8101 368.717 39.8301 368.797 39.8401C368.967 39.8801 369.147 39.9001 369.317 39.92C369.387 39.92 369.447 39.94 369.517 39.95C369.757 39.97 370.007 39.99 370.247 39.99H370.278C370.508 39.99 370.748 39.97 370.978 39.95C371.058 39.95 371.138 39.93 371.208 39.92C371.368 39.9001 371.538 39.8701 371.698 39.8401C371.788 39.8201 371.868 39.8001 371.958 39.7801C372.108 39.7401 372.268 39.7001 372.418 39.6602C372.498 39.6402 372.578 39.6102 372.658 39.5802C372.828 39.5202 372.988 39.4603 373.158 39.3903C373.218 39.3703 373.268 39.3503 373.328 39.3203C373.548 39.2204 373.768 39.1104 373.978 38.9805L374.008 38.9605C374.208 38.8406 374.398 38.7106 374.588 38.5807C374.638 38.5407 374.688 38.5008 374.738 38.4708C374.828 38.4008 374.928 38.3308 375.018 38.2509L400.532 16.6317L426.036 38.2509C427.357 39.3703 429.037 39.98 430.777 39.98C432.517 39.98 434.198 39.3603 435.518 38.2509L461.022 16.6317L486.526 38.2509C487.846 39.3703 489.527 39.99 491.267 39.99C493.007 39.99 494.697 39.3703 496.018 38.2509L521.512 16.6317L547.016 38.2509C547.116 38.3408 547.226 38.4108 547.336 38.5007C547.366 38.5207 547.396 38.5507 547.436 38.5807C547.836 38.8706 548.266 39.1304 548.716 39.3303C548.756 39.3503 548.796 39.3603 548.826 39.3803C549.006 39.4603 549.196 39.5302 549.386 39.6002C549.446 39.6202 549.516 39.6402 549.576 39.6602C549.746 39.7101 549.916 39.7601 550.096 39.8001C550.166 39.8201 550.236 39.8301 550.306 39.8501C550.486 39.8901 550.676 39.92 550.866 39.94C550.926 39.94 550.976 39.96 551.036 39.96C551.276 39.98 551.527 40 551.777 40C552.017 40 552.257 39.98 552.497 39.96C552.567 39.96 552.637 39.94 552.707 39.93C552.877 39.91 553.057 39.8801 553.227 39.8501C553.307 39.8301 553.377 39.8201 553.457 39.8001C553.627 39.7601 553.797 39.7101 553.957 39.6602C554.027 39.6402 554.087 39.6202 554.157 39.6002C554.347 39.5302 554.547 39.4603 554.727 39.3803C554.757 39.3703 554.787 39.3603 554.817 39.3403C555.277 39.1304 555.707 38.8806 556.117 38.5807C556.137 38.5607 556.157 38.5507 556.177 38.5307C556.297 38.4408 556.407 38.3608 556.517 38.2609L582.031 16.6417L607.535 38.2609C608.856 39.3803 610.536 39.99 612.276 39.99C614.017 39.99 615.697 39.3703 617.017 38.2609L642.521 16.6417L668.025 38.2609C669.345 39.3803 671.026 40 672.766 40C674.506 40 676.196 39.3803 677.517 38.2609L703.011 16.6417L728.515 38.2609C728.585 38.3208 728.655 38.3708 728.725 38.4208C728.805 38.4808 728.885 38.5507 728.975 38.6107C729.105 38.7007 729.235 38.7906 729.365 38.8706C729.435 38.9105 729.495 38.9605 729.565 39.0005C729.765 39.1104 729.965 39.2204 730.175 39.3103C730.255 39.3503 730.345 39.3803 730.425 39.4103C730.565 39.4703 730.705 39.5302 730.845 39.5802C730.935 39.6102 731.025 39.6402 731.115 39.6702C731.255 39.7101 731.405 39.7501 731.555 39.7901C731.645 39.8101 731.725 39.8301 731.815 39.8501C731.985 39.8801 732.145 39.91 732.315 39.93C732.385 39.93 732.455 39.95 732.525 39.96C732.765 39.98 733.016 40 733.256 40C733.266 40 733.286 40 733.296 40C733.526 40 733.746 39.99 733.976 39.96C734.056 39.96 734.146 39.94 734.226 39.93C734.386 39.91 734.536 39.8901 734.686 39.8601C734.776 39.8401 734.876 39.8201 734.966 39.8001C735.106 39.7701 735.246 39.7301 735.386 39.6802C735.476 39.6502 735.566 39.6202 735.656 39.5902C735.806 39.5402 735.946 39.4803 736.096 39.4203C736.176 39.3903 736.246 39.3603 736.326 39.3203C736.536 39.2204 736.746 39.1204 736.946 39.0005C736.996 38.9705 737.036 38.9405 737.086 38.9105C737.246 38.8106 737.396 38.7106 737.546 38.6007C737.616 38.5507 737.686 38.4908 737.756 38.4408C737.836 38.3808 737.916 38.3208 737.986 38.2609L763.5 16.6417L789.005 38.2609C790.325 39.3803 792.005 39.99 793.745 39.99C795.486 39.99 797.166 39.3703 798.486 38.2609L823.99 16.6417L849.494 38.2609C850.814 39.3803 852.495 40 854.235 40C855.975 40 857.665 39.3803 858.986 38.2609L884.48 16.6417L909.984 38.2609C911.304 39.3803 912.984 40 914.725 40C916.845 40 918.855 39.0905 920.246 37.5112C922.856 34.5127 922.516 29.985 919.475 27.4063L919.465 27.3863Z" fill="white" stroke="black" stroke-width="4" mask="url(#path-1-inside-1_3587_14758)"/>
</svg>
