<svg xmlns="http://www.w3.org/2000/svg" width="620" height="48" fill="none" viewBox="0 0 620 48"><path fill="#000" d="M70.6672 48C85.6392 48 97.8194 37.2383 97.8194 24C97.8194 16.0232 105.161 9.53833 114.182 9.53833C123.203 9.53833 130.545 16.0232 130.545 24C130.545 37.2283 142.725 48 157.697 48C172.669 48 184.85 37.2383 184.85 24C184.85 16.0232 192.191 9.53833 201.212 9.53833C210.233 9.53833 217.575 16.0232 217.575 24C217.575 37.2283 229.755 48 244.727 48C259.699 48 271.88 37.2383 271.88 24C271.88 16.0232 279.222 9.53833 288.242 9.53833C297.263 9.53833 304.605 16.0232 304.605 24C304.605 37.2283 316.786 48 331.758 48C346.729 48 358.91 37.2383 358.91 24C358.91 16.0232 366.252 9.53833 375.273 9.53833C384.294 9.53833 391.635 16.0232 391.635 24C391.635 37.2283 403.816 48 418.788 48C433.76 48 445.94 37.2383 445.94 24C445.94 16.0232 453.282 9.53833 462.303 9.53833C471.324 9.53833 478.665 16.0232 478.665 24C478.665 37.2283 490.846 48 505.818 48C520.79 48 532.97 37.2383 532.97 24C532.97 16.0232 540.312 9.53833 549.333 9.53833C558.354 9.53833 565.696 16.0232 565.696 24C565.696 37.2283 577.876 48 592.848 48C607.82 48 620 37.2383 620 24H609.211C609.211 31.9768 601.869 38.4617 592.848 38.4617C583.827 38.4617 576.485 31.9768 576.485 24C576.485 10.7717 564.305 0 549.333 0C534.361 0 522.181 10.7617 522.181 24C522.181 31.9768 514.839 38.4617 505.818 38.4617C496.797 38.4617 489.455 31.9768 489.455 24C489.455 10.7717 477.275 0 462.303 0C447.331 0 435.15 10.7617 435.15 24C435.15 31.9768 427.809 38.4617 418.788 38.4617C409.767 38.4617 402.425 31.9768 402.425 24C402.425 10.7717 390.245 0 375.273 0C360.301 0 348.12 10.7617 348.12 24C348.12 31.9768 340.778 38.4617 331.758 38.4617C322.737 38.4617 315.395 31.9768 315.395 24C315.395 10.7717 303.214 0 288.242 0C273.271 0 261.09 10.7617 261.09 24C261.09 31.9768 253.748 38.4617 244.727 38.4617C235.707 38.4617 228.365 31.9768 228.365 24C228.365 10.7717 216.184 0 201.212 0C186.24 0 174.06 10.7617 174.06 24C174.06 31.9768 166.718 38.4617 157.697 38.4617C148.676 38.4617 141.334 31.9768 141.334 24C141.334 10.7717 129.154 0 114.182 0C99.2103 0 87.0301 10.7617 87.0301 24C87.0301 31.9768 79.6882 38.4617 70.6672 38.4617C61.6463 38.4617 54.3044 31.9768 54.3044 24C54.3044 10.7617 42.1242 0 27.1522 0C12.1802 0 0 10.7617 0 24H10.7893C10.7893 16.0232 18.1313 9.53833 27.1522 9.53833C36.1731 9.53833 43.515 16.0232 43.515 24C43.515 37.2283 55.6953 48 70.6672 48Z"/></svg>