<svg width="1092" height="132" viewBox="0 0 1092 132" fill="none" xmlns="http://www.w3.org/2000/svg">
<path d="M1042.39 82.2808L998.87 125.543L955.358 82.2808C954.378 81.3068 952.798 81.3068 951.818 82.2808L908.295 125.543L864.772 82.2808C863.793 81.3068 862.213 81.3068 861.233 82.2808L817.71 125.543L774.197 82.2808C773.218 81.3068 771.638 81.3068 770.658 82.2808L727.135 125.543L683.612 82.2808C682.632 81.3068 681.053 81.3068 680.073 82.2808L636.55 125.543L593.037 82.2808C592.057 81.3068 590.478 81.3068 589.498 82.2808L545.975 125.543L502.462 82.2808C501.482 81.3068 499.903 81.3068 498.923 82.2808L455.4 125.543L411.877 82.2808C410.897 81.3068 409.318 81.3068 408.338 82.2808L364.815 125.543L321.302 82.2808C320.322 81.3068 318.742 81.3068 317.763 82.2808L274.24 125.543L230.717 82.2808C229.737 81.3068 228.157 81.3068 227.178 82.2808L183.655 125.543L140.142 82.2808C139.162 81.3068 137.582 81.3068 136.602 82.2808L93.0797 125.543L49.5568 82.2808C48.577 81.3068 46.9973 81.3068 46.0174 82.2808L0.734879 127.302C-0.24496 128.276 -0.24496 129.846 0.734879 130.82C1.71472 131.794 3.29446 131.794 4.2743 130.82L47.7971 87.558L91.32 130.82C92.2998 131.794 93.8795 131.794 94.8594 130.82L138.372 87.558L181.895 130.82C182.875 131.794 184.455 131.794 185.434 130.82L228.947 87.558L272.47 130.82C273.45 131.794 275.03 131.794 276.01 130.82L319.532 87.558L363.055 130.82C364.035 131.794 365.615 131.794 366.595 130.82L410.107 87.558L453.63 130.82C454.61 131.794 456.19 131.794 457.17 130.82L500.692 87.558L544.215 130.82C545.195 131.794 546.775 131.794 547.755 130.82L591.278 87.558L634.8 130.82C635.78 131.794 637.36 131.794 638.34 130.82L681.863 87.558L725.385 130.82C726.365 131.794 727.945 131.794 728.925 130.82L772.448 87.558L815.971 130.82C816.95 131.794 818.53 131.794 819.51 130.82L863.033 87.558L906.556 130.82C907.535 131.794 909.115 131.794 910.095 130.82L953.618 87.558L997.141 130.82C998.121 131.794 999.7 131.794 1000.68 130.82L1044.2 87.558L1087.73 130.82C1088.71 131.794 1090.29 131.794 1091.27 130.82C1092.24 129.846 1092.24 128.276 1091.27 127.302L1045.93 82.2808C1044.95 81.3068 1043.37 81.3068 1042.39 82.2808Z" fill="black"/>
<path d="M1042.39 41.9707L998.87 85.2325L955.358 41.9707C954.378 40.9967 952.798 40.9967 951.818 41.9707L908.295 85.2325L864.772 41.9707C863.793 40.9967 862.213 40.9967 861.233 41.9707L817.71 85.2325L774.197 41.9707C773.218 40.9967 771.638 40.9967 770.658 41.9707L727.135 85.2325L683.612 41.9707C682.632 40.9967 681.053 40.9967 680.073 41.9707L636.55 85.2325L593.037 41.9707C592.057 40.9967 590.478 40.9967 589.498 41.9707L545.975 85.2325L502.462 41.9707C501.482 40.9967 499.903 40.9967 498.923 41.9707L455.4 85.2325L411.877 41.9707C410.897 40.9967 409.318 40.9967 408.338 41.9707L364.815 85.2325L321.302 41.9707C320.322 40.9967 318.742 40.9967 317.763 41.9707L274.24 85.2325L230.717 41.9707C229.737 40.9967 228.157 40.9967 227.178 41.9707L183.655 85.2325L140.142 41.9707C139.162 40.9967 137.582 40.9967 136.602 41.9707L93.0797 85.2325L49.5568 41.9707C48.577 40.9967 46.9973 40.9967 46.0174 41.9707L0.734879 86.9916C-0.24496 87.9655 -0.24496 89.5358 0.734879 90.5098C1.71472 91.4837 3.29446 91.4837 4.2743 90.5098L47.7971 47.248L91.32 90.5098C92.2998 91.4837 93.8795 91.4837 94.8594 90.5098L138.372 47.248L181.895 90.5098C182.875 91.4837 184.455 91.4837 185.434 90.5098L228.947 47.248L272.47 90.5098C273.45 91.4837 275.03 91.4837 276.01 90.5098L319.532 47.248L363.055 90.5098C364.035 91.4837 365.615 91.4837 366.595 90.5098L410.107 47.248L453.63 90.5098C454.61 91.4837 456.19 91.4837 457.17 90.5098L500.692 47.248L544.215 90.5098C545.195 91.4837 546.775 91.4837 547.755 90.5098L591.278 47.248L634.8 90.5098C635.78 91.4837 637.36 91.4837 638.34 90.5098L681.863 47.248L725.385 90.5098C726.365 91.4837 727.945 91.4837 728.925 90.5098L772.448 47.248L815.971 90.5098C816.95 91.4837 818.53 91.4837 819.51 90.5098L863.033 47.248L906.556 90.5098C907.535 91.4837 909.115 91.4837 910.095 90.5098L953.618 47.248L997.141 90.5098C998.121 91.4837 999.7 91.4837 1000.68 90.5098L1044.2 47.248L1087.73 90.5098C1088.71 91.4837 1090.29 91.4837 1091.27 90.5098C1092.24 89.5358 1092.24 87.9655 1091.27 86.9916L1045.93 41.9707C1044.95 40.9967 1043.37 40.9967 1042.39 41.9707Z" fill="black"/>
<path d="M1042.39 1.66065L998.87 44.9224L955.358 1.66065C954.378 0.686685 952.798 0.686685 951.818 1.66065L908.295 44.9224L864.772 1.66065C863.793 0.686685 862.213 0.686685 861.233 1.66065L817.71 44.9224L774.197 1.66065C773.218 0.686685 771.638 0.686685 770.658 1.66065L727.135 44.9224L683.612 1.66065C682.632 0.686685 681.053 0.686685 680.073 1.66065L636.55 44.9224L593.037 1.66065C592.057 0.686685 590.478 0.686685 589.498 1.66065L545.975 44.9224L502.462 1.66065C501.482 0.686685 499.903 0.686685 498.923 1.66065L455.4 44.9224L411.877 1.66065C410.897 0.686685 409.318 0.686685 408.338 1.66065L364.815 44.9224L321.302 1.66065C320.322 0.686685 318.742 0.686685 317.763 1.66065L274.24 44.9224L230.717 1.66065C229.737 0.686685 228.157 0.686685 227.178 1.66065L183.655 44.9224L140.142 1.66065C139.162 0.686685 137.582 0.686685 136.602 1.66065L93.0797 44.9224L49.5568 1.66065C48.577 0.686685 46.9973 0.686685 46.0174 1.66065L0.734879 46.6815C-0.24496 47.6555 -0.24496 49.2257 0.734879 50.1997C1.71472 51.1737 3.29446 51.1737 4.2743 50.1997L47.7971 6.93793L91.32 50.1997C92.2998 51.1737 93.8795 51.1737 94.8594 50.1997L138.372 6.93793L181.895 50.1997C182.875 51.1737 184.455 51.1737 185.434 50.1997L228.947 6.93793L272.47 50.1997C273.45 51.1737 275.03 51.1737 276.01 50.1997L319.532 6.93793L363.055 50.1997C364.035 51.1737 365.615 51.1737 366.595 50.1997L410.107 6.93793L453.63 50.1997C454.61 51.1737 456.19 51.1737 457.17 50.1997L500.692 6.93793L544.215 50.1997C545.195 51.1737 546.775 51.1737 547.755 50.1997L591.278 6.93793L634.8 50.1997C635.78 51.1737 637.36 51.1737 638.34 50.1997L681.863 6.93793L725.385 50.1997C726.365 51.1737 727.945 51.1737 728.925 50.1997L772.448 6.93793L815.971 50.1997C816.95 51.1737 818.53 51.1737 819.51 50.1997L863.033 6.93793L906.556 50.1997C907.535 51.1737 909.115 51.1737 910.095 50.1997L953.618 6.93793L997.141 50.1997C998.121 51.1737 999.7 51.1737 1000.68 50.1997L1044.2 6.93793L1087.73 50.1997C1088.71 51.1737 1090.29 51.1737 1091.27 50.1997C1092.24 49.2257 1092.24 47.6555 1091.27 46.6815L1045.93 1.66065C1044.95 0.686685 1043.37 0.686685 1042.39 1.66065Z" fill="black"/>
</svg>
