<svg xmlns="http://www.w3.org/2000/svg" width="196" height="41" fill="none" viewBox="0 0 196 41"><path fill="#000" d="M193.476 27.391L163.235 1.74006C161.915 0.620014 160.234 0 158.484 0C156.734 0 155.054 0.620014 153.734 1.74006L128.243 23.3709L102.742 1.74006C101.422 0.620014 99.7421 0.00997963 98.002 0.00997963C96.262 0.00997963 94.5819 0.630015 93.2619 1.74006L67.7609 23.3709L42.2599 1.74006C40.9398 0.620014 39.2598 0 37.5197 0C35.7796 0 34.0996 0.620004 32.7795 1.73005L2.52834 27.391C-0.511776 29.9711 -0.86179 34.5113 1.75831 37.5015C3.13837 39.0815 5.14844 39.9915 7.26852 39.9915C9.00859 39.9915 10.6887 39.3715 12.0087 38.2615L37.5197 16.6306L63.0207 38.2615C64.3407 39.3815 66.0208 39.9915 67.7609 39.9915C69.5009 39.9915 71.181 39.3715 72.5011 38.2615L98.002 16.6306L123.503 38.2615C124.823 39.3815 126.503 40.0015 128.243 40.0015C129.983 40.0015 131.673 39.3815 132.993 38.2615L158.484 16.6306L183.985 38.2615C185.305 39.3815 186.985 40.0015 188.726 40.0015C190.846 40.0015 192.856 39.0915 194.246 37.5115C196.856 34.5113 196.516 29.9812 193.476 27.4011V27.391Z"/></svg>