<svg xmlns="http://www.w3.org/2000/svg" width="1092" height="91" fill="none" viewBox="0 0 1092 91"><path fill="#000" d="M1042.39 41.3506L998.87 84.6124L955.358 41.3506C954.378 40.3766 952.798 40.3766 951.818 41.3506L908.295 84.6124L864.772 41.3506C863.793 40.3766 862.213 40.3766 861.233 41.3506L817.71 84.6124L774.197 41.3506C773.218 40.3766 771.638 40.3766 770.658 41.3506L727.135 84.6124L683.612 41.3506C682.632 40.3766 681.053 40.3766 680.073 41.3506L636.55 84.6124L593.037 41.3506C592.057 40.3766 590.478 40.3766 589.498 41.3506L545.975 84.6124L502.462 41.3506C501.482 40.3766 499.903 40.3766 498.923 41.3506L455.4 84.6124L411.877 41.3506C410.897 40.3766 409.318 40.3766 408.338 41.3506L364.815 84.6124L321.302 41.3506C320.322 40.3766 318.742 40.3766 317.763 41.3506L274.24 84.6124L230.717 41.3506C229.737 40.3766 228.157 40.3766 227.178 41.3506L183.655 84.6124L140.142 41.3506C139.162 40.3766 137.582 40.3766 136.602 41.3506L93.0797 84.6124L49.5568 41.3506C48.577 40.3766 46.9973 40.3766 46.0174 41.3506L0.734879 86.3715C-0.24496 87.3454 -0.24496 88.9157 0.734879 89.8896C1.71472 90.8636 3.29446 90.8636 4.2743 89.8896L47.7971 46.6279L91.32 89.8896C92.2998 90.8636 93.8795 90.8636 94.8594 89.8896L138.372 46.6279L181.895 89.8896C182.875 90.8636 184.455 90.8636 185.434 89.8896L228.947 46.6279L272.47 89.8896C273.45 90.8636 275.03 90.8636 276.01 89.8896L319.532 46.6279L363.055 89.8896C364.035 90.8636 365.615 90.8636 366.595 89.8896L410.107 46.6279L453.63 89.8896C454.61 90.8636 456.19 90.8636 457.17 89.8896L500.692 46.6279L544.215 89.8896C545.195 90.8636 546.775 90.8636 547.755 89.8896L591.278 46.6279L634.8 89.8896C635.78 90.8636 637.36 90.8636 638.34 89.8896L681.863 46.6279L725.385 89.8896C726.365 90.8636 727.945 90.8636 728.925 89.8896L772.448 46.6279L815.971 89.8896C816.95 90.8636 818.53 90.8636 819.51 89.8896L863.033 46.6279L906.556 89.8896C907.535 90.8636 909.115 90.8636 910.095 89.8896L953.618 46.6279L997.141 89.8896C998.121 90.8636 999.7 90.8636 1000.68 89.8896L1044.2 46.6279L1087.73 89.8896C1088.71 90.8636 1090.29 90.8636 1091.27 89.8896C1092.24 88.9157 1092.24 87.3454 1091.27 86.3715L1045.93 41.3506C1044.95 40.3766 1043.37 40.3766 1042.39 41.3506Z"/><path fill="#000" d="M1042.39 1.04053L998.87 44.3023L955.358 1.04053C954.378 0.0665682 952.798 0.0665682 951.818 1.04053L908.295 44.3023L864.772 1.04053C863.793 0.0665682 862.213 0.0665682 861.233 1.04053L817.71 44.3023L774.197 1.04053C773.218 0.0665682 771.638 0.0665682 770.658 1.04053L727.135 44.3023L683.612 1.04053C682.632 0.0665682 681.053 0.0665682 680.073 1.04053L636.55 44.3023L593.037 1.04053C592.057 0.0665682 590.478 0.0665682 589.498 1.04053L545.975 44.3023L502.462 1.04053C501.482 0.0665682 499.903 0.0665682 498.923 1.04053L455.4 44.3023L411.877 1.04053C410.897 0.0665682 409.318 0.0665682 408.338 1.04053L364.815 44.3023L321.302 1.04053C320.322 0.0665682 318.742 0.0665682 317.763 1.04053L274.24 44.3023L230.717 1.04053C229.737 0.0665682 228.157 0.0665682 227.178 1.04053L183.655 44.3023L140.142 1.04053C139.162 0.0665682 137.582 0.0665682 136.602 1.04053L93.0797 44.3023L49.5568 1.04053C48.577 0.0665682 46.9973 0.0665682 46.0174 1.04053L0.734879 46.0614C-0.24496 47.0354 -0.24496 48.6056 0.734879 49.5796C1.71472 50.5535 3.29446 50.5535 4.2743 49.5796L47.7971 6.31781L91.32 49.5796C92.2998 50.5535 93.8795 50.5535 94.8594 49.5796L138.372 6.31781L181.895 49.5796C182.875 50.5535 184.455 50.5535 185.434 49.5796L228.947 6.31781L272.47 49.5796C273.45 50.5535 275.03 50.5535 276.01 49.5796L319.532 6.31781L363.055 49.5796C364.035 50.5535 365.615 50.5535 366.595 49.5796L410.107 6.31781L453.63 49.5796C454.61 50.5535 456.19 50.5535 457.17 49.5796L500.692 6.31781L544.215 49.5796C545.195 50.5535 546.775 50.5535 547.755 49.5796L591.278 6.31781L634.8 49.5796C635.78 50.5535 637.36 50.5535 638.34 49.5796L681.863 6.31781L725.385 49.5796C726.365 50.5535 727.945 50.5535 728.925 49.5796L772.448 6.31781L815.971 49.5796C816.95 50.5535 818.53 50.5535 819.51 49.5796L863.033 6.31781L906.556 49.5796C907.535 50.5535 909.115 50.5535 910.095 49.5796L953.618 6.31781L997.141 49.5796C998.121 50.5535 999.7 50.5535 1000.68 49.5796L1044.2 6.31781L1087.73 49.5796C1088.71 50.5535 1090.29 50.5535 1091.27 49.5796C1092.24 48.6056 1092.24 47.0354 1091.27 46.0614L1045.93 1.04053C1044.95 0.0665682 1043.37 0.0665682 1042.39 1.04053Z"/></svg>