<svg xmlns="http://www.w3.org/2000/svg" width="196" height="41" fill="none" viewBox="0 0 196 41"><path fill="#fff" stroke="#000" stroke-width="2" d="M162.588 2.50267L162.588 2.50257C161.448 1.53589 159.998 1 158.484 1C156.971 1 155.52 1.53589 154.381 2.50257L128.89 24.1334L128.243 24.6823L127.596 24.1335L102.095 2.50266L102.095 2.50257C100.958 1.53794 99.5084 1.00998 98.002 1.00998C96.4999 1.00998 95.0479 1.54529 93.9069 2.50424C93.9064 2.50464 93.9059 2.50503 93.9055 2.50542L68.4077 24.1335L67.7609 24.6822L67.114 24.1335L41.613 2.50266L41.6129 2.50257C40.4731 1.53543 39.0221 1 37.5197 1C36.0177 1 34.5658 1.5352 33.4248 2.49399C33.4242 2.49446 33.4237 2.49494 33.4231 2.49541L3.17541 28.1535C3.17535 28.1535 3.17528 28.1536 3.17522 28.1536C0.557388 30.3755 0.261601 34.276 2.51042 36.8424L2.51148 36.8436C3.69989 38.2043 5.43446 38.9915 7.26853 38.9915C8.77074 38.9915 10.2228 38.4562 11.3639 37.4972C11.3643 37.4968 11.3647 37.4965 11.3651 37.4961L36.873 15.8679L37.5198 15.3195L38.1666 15.868L63.6676 37.4989L63.6677 37.499C64.8045 38.4636 66.2545 38.9915 67.7609 38.9915C69.2632 38.9915 70.7153 38.4561 71.8564 37.497C71.8567 37.4967 71.8571 37.4964 71.8575 37.4961L97.3552 15.868L98.002 15.3194L98.6489 15.868L124.15 37.4989L124.15 37.499C125.29 38.4661 126.741 39.0015 128.243 39.0015C129.747 39.0015 131.208 38.4652 132.346 37.499M162.588 2.50267L132.346 37.499M162.588 2.50267L192.476 27.8541V27.864L192.829 28.1635C195.443 30.3825 195.735 34.2728 193.494 36.8525C192.294 38.2152 190.558 39.0015 188.726 39.0015C187.223 39.0015 185.772 38.4661 184.632 37.499L184.632 37.4989L159.131 15.868L158.484 15.3192L157.837 15.8682L132.346 37.499M162.588 2.50267L132.993 38.2615L132.346 37.499"/></svg>