<svg width="1092" height="50" viewBox="0 0 1092 50" fill="none" xmlns="http://www.w3.org/2000/svg">
<path d="M1042.39 0.730471L998.87 43.9922L955.358 0.730471C954.378 -0.24349 952.798 -0.24349 951.818 0.730471L908.295 43.9922L864.772 0.730471C863.793 -0.24349 862.213 -0.24349 861.233 0.730471L817.71 43.9922L774.197 0.730471C773.218 -0.24349 771.638 -0.24349 770.658 0.730471L727.135 43.9922L683.612 0.730471C682.632 -0.24349 681.053 -0.24349 680.073 0.730471L636.55 43.9922L593.037 0.730471C592.057 -0.24349 590.478 -0.24349 589.498 0.730471L545.975 43.9922L502.462 0.730471C501.482 -0.24349 499.903 -0.24349 498.923 0.730471L455.4 43.9922L411.877 0.730471C410.897 -0.24349 409.318 -0.24349 408.338 0.730471L364.815 43.9922L321.302 0.730471C320.322 -0.24349 318.742 -0.24349 317.763 0.730471L274.24 43.9922L230.717 0.730471C229.737 -0.24349 228.157 -0.24349 227.178 0.730471L183.655 43.9922L140.142 0.730471C139.162 -0.24349 137.582 -0.24349 136.602 0.730471L93.0797 43.9922L49.5568 0.730471C48.577 -0.24349 46.9973 -0.24349 46.0174 0.730471L0.734879 45.7513C-0.24496 46.7253 -0.24496 48.2956 0.734879 49.2695C1.71472 50.2435 3.29446 50.2435 4.2743 49.2695L47.7971 6.00775L91.32 49.2695C92.2998 50.2435 93.8795 50.2435 94.8594 49.2695L138.372 6.00775L181.895 49.2695C182.875 50.2435 184.455 50.2435 185.434 49.2695L228.947 6.00775L272.47 49.2695C273.45 50.2435 275.03 50.2435 276.01 49.2695L319.532 6.00775L363.055 49.2695C364.035 50.2435 365.615 50.2435 366.595 49.2695L410.107 6.00775L453.63 49.2695C454.61 50.2435 456.19 50.2435 457.17 49.2695L500.692 6.00775L544.215 49.2695C545.195 50.2435 546.775 50.2435 547.755 49.2695L591.278 6.00775L634.8 49.2695C635.78 50.2435 637.36 50.2435 638.34 49.2695L681.863 6.00775L725.385 49.2695C726.365 50.2435 727.945 50.2435 728.925 49.2695L772.448 6.00775L815.971 49.2695C816.95 50.2435 818.53 50.2435 819.51 49.2695L863.033 6.00775L906.556 49.2695C907.535 50.2435 909.115 50.2435 910.095 49.2695L953.618 6.00775L997.141 49.2695C998.121 50.2435 999.7 50.2435 1000.68 49.2695L1044.2 6.00775L1087.73 49.2695C1088.71 50.2435 1090.29 50.2435 1091.27 49.2695C1092.24 48.2956 1092.24 46.7253 1091.27 45.7513L1045.93 0.730471C1044.95 -0.24349 1043.37 -0.24349 1042.39 0.730471Z" fill="black"/>
</svg>
