<svg width="356" height="101" viewBox="0 0 356 101" fill="none" xmlns="http://www.w3.org/2000/svg">
<path d="M350.905 28.9897C339.925 28.9897 334.286 22.9332 329.756 18.0694C325.206 13.1851 322.34 10.4293 316.321 10.4293C310.302 10.4293 307.436 13.1954 302.896 18.0694C298.367 22.9332 292.728 28.9897 281.747 28.9897C270.767 28.9897 265.128 22.9332 260.598 18.0694C256.048 13.1851 253.182 10.4293 247.173 10.4293C241.165 10.4293 238.289 13.1954 233.749 18.0694C229.219 22.9332 223.58 28.9897 212.6 28.9897C201.619 28.9897 195.98 22.9332 191.451 18.0694C186.9 13.1851 184.035 10.4293 178.015 10.4293C171.996 10.4293 169.131 13.1954 164.58 18.0694C160.051 22.9332 154.411 28.9897 143.431 28.9897C132.451 28.9897 126.812 22.9332 122.282 18.0694C117.732 13.1851 114.866 10.4293 108.847 10.4293C102.828 10.4293 99.9623 13.1954 95.412 18.0694C90.8823 22.9332 85.2432 28.9897 74.263 28.9897C63.2827 28.9897 57.6437 22.9332 53.1139 18.0694C48.5637 13.1851 45.6979 10.4293 39.6788 10.4293C33.6597 10.4293 30.794 13.1954 26.2437 18.0694C21.714 22.9332 16.0749 28.9897 5.09466 28.9897C2.28027 28.9897 0 26.8818 0 24.2699C0 21.6581 2.28027 19.5502 5.09466 19.5502C11.1138 19.5502 13.9795 16.7841 18.5298 11.9101C23.0595 7.0463 28.6986 0.989746 39.6788 0.989746C50.6591 0.989746 56.2981 7.0463 60.8278 11.9101C65.3781 16.7944 68.2439 19.5502 74.263 19.5502C80.2821 19.5502 83.1478 16.7841 87.6981 11.9101C92.2278 7.0463 97.8669 0.989746 108.847 0.989746C119.827 0.989746 125.466 7.0463 129.996 11.9101C134.546 16.7944 137.412 19.5502 143.431 19.5502C149.45 19.5502 152.316 16.7841 156.866 11.9101C161.396 7.0463 167.035 0.989746 178.015 0.989746C188.996 0.989746 194.635 7.0463 199.164 11.9101C203.715 16.7944 206.58 19.5502 212.6 19.5502C218.619 19.5502 221.484 16.7841 226.024 11.9101C230.554 7.0463 236.193 0.989746 247.173 0.989746C258.154 0.989746 263.793 7.0463 268.322 11.9101C272.873 16.7944 275.738 19.5502 281.747 19.5502C287.756 19.5502 290.632 16.7841 295.172 11.9101C299.702 7.0463 305.341 0.989746 316.321 0.989746C327.301 0.989746 332.94 7.0463 337.47 11.9101C342.02 16.7944 344.886 19.5502 350.905 19.5502C353.72 19.5502 356 21.6581 356 24.2699C356 26.8818 353.72 28.9897 350.905 28.9897Z" fill="black"/>
<path d="M350.905 64.2197C339.925 64.2197 334.286 58.1632 329.756 53.2994C325.206 48.4151 322.34 45.6593 316.321 45.6593C310.302 45.6593 307.436 48.4254 302.896 53.2994C298.367 58.1632 292.728 64.2197 281.747 64.2197C270.767 64.2197 265.128 58.1632 260.598 53.2994C256.048 48.4151 253.182 45.6593 247.173 45.6593C241.165 45.6593 238.289 48.4254 233.749 53.2994C229.219 58.1632 223.58 64.2197 212.6 64.2197C201.619 64.2197 195.98 58.1632 191.451 53.2994C186.9 48.4151 184.035 45.6593 178.015 45.6593C171.996 45.6593 169.131 48.4254 164.58 53.2994C160.051 58.1632 154.411 64.2197 143.431 64.2197C132.451 64.2197 126.812 58.1632 122.282 53.2994C117.732 48.4151 114.866 45.6593 108.847 45.6593C102.828 45.6593 99.9623 48.4254 95.412 53.2994C90.8823 58.1632 85.2432 64.2197 74.263 64.2197C63.2827 64.2197 57.6437 58.1632 53.1139 53.2994C48.5637 48.4151 45.6979 45.6593 39.6788 45.6593C33.6597 45.6593 30.794 48.4254 26.2437 53.2994C21.714 58.1632 16.0749 64.2197 5.09466 64.2197C2.28027 64.2197 0 62.1118 0 59.4999C0 56.8881 2.28027 54.7801 5.09466 54.7801C11.1138 54.7801 13.9795 52.0141 18.5298 47.14C23.0595 42.2763 28.6986 36.2197 39.6788 36.2197C50.6591 36.2197 56.2981 42.2763 60.8278 47.14C65.3781 52.0244 68.2439 54.7801 74.263 54.7801C80.2821 54.7801 83.1478 52.0141 87.6981 47.14C92.2278 42.2763 97.8669 36.2197 108.847 36.2197C119.827 36.2197 125.466 42.2763 129.996 47.14C134.546 52.0244 137.412 54.7801 143.431 54.7801C149.45 54.7801 152.316 52.0141 156.866 47.14C161.396 42.2763 167.035 36.2197 178.015 36.2197C188.996 36.2197 194.635 42.2763 199.164 47.14C203.715 52.0244 206.58 54.7801 212.6 54.7801C218.619 54.7801 221.484 52.0141 226.024 47.14C230.554 42.2763 236.193 36.2197 247.173 36.2197C258.154 36.2197 263.793 42.2763 268.322 47.14C272.873 52.0244 275.738 54.7801 281.747 54.7801C287.756 54.7801 290.632 52.0141 295.172 47.14C299.702 42.2763 305.341 36.2197 316.321 36.2197C327.301 36.2197 332.94 42.2763 337.47 47.14C342.02 52.0244 344.886 54.7801 350.905 54.7801C353.72 54.7801 356 56.8881 356 59.4999C356 62.1118 353.72 64.2197 350.905 64.2197Z" fill="black"/>
<path d="M350.905 99.4497C339.925 99.4497 334.286 93.3931 329.756 88.5294C325.206 83.6451 322.34 80.8893 316.321 80.8893C310.302 80.8893 307.436 83.6554 302.896 88.5294C298.367 93.3931 292.728 99.4497 281.747 99.4497C270.767 99.4497 265.128 93.3931 260.598 88.5294C256.048 83.6451 253.182 80.8893 247.173 80.8893C241.165 80.8893 238.289 83.6554 233.749 88.5294C229.219 93.3931 223.58 99.4497 212.6 99.4497C201.619 99.4497 195.98 93.3931 191.451 88.5294C186.9 83.6451 184.035 80.8893 178.015 80.8893C171.996 80.8893 169.131 83.6554 164.58 88.5294C160.051 93.3931 154.411 99.4497 143.431 99.4497C132.451 99.4497 126.812 93.3931 122.282 88.5294C117.732 83.6451 114.866 80.8893 108.847 80.8893C102.828 80.8893 99.9623 83.6554 95.412 88.5294C90.8823 93.3931 85.2432 99.4497 74.263 99.4497C63.2827 99.4497 57.6437 93.3931 53.1139 88.5294C48.5637 83.6451 45.6979 80.8893 39.6788 80.8893C33.6597 80.8893 30.794 83.6554 26.2437 88.5294C21.714 93.3931 16.0749 99.4497 5.09466 99.4497C2.28027 99.4497 0 97.3417 0 94.7299C0 92.1181 2.28027 90.0101 5.09466 90.0101C11.1138 90.0101 13.9795 87.2441 18.5298 82.37C23.0595 77.5063 28.6986 71.4497 39.6788 71.4497C50.6591 71.4497 56.2981 77.5063 60.8278 82.37C65.3781 87.2543 68.2439 90.0101 74.263 90.0101C80.2821 90.0101 83.1478 87.2441 87.6981 82.37C92.2278 77.5063 97.8669 71.4497 108.847 71.4497C119.827 71.4497 125.466 77.5063 129.996 82.37C134.546 87.2543 137.412 90.0101 143.431 90.0101C149.45 90.0101 152.316 87.2441 156.866 82.37C161.396 77.5063 167.035 71.4497 178.015 71.4497C188.996 71.4497 194.635 77.5063 199.164 82.37C203.715 87.2543 206.58 90.0101 212.6 90.0101C218.619 90.0101 221.484 87.2441 226.024 82.37C230.554 77.5063 236.193 71.4497 247.173 71.4497C258.154 71.4497 263.793 77.5063 268.322 82.37C272.873 87.2543 275.738 90.0101 281.747 90.0101C287.756 90.0101 290.632 87.2441 295.172 82.37C299.702 77.5063 305.341 71.4497 316.321 71.4497C327.301 71.4497 332.94 77.5063 337.47 82.37C342.02 87.2543 344.886 90.0101 350.905 90.0101C353.72 90.0101 356 92.1181 356 94.7299C356 97.3417 353.72 99.4497 350.905 99.4497Z" fill="black"/>
</svg>
