<svg width="702" height="99" viewBox="0 0 702 99" fill="none" xmlns="http://www.w3.org/2000/svg">
<path d="M696.925 54.2504C690.904 54.2504 688.037 51.4843 683.486 46.6102C678.955 41.7465 673.314 35.6899 662.331 35.6899C651.348 35.6899 645.707 41.7465 641.176 46.6102C636.625 51.4946 633.758 54.2504 627.748 54.2504C621.737 54.2504 618.861 51.4843 614.319 46.6102C609.788 41.7465 604.148 35.6899 593.165 35.6899C582.181 35.6899 576.541 41.7465 572.01 46.6102C567.458 51.4946 564.592 54.2504 558.581 54.2504C552.571 54.2504 549.694 51.4843 545.143 46.6102C540.612 41.7465 534.971 35.6899 523.988 35.6899C513.005 35.6899 507.364 41.7465 502.833 46.6102C498.282 51.4946 495.415 54.2504 489.394 54.2504C483.374 54.2504 480.507 51.4843 475.956 46.6102C471.425 41.7465 465.784 35.6899 454.801 35.6899C443.818 35.6899 438.177 41.7465 433.646 46.6102C429.095 51.4946 426.228 54.2504 420.207 54.2504C414.187 54.2504 411.32 51.4843 406.769 46.6102C402.238 41.7465 396.597 35.6899 385.614 35.6899C374.631 35.6899 368.99 41.7465 364.459 46.6102C359.908 51.4946 357.041 54.2504 351.021 54.2504C345 54.2504 342.133 51.4843 337.592 46.6102C333.061 41.7465 327.421 35.6899 316.437 35.6899C305.454 35.6899 299.814 41.7465 295.283 46.6102C290.731 51.4946 287.865 54.2504 281.854 54.2504C275.844 54.2504 272.967 51.4843 268.426 46.6102C263.895 41.7465 258.254 35.6899 247.271 35.6899C236.288 35.6899 230.647 41.7465 226.116 46.6102C221.565 51.4946 218.698 54.2504 212.688 54.2504C206.677 54.2504 203.8 51.4843 199.249 46.6102C194.718 41.7465 189.077 35.6899 178.094 35.6899C167.111 35.6899 161.47 41.7465 156.94 46.6102C152.388 51.4946 149.521 54.2504 143.501 54.2504C137.48 54.2504 134.614 51.4843 130.062 46.6102C125.531 41.7465 119.89 35.6899 108.907 35.6899C97.9241 35.6899 92.2835 41.7465 87.7526 46.6102C83.2011 51.4946 80.3345 54.2504 74.3138 54.2504C68.2931 54.2504 65.4266 51.4843 60.8751 46.6102C56.3236 41.7465 50.683 35.6899 39.6998 35.6899C28.7166 35.6899 23.0657 41.7465 18.5348 46.6102C13.9833 51.4946 11.1168 54.2504 5.09604 54.2504C2.28089 54.2504 0 56.3583 0 58.9701C0 61.582 2.28089 63.6899 5.09604 63.6899C16.0792 63.6899 21.7198 57.6334 26.2508 52.7696C30.8023 47.8853 33.6688 45.1295 39.6895 45.1295C45.7102 45.1295 48.5768 47.8956 53.1283 52.7696C57.6592 57.6334 63.2998 63.6899 74.283 63.6899C85.2662 63.6899 90.9068 57.6334 95.4377 52.7696C99.9892 47.8853 102.856 45.1295 108.876 45.1295C114.897 45.1295 117.764 47.8956 122.315 52.7696C126.846 57.6334 132.487 63.6899 143.47 63.6899C154.453 63.6899 160.094 57.6334 164.625 52.7696C169.176 47.8853 172.043 45.1295 178.063 45.1295C184.084 45.1295 186.951 47.8956 191.502 52.7696C196.033 57.6334 201.674 63.6899 212.657 63.6899C223.64 63.6899 229.281 57.6334 233.812 52.7696C238.363 47.8853 241.23 45.1295 247.24 45.1295C253.251 45.1295 256.127 47.8956 260.669 52.7696C265.2 57.6334 270.84 63.6899 281.823 63.6899C292.806 63.6899 298.447 57.6334 302.978 52.7696C307.53 47.8853 310.396 45.1295 316.407 45.1295C322.417 45.1295 325.294 47.8956 329.845 52.7696C334.376 57.6334 340.017 63.6797 351 63.6899C361.983 63.6899 367.624 57.6334 372.155 52.7696C376.706 47.8853 379.573 45.1295 385.593 45.1295C391.614 45.1295 394.481 47.8956 399.032 52.7696C403.563 57.6334 409.204 63.6899 420.187 63.6899C431.17 63.6899 436.811 57.6334 441.342 52.7696C445.893 47.8853 448.76 45.1295 454.78 45.1295C460.801 45.1295 463.668 47.8956 468.219 52.7696C472.75 57.6334 478.391 63.6899 489.374 63.6899C500.357 63.6899 505.998 57.6334 510.529 52.7696C515.08 47.8853 517.947 45.1295 523.967 45.1295C529.988 45.1295 532.855 47.8956 537.406 52.7696C541.937 57.6334 547.578 63.6899 558.561 63.6899C569.544 63.6899 575.185 57.6334 579.716 52.7696C584.267 47.8853 587.134 45.1295 593.144 45.1295C599.155 45.1295 602.031 47.8956 606.573 52.7696C611.103 57.6334 616.744 63.6899 627.727 63.6899C638.71 63.6899 644.351 57.6334 648.882 52.7696C653.433 47.8853 656.3 45.1295 662.31 45.1295C668.321 45.1295 671.198 47.8956 675.749 52.7696C680.28 57.6334 685.921 63.6899 696.904 63.6899C699.719 63.6899 702 61.582 702 58.9701C702 56.3583 699.719 54.2504 696.904 54.2504H696.925Z" fill="black"/>
<path d="M696.925 19.2504C690.904 19.2504 688.037 16.4843 683.486 11.6102C678.955 6.7465 673.314 0.689941 662.331 0.689941C651.348 0.689941 645.707 6.7465 641.176 11.6102C636.625 16.4946 633.758 19.2504 627.748 19.2504C621.737 19.2504 618.861 16.4843 614.319 11.6102C609.788 6.7465 604.148 0.689941 593.165 0.689941C582.181 0.689941 576.541 6.7465 572.01 11.6102C567.458 16.4946 564.592 19.2504 558.581 19.2504C552.571 19.2504 549.694 16.4843 545.143 11.6102C540.612 6.7465 534.971 0.689941 523.988 0.689941C513.005 0.689941 507.364 6.7465 502.833 11.6102C498.282 16.4946 495.415 19.2504 489.394 19.2504C483.374 19.2504 480.507 16.4843 475.956 11.6102C471.425 6.7465 465.784 0.689941 454.801 0.689941C443.818 0.689941 438.177 6.7465 433.646 11.6102C429.095 16.4946 426.228 19.2504 420.207 19.2504C414.187 19.2504 411.32 16.4843 406.769 11.6102C402.238 6.7465 396.597 0.689941 385.614 0.689941C374.631 0.689941 368.99 6.7465 364.459 11.6102C359.908 16.4946 357.041 19.2504 351.021 19.2504C345 19.2504 342.133 16.4843 337.592 11.6102C333.061 6.7465 327.421 0.689941 316.437 0.689941C305.454 0.689941 299.814 6.7465 295.283 11.6102C290.731 16.4946 287.865 19.2504 281.854 19.2504C275.844 19.2504 272.967 16.4843 268.426 11.6102C263.895 6.7465 258.254 0.689941 247.271 0.689941C236.288 0.689941 230.647 6.7465 226.116 11.6102C221.565 16.4946 218.698 19.2504 212.688 19.2504C206.677 19.2504 203.8 16.4843 199.249 11.6102C194.718 6.7465 189.077 0.689941 178.094 0.689941C167.111 0.689941 161.47 6.7465 156.94 11.6102C152.388 16.4946 149.521 19.2504 143.501 19.2504C137.48 19.2504 134.614 16.4843 130.062 11.6102C125.531 6.7465 119.89 0.689941 108.907 0.689941C97.9241 0.689941 92.2835 6.7465 87.7526 11.6102C83.2011 16.4946 80.3345 19.2504 74.3138 19.2504C68.2931 19.2504 65.4266 16.4843 60.8751 11.6102C56.3236 6.7465 50.683 0.689941 39.6998 0.689941C28.7166 0.689941 23.0657 6.7465 18.5348 11.6102C13.9833 16.4946 11.1168 19.2504 5.09604 19.2504C2.28089 19.2504 0 21.3583 0 23.9701C0 26.582 2.28089 28.6899 5.09604 28.6899C16.0792 28.6899 21.7198 22.6334 26.2508 17.7696C30.8023 12.8853 33.6688 10.1295 39.6895 10.1295C45.7102 10.1295 48.5768 12.8956 53.1283 17.7696C57.6592 22.6334 63.2998 28.6899 74.283 28.6899C85.2662 28.6899 90.9068 22.6334 95.4377 17.7696C99.9892 12.8853 102.856 10.1295 108.876 10.1295C114.897 10.1295 117.764 12.8956 122.315 17.7696C126.846 22.6334 132.487 28.6899 143.47 28.6899C154.453 28.6899 160.094 22.6334 164.625 17.7696C169.176 12.8853 172.043 10.1295 178.063 10.1295C184.084 10.1295 186.951 12.8956 191.502 17.7696C196.033 22.6334 201.674 28.6899 212.657 28.6899C223.64 28.6899 229.281 22.6334 233.812 17.7696C238.363 12.8853 241.23 10.1295 247.24 10.1295C253.251 10.1295 256.127 12.8956 260.669 17.7696C265.2 22.6334 270.84 28.6899 281.823 28.6899C292.806 28.6899 298.447 22.6334 302.978 17.7696C307.53 12.8853 310.396 10.1295 316.407 10.1295C322.417 10.1295 325.294 12.8956 329.845 17.7696C334.376 22.6334 340.017 28.6797 351 28.6899C361.983 28.6899 367.624 22.6334 372.155 17.7696C376.706 12.8853 379.573 10.1295 385.593 10.1295C391.614 10.1295 394.481 12.8956 399.032 17.7696C403.563 22.6334 409.204 28.6899 420.187 28.6899C431.17 28.6899 436.811 22.6334 441.342 17.7696C445.893 12.8853 448.76 10.1295 454.78 10.1295C460.801 10.1295 463.668 12.8956 468.219 17.7696C472.75 22.6334 478.391 28.6899 489.374 28.6899C500.357 28.6899 505.998 22.6334 510.529 17.7696C515.08 12.8853 517.947 10.1295 523.967 10.1295C529.988 10.1295 532.855 12.8956 537.406 17.7696C541.937 22.6334 547.578 28.6899 558.561 28.6899C569.544 28.6899 575.185 22.6334 579.716 17.7696C584.267 12.8853 587.134 10.1295 593.144 10.1295C599.155 10.1295 602.031 12.8956 606.573 17.7696C611.103 22.6334 616.744 28.6899 627.727 28.6899C638.71 28.6899 644.351 22.6334 648.882 17.7696C653.433 12.8853 656.3 10.1295 662.31 10.1295C668.321 10.1295 671.198 12.8956 675.749 17.7696C680.28 22.6334 685.921 28.6899 696.904 28.6899C699.719 28.6899 702 26.582 702 23.9701C702 21.3583 699.719 19.2504 696.904 19.2504H696.925Z" fill="black"/>
<path d="M696.925 89.4803C690.904 89.4803 688.037 86.7143 683.486 81.8402C678.955 76.9765 673.314 70.9199 662.331 70.9199C651.348 70.9199 645.707 76.9765 641.176 81.8402C636.625 86.7245 633.758 89.4803 627.748 89.4803C621.737 89.4803 618.861 86.7143 614.319 81.8402C609.788 76.9765 604.148 70.9199 593.165 70.9199C582.181 70.9199 576.541 76.9765 572.01 81.8402C567.458 86.7245 564.592 89.4803 558.581 89.4803C552.571 89.4803 549.694 86.7143 545.143 81.8402C540.612 76.9765 534.971 70.9199 523.988 70.9199C513.005 70.9199 507.364 76.9765 502.833 81.8402C498.282 86.7245 495.415 89.4803 489.394 89.4803C483.374 89.4803 480.507 86.7143 475.956 81.8402C471.425 76.9765 465.784 70.9199 454.801 70.9199C443.818 70.9199 438.177 76.9765 433.646 81.8402C429.095 86.7245 426.228 89.4803 420.207 89.4803C414.187 89.4803 411.32 86.7143 406.769 81.8402C402.238 76.9765 396.597 70.9199 385.614 70.9199C374.631 70.9199 368.99 76.9765 364.459 81.8402C359.908 86.7245 357.041 89.4803 351.021 89.4803C345 89.4803 342.133 86.7143 337.592 81.8402C333.061 76.9765 327.421 70.9199 316.437 70.9199C305.454 70.9199 299.814 76.9765 295.283 81.8402C290.731 86.7245 287.865 89.4803 281.854 89.4803C275.844 89.4803 272.967 86.7143 268.426 81.8402C263.895 76.9765 258.254 70.9199 247.271 70.9199C236.288 70.9199 230.647 76.9765 226.116 81.8402C221.565 86.7245 218.698 89.4803 212.688 89.4803C206.677 89.4803 203.8 86.7143 199.249 81.8402C194.718 76.9765 189.077 70.9199 178.094 70.9199C167.111 70.9199 161.47 76.9765 156.94 81.8402C152.388 86.7245 149.521 89.4803 143.501 89.4803C137.48 89.4803 134.614 86.7143 130.062 81.8402C125.531 76.9765 119.89 70.9199 108.907 70.9199C97.9241 70.9199 92.2835 76.9765 87.7526 81.8402C83.2011 86.7245 80.3345 89.4803 74.3138 89.4803C68.2931 89.4803 65.4266 86.7143 60.8751 81.8402C56.3236 76.9765 50.683 70.9199 39.6998 70.9199C28.7166 70.9199 23.0657 76.9765 18.5348 81.8402C13.9833 86.7245 11.1168 89.4803 5.09604 89.4803C2.28089 89.4803 0 91.5883 0 94.2001C0 96.812 2.28089 98.9199 5.09604 98.9199C16.0792 98.9199 21.7198 92.8634 26.2508 87.9996C30.8023 83.1153 33.6688 80.3595 39.6895 80.3595C45.7102 80.3595 48.5768 83.1256 53.1283 87.9996C57.6592 92.8634 63.2998 98.9199 74.283 98.9199C85.2662 98.9199 90.9068 92.8634 95.4377 87.9996C99.9892 83.1153 102.856 80.3595 108.876 80.3595C114.897 80.3595 117.764 83.1256 122.315 87.9996C126.846 92.8634 132.487 98.9199 143.47 98.9199C154.453 98.9199 160.094 92.8634 164.625 87.9996C169.176 83.1153 172.043 80.3595 178.063 80.3595C184.084 80.3595 186.951 83.1256 191.502 87.9996C196.033 92.8634 201.674 98.9199 212.657 98.9199C223.64 98.9199 229.281 92.8634 233.812 87.9996C238.363 83.1153 241.23 80.3595 247.24 80.3595C253.251 80.3595 256.127 83.1256 260.669 87.9996C265.2 92.8634 270.84 98.9199 281.823 98.9199C292.806 98.9199 298.447 92.8634 302.978 87.9996C307.53 83.1153 310.396 80.3595 316.407 80.3595C322.417 80.3595 325.294 83.1256 329.845 87.9996C334.376 92.8634 340.017 98.9096 351 98.9199C361.983 98.9199 367.624 92.8634 372.155 87.9996C376.706 83.1153 379.573 80.3595 385.593 80.3595C391.614 80.3595 394.481 83.1256 399.032 87.9996C403.563 92.8634 409.204 98.9199 420.187 98.9199C431.17 98.9199 436.811 92.8634 441.342 87.9996C445.893 83.1153 448.76 80.3595 454.78 80.3595C460.801 80.3595 463.668 83.1256 468.219 87.9996C472.75 92.8634 478.391 98.9199 489.374 98.9199C500.357 98.9199 505.998 92.8634 510.529 87.9996C515.08 83.1153 517.947 80.3595 523.967 80.3595C529.988 80.3595 532.855 83.1256 537.406 87.9996C541.937 92.8634 547.578 98.9199 558.561 98.9199C569.544 98.9199 575.185 92.8634 579.716 87.9996C584.267 83.1153 587.134 80.3595 593.144 80.3595C599.155 80.3595 602.031 83.1256 606.573 87.9996C611.103 92.8634 616.744 98.9199 627.727 98.9199C638.71 98.9199 644.351 92.8634 648.882 87.9996C653.433 83.1153 656.3 80.3595 662.31 80.3595C668.321 80.3595 671.198 83.1256 675.749 87.9996C680.28 92.8634 685.921 98.9199 696.904 98.9199C699.719 98.9199 702 96.812 702 94.2001C702 91.5883 699.719 89.4803 696.904 89.4803H696.925Z" fill="black"/>
</svg>
