<svg xmlns="http://www.w3.org/2000/svg" width="702" height="28" fill="none" viewBox="0 0 702 28"><path fill="#000" d="M696.925 18.5604C690.904 18.5604 688.037 15.7943 683.486 10.9203C678.955 6.05656 673.314 0 662.331 0C651.348 0 645.707 6.05656 641.176 10.9203C636.625 15.8046 633.758 18.5604 627.748 18.5604C621.737 18.5604 618.861 15.7943 614.319 10.9203C609.788 6.05656 604.148 0 593.165 0C582.181 0 576.541 6.05656 572.01 10.9203C567.458 15.8046 564.592 18.5604 558.581 18.5604C552.571 18.5604 549.694 15.7943 545.143 10.9203C540.612 6.05656 534.971 0 523.988 0C513.005 0 507.364 6.05656 502.833 10.9203C498.282 15.8046 495.415 18.5604 489.394 18.5604C483.374 18.5604 480.507 15.7943 475.956 10.9203C471.425 6.05656 465.784 0 454.801 0C443.818 0 438.177 6.05656 433.646 10.9203C429.095 15.8046 426.228 18.5604 420.207 18.5604C414.187 18.5604 411.32 15.7943 406.769 10.9203C402.238 6.05656 396.597 0 385.614 0C374.631 0 368.99 6.05656 364.459 10.9203C359.908 15.8046 357.041 18.5604 351.021 18.5604C345 18.5604 342.133 15.7943 337.592 10.9203C333.061 6.05656 327.421 0 316.437 0C305.454 0 299.814 6.05656 295.283 10.9203C290.731 15.8046 287.865 18.5604 281.854 18.5604C275.844 18.5604 272.967 15.7943 268.426 10.9203C263.895 6.05656 258.254 0 247.271 0C236.288 0 230.647 6.05656 226.116 10.9203C221.565 15.8046 218.698 18.5604 212.688 18.5604C206.677 18.5604 203.8 15.7943 199.249 10.9203C194.718 6.05656 189.077 0 178.094 0C167.111 0 161.47 6.05656 156.94 10.9203C152.388 15.8046 149.521 18.5604 143.501 18.5604C137.48 18.5604 134.614 15.7943 130.062 10.9203C125.531 6.05656 119.89 0 108.907 0C97.9241 0 92.2835 6.05656 87.7526 10.9203C83.2011 15.8046 80.3345 18.5604 74.3138 18.5604C68.2931 18.5604 65.4266 15.7943 60.8751 10.9203C56.3236 6.05656 50.683 0 39.6998 0C28.7166 0 23.0657 6.05656 18.5348 10.9203C13.9833 15.8046 11.1168 18.5604 5.09604 18.5604C2.28089 18.5604 0 20.6684 0 23.2802C0 25.892 2.28089 28 5.09604 28C16.0792 28 21.7198 21.9434 26.2508 17.0797C30.8023 12.1954 33.6688 9.43959 39.6895 9.43959C45.7102 9.43959 48.5768 12.2057 53.1283 17.0797C57.6592 21.9434 63.2998 28 74.283 28C85.2662 28 90.9068 21.9434 95.4377 17.0797C99.9892 12.1954 102.856 9.43959 108.876 9.43959C114.897 9.43959 117.764 12.2057 122.315 17.0797C126.846 21.9434 132.487 28 143.47 28C154.453 28 160.094 21.9434 164.625 17.0797C169.176 12.1954 172.043 9.43959 178.063 9.43959C184.084 9.43959 186.951 12.2057 191.502 17.0797C196.033 21.9434 201.674 28 212.657 28C223.64 28 229.281 21.9434 233.812 17.0797C238.363 12.1954 241.23 9.43959 247.24 9.43959C253.251 9.43959 256.127 12.2057 260.669 17.0797C265.2 21.9434 270.84 28 281.823 28C292.806 28 298.447 21.9434 302.978 17.0797C307.53 12.1954 310.396 9.43959 316.407 9.43959C322.417 9.43959 325.294 12.2057 329.845 17.0797C334.376 21.9434 340.017 27.9897 351 28C361.983 28 367.624 21.9434 372.155 17.0797C376.706 12.1954 379.573 9.43959 385.593 9.43959C391.614 9.43959 394.481 12.2057 399.032 17.0797C403.563 21.9434 409.204 28 420.187 28C431.17 28 436.811 21.9434 441.342 17.0797C445.893 12.1954 448.76 9.43959 454.78 9.43959C460.801 9.43959 463.668 12.2057 468.219 17.0797C472.75 21.9434 478.391 28 489.374 28C500.357 28 505.998 21.9434 510.529 17.0797C515.08 12.1954 517.947 9.43959 523.967 9.43959C529.988 9.43959 532.855 12.2057 537.406 17.0797C541.937 21.9434 547.578 28 558.561 28C569.544 28 575.185 21.9434 579.716 17.0797C584.267 12.1954 587.134 9.43959 593.144 9.43959C599.155 9.43959 602.031 12.2057 606.573 17.0797C611.103 21.9434 616.744 28 627.727 28C638.71 28 644.351 21.9434 648.882 17.0797C653.433 12.1954 656.3 9.43959 662.31 9.43959C668.321 9.43959 671.198 12.2057 675.749 17.0797C680.28 21.9434 685.921 28 696.904 28C699.719 28 702 25.892 702 23.2802C702 20.6684 699.719 18.5604 696.904 18.5604H696.925Z"/></svg>