<svg xmlns="http://www.w3.org/2000/svg" width="378" height="40" fill="none" viewBox="0 0 378 40"><path fill="#000" d="M375.472 27.3969L345.189 1.74044C343.867 0.620161 342.185 0 340.432 0C338.68 0 336.998 0.620161 335.676 1.74044L310.149 23.3758L284.613 1.74044C283.291 0.620161 281.609 0.0100123 279.866 0.0100123C278.124 0.0100123 276.441 0.630163 275.109 1.74044L249.573 23.3758L224.037 1.74044C222.715 0.620161 221.033 0 219.29 0C217.548 0 215.865 0.620151 214.543 1.73043L188.997 23.3758L163.471 1.74044C162.149 0.620161 160.466 0 158.714 0C156.961 0 155.279 0.620161 153.957 1.74044L128.431 23.3758L102.895 1.74044C101.573 0.620161 99.8903 0.0100123 98.1478 0.0100123C96.4054 0.0100123 94.723 0.630163 93.4011 1.74044L67.8648 23.3758L42.3284 1.74044C41.0066 0.620161 39.3242 0 37.5817 0C35.8392 0 34.1568 0.620151 32.8349 1.73043L2.53184 27.3869C-0.512485 29.9675 -0.862984 34.5086 1.76075 37.4994C3.14271 39.0798 5.15558 39.99 7.27859 39.99C9.02107 39.99 10.7035 39.3699 12.0253 38.2596L37.5717 16.6242L63.108 38.2596C64.4299 39.3799 66.1123 39.99 67.8547 39.99C69.5972 39.99 71.2796 39.3699 72.6015 38.2596L98.1378 16.6242L123.674 38.2596C124.996 39.3799 126.678 40 128.421 40C130.163 40 131.856 39.3799 133.178 38.2596L158.704 16.6242L184.24 38.2596C184.33 38.3296 184.421 38.3996 184.511 38.4696C184.561 38.5096 184.621 38.5596 184.671 38.5997C184.851 38.7297 185.031 38.8497 185.222 38.9598C185.242 38.9698 185.252 38.9798 185.272 38.9898C185.482 39.1098 185.692 39.2198 185.923 39.3198C185.983 39.3498 186.033 39.3699 186.093 39.3899C186.263 39.4599 186.423 39.5299 186.594 39.5899C186.664 39.6199 186.744 39.6399 186.824 39.6599C186.984 39.7099 187.144 39.7499 187.305 39.79C187.385 39.81 187.455 39.83 187.535 39.84C187.715 39.88 187.885 39.9 188.066 39.93C188.126 39.93 188.196 39.95 188.256 39.95C188.496 39.97 188.747 39.99 188.987 39.99H189.007C189.247 39.99 189.478 39.97 189.718 39.95C189.798 39.95 189.868 39.93 189.948 39.92C190.119 39.9 190.279 39.87 190.449 39.84C190.529 39.82 190.619 39.8 190.699 39.7799C190.86 39.7399 191.01 39.7 191.17 39.6499C191.25 39.6299 191.32 39.5999 191.4 39.5799C191.571 39.5199 191.751 39.4499 191.921 39.3799C191.971 39.3598 192.021 39.3398 192.071 39.3198C192.512 39.1198 192.943 38.8697 193.333 38.5797C193.373 38.5497 193.413 38.5196 193.453 38.4796C193.554 38.3996 193.654 38.3296 193.754 38.2496L219.3 16.6142L244.836 38.2496C246.158 39.3698 247.841 39.98 249.583 39.98C251.326 39.98 253.008 39.3598 254.33 38.2496L279.866 16.6142L305.403 38.2496C306.724 39.3698 308.407 39.99 310.149 39.99C311.892 39.99 313.584 39.3698 314.906 38.2496L340.432 16.6142L365.969 38.2496C367.291 39.3698 368.973 39.99 370.715 39.99C372.838 39.99 374.851 39.0798 376.243 37.4994C378.857 34.4986 378.517 29.9675 375.472 27.3869V27.3969Z"/></svg>