<svg width="2160" height="800" viewBox="0 0 2160 800" fill="none" xmlns="http://www.w3.org/2000/svg">
<path d="M290.447 408.282C305.537 496.36 376.523 570.202 479.663 629.247C450.659 628.341 422.396 626.73 395.281 624.501C81.6324 598.646 40.939 497.367 10.6184 276.56C-19.7021 55.7531 -3.44994 -21.0512 310.171 4.8043C517.837 21.931 803.811 79.7823 982.165 181.004C609.135 167.645 251.083 178.372 290.461 408.267L290.447 408.282Z" fill="#FFFFDD"/>
<path d="M1186.94 799.385C937.278 789.147 659.549 731.109 479.642 628.104C786.053 637.753 1174.08 570.785 1146.37 369.075C1136.13 294.47 1073.15 231.529 982.143 179.875C1001.35 180.565 1020.58 181.313 1039.82 182.104C1432.61 198.224 1685.23 27.8342 1726.62 269.55C1768.03 511.28 1579.74 815.505 1186.94 799.385Z" fill="#FBC838"/>
<path d="M1146.86 371.003C1175.14 575.036 779.121 642.776 466.397 633.016C361.132 573.276 288.683 498.598 273.282 409.505C233.093 176.962 598.521 166.111 979.236 179.624C1072.11 231.872 1136.39 295.539 1146.85 371.003H1146.86Z" fill="#FFFFDD"/>
<path d="M1130 95.3456C1142.88 93.2107 1162.47 94.0406 1162.15 103.222C1161.81 112.403 1141.94 118.974 1129.07 121.127C1116.19 123.262 1115.21 120.169 1115.54 110.969C1115.88 101.788 1117.13 97.4804 1130 95.3456Z" fill="#482D38"/>
<path d="M981.833 111.178C994.708 109.044 1014.3 109.873 1013.98 119.055C1013.64 128.236 993.777 134.807 980.901 136.96C968.026 139.095 967.046 136.002 967.368 126.802C967.708 117.621 968.958 113.313 981.833 111.178Z" fill="#482D38"/>
<path d="M1278.34 74.4732C1291.21 72.3383 1310.8 73.1682 1310.48 82.3497C1310.14 91.5303 1290.28 98.1014 1277.41 100.255C1264.53 102.39 1263.55 99.2969 1263.87 90.0966C1264.21 80.916 1265.46 76.608 1278.34 74.4732Z" fill="#482D38"/>
<path d="M1217.27 84.3032C1230.14 82.1685 1247.49 80.8895 1247.17 90.0677C1246.83 99.2449 1247 106.629 1234.15 108.765C1221.27 110.899 1200.24 107.011 1200.58 97.8148C1200.92 88.6376 1204.42 86.4389 1217.29 84.3042L1217.27 84.3032Z" fill="#482D38"/>
<path d="M1061.23 105.679C1074.1 103.544 1091.45 102.265 1091.13 111.444C1090.79 120.621 1090.96 128.005 1078.1 130.14C1065.23 132.275 1044.2 128.387 1044.54 119.191C1044.88 110.013 1048.37 107.815 1061.25 105.68L1061.23 105.679Z" fill="#482D38"/>
<path d="M1688.85 471.366C1667.99 470.383 1668.18 482.309 1637.8 484.454C1627.04 528.039 1628.06 533.45 1634.98 551.055C1655.84 552.037 1697.2 542.15 1698.08 522.447C1698.95 502.743 1713.95 474.336 1688.85 471.366Z" fill="#FFFFDD"/>
<path d="M1694.6 433.068C1673.95 435.968 1677.14 433.81 1648.47 442.077C1640.64 444.333 1637.1 454.12 1645.09 451.682C1684.43 439.686 1709.96 439.765 1709.68 438.008C1709.39 436.25 1719.54 429.727 1694.6 433.068Z" fill="#FFFFDD"/>
<path d="M1663.05 305.371C1643.19 314.747 1641.27 314.245 1615.02 331.324C1611.21 333.803 1614.21 335.466 1617.91 337.434C1653.71 313.381 1680.63 306.859 1679.79 305.271C1678.94 303.683 1687.1 294.195 1663.05 305.371Z" fill="#FFFFDD"/>
<path d="M1501.06 426.272C1514.67 417.961 1523.48 409.384 1538.57 391.036C1538.73 387.507 1537.75 386.221 1536.29 385.556C1526.51 392.854 1506.6 415.192 1503.34 417.426C1500.09 419.66 1501.82 423.323 1501.06 426.272Z" fill="#FFFFDD"/>
<path d="M1497.26 511.017C1517.78 507.409 1514.67 509.675 1543 500.428C1550.74 497.904 1553.9 488.002 1546.01 490.714C1507.17 504.055 1481.65 504.855 1482.01 506.601C1482.36 508.347 1472.47 515.215 1497.26 511.017Z" fill="#FFFFDD"/>
<path d="M1546.32 498.799C1568.5 487.252 1590.45 470.34 1620.28 459.662C1615.91 459.055 1611.95 461.67 1611.06 457.391C1607.13 457.868 1599.84 459.755 1589.42 464.76C1578.56 469.977 1568.9 477.846 1559.11 483.278C1548.8 488.996 1536.94 494.072 1537.23 494.567C1538.06 495.984 1539.35 500.3 1546.32 498.799Z" fill="#FFFFDD"/>
<path d="M1560.13 374.143C1570.9 367.884 1574.87 356.359 1590.66 352.173C1590.66 352.173 1590.2 351.765 1588.5 347.884C1587.11 346.494 1582.82 349.664 1577.64 352.238C1572.25 354.922 1564.86 361.018 1564.86 361.018C1557.13 368.101 1557.18 369.816 1557.18 369.816C1557.18 369.816 1560.08 372.452 1560.13 374.143Z" fill="#FFFFDD"/>
<path d="M1477.16 431.619C1489.32 425.732 1488.5 424.499 1491.73 422.86C1491.73 422.86 1492.56 427.079 1492.07 429.444C1491.69 431.3 1485.54 434.509 1479.77 436.624C1475.64 437.43 1468.2 441.453 1464.56 444.266C1463.69 443.628 1464.71 440.69 1464.71 440.69C1464.71 440.69 1469.07 436.12 1477.16 431.619Z" fill="#FFFFDD"/>
<path d="M1435.48 451.726C1419.92 454.183 1420.28 455.595 1416.12 456.321C1416.12 456.321 1415.75 454.976 1417.25 452.813C1418.44 451.117 1428.55 448.212 1435.66 447.703C1440.45 448.026 1449.23 444.589 1454.33 442.837C1455.53 442.895 1454.14 447.097 1454.14 447.097C1454.14 447.097 1446.08 449.526 1435.48 451.726Z" fill="#FFFFDD"/>
<path d="M1487.12 505.384C1461.91 508.076 1434.68 515.177 1402.79 514.868C1406.56 516.669 1411.3 515.744 1410.33 519.472C1414.15 520.266 1421.65 520.929 1433.32 520.004C1445.48 519.04 1457.63 515.568 1468.9 514.11C1480.76 512.575 1493.8 512.028 1493.73 511.54C1493.56 510.144 1494.16 506.262 1487.12 505.384Z" fill="#FFFFDD"/>
<path d="M1613.14 462.33C1615.81 461.573 1625.08 457.871 1629.15 457.078C1633.23 456.286 1646.24 451.555 1645.38 450.212C1638.69 448.64 1644.6 447.724 1649.25 442.441C1648.87 441.741 1639.97 444.825 1636.71 446.503C1630.36 450.483 1627.52 452.002 1623.64 453.766C1619.75 455.529 1607.17 457.188 1611 458.318C1606.98 459.909 1607.64 463.888 1613.14 462.33Z" fill="#FFFFDD"/>
<path d="M1412.94 513.892C1407.64 513.601 1388.42 513.564 1380.62 512.792C1372.82 512.02 1360.34 512.832 1355.93 512.625C1352.65 515.475 1349.34 519.172 1347.39 520.51C1349.9 520.626 1352.15 519.963 1359.19 519.632C1373.45 518.343 1379.62 518.003 1387.84 517.826C1396.06 517.649 1419.55 520.752 1413.65 518.322C1421.97 518.35 1423.84 514.491 1412.94 513.892Z" fill="#FFFFDD"/>
<path d="M1599.79 361.042C1588.26 365.269 1585.05 370.01 1579.03 374.38C1573.77 378.197 1568.15 385.484 1563.87 389.176C1561.56 412.931 1586.25 424.836 1592.41 442.428C1604.76 434.063 1628.37 431.048 1625 418.313C1621.63 405.577 1622.13 390.143 1616.01 379.109C1611.2 370.42 1605.77 368.482 1599.79 361.042Z" fill="#FFFFDD"/>
<path d="M1649.31 411.057C1663.15 405.622 1671.83 407.218 1680.46 405.366C1693.01 402.673 1703.21 397.863 1716.39 391.277C1720.31 389.318 1724.56 386.885 1729.33 383.8C1728.64 378.466 1726.42 372.446 1723.4 366.211C1717.89 354.822 1715.48 340.269 1708.99 330.314C1703.16 321.348 1709.95 308.676 1710.1 305.297C1699.83 311.845 1676.96 317.538 1665.77 324.094C1650.92 332.794 1631.31 349.565 1624.87 350.811C1629.5 359.211 1632.84 356.257 1638.97 374.159C1641.33 381.073 1650.89 403.969 1649.31 411.057Z" fill="#FFFFDD"/>
<path d="M1542.37 404.302C1527.55 420.909 1514.61 433.427 1504.91 438.937C1513.45 459.632 1520.99 469.522 1524.91 480.704C1534.7 479.92 1554.95 463.135 1569.17 455.109C1559.03 427.774 1544.1 422.288 1542.37 404.302Z" fill="#FFFFDD"/>
<path d="M1493.3 444.432C1486.3 450.727 1473.41 451.839 1462.42 457.877C1460.99 465.903 1454.02 485.8 1455.31 493.682C1469.26 489.083 1482.38 491.597 1500.1 483.847C1498.45 464.155 1492.33 457.016 1493.3 444.432Z" fill="#FFFFDD"/>
<path d="M1451.03 458.524C1443.07 461.801 1431.54 457.605 1410.18 469.781C1403.96 482.671 1394.74 491.028 1388.15 497.366C1407.14 495.876 1431.69 498.769 1435.21 492.936C1439.06 476.822 1446.69 468.115 1451.03 458.524Z" fill="#FFFFDD"/>
<path d="M1604.61 493.722C1576.9 492.417 1576.22 507.879 1546.67 519.598C1545.8 539.304 1553.99 539.608 1552.28 578.263C1575.05 576.951 1603.78 569.365 1609.56 552.952C1601.61 532.913 1618.4 524.168 1604.61 493.722Z" fill="#FFFFDD"/>
<path d="M1413.43 564.933C1422.4 565.356 1428.97 569.389 1436.84 569.76C1443.51 557.438 1439.32 552.67 1436.2 533.371C1429.45 533.052 1422.64 532.748 1410.99 531.073C1406.34 530.404 1401.69 529.553 1397.63 528.732C1394.06 528.009 1390.88 528.98 1388.66 528.309C1385.91 533.397 1386.4 548.919 1387.51 554.175C1398.52 558.866 1409.81 564.762 1413.43 564.933Z" fill="#FFFFDD"/>
<path d="M1352.54 548.213C1359.24 548.528 1364.15 551.015 1370.03 551.292C1374.92 543.869 1371.77 540.952 1369.33 529.237C1364.29 529 1359.21 528.77 1350.52 527.679C1347.05 527.243 1346.33 527.459 1343.31 526.934C1340.3 529.806 1333.37 537.79 1330.11 540.021C1332.55 541.923 1334.46 542.456 1336.91 543.321C1345.14 546.236 1349.84 548.085 1352.54 548.213Z" fill="#FFFFDD"/>
<path d="M2140.67 38.2465C2140.93 38.4658 2141.31 38.9569 2141.79 39.8455C2142.73 41.6058 2143.75 44.3977 2144.82 47.9757C2146.94 55.0972 2149.11 64.9703 2151.06 75.0062C2153.01 85.0304 2154.74 95.1721 2155.98 102.811C2156.6 106.629 2157.1 109.821 2157.44 112.057C2157.58 112.906 2157.68 113.618 2157.77 114.174C2156.95 114.347 2155.79 114.596 2154.32 114.92C2151.22 115.605 2146.75 116.624 2141.27 117.961C2130.32 120.634 2115.34 124.58 2099.21 129.674C2083.08 134.766 2065.78 141.012 2050.2 148.289C2034.65 155.554 2020.7 163.898 2011.38 173.225C2002.42 182.19 1987.98 191.067 1970.67 199.802C1953.4 208.521 1933.41 217.033 1913.44 225.307C1909.31 227.017 1905.19 228.716 1901.09 230.406C1885.36 236.883 1870.01 243.207 1856.45 249.344C1839.39 257.067 1825 264.567 1816.21 271.805C1812.49 274.871 1809.03 277.838 1805.65 280.731C1793.29 291.309 1782.1 300.891 1763.92 310.647C1740.76 323.073 1706.24 335.774 1643.73 350.838C1580.8 365.993 1548.6 394.382 1526.3 423.715C1518.21 434.35 1511.41 445.134 1504.95 455.385C1502.54 459.208 1500.18 462.957 1497.81 466.596C1489.06 480.046 1480.25 492.055 1468.77 501.257C1462.35 506.403 1455.64 512.211 1448.44 518.45C1422.18 541.19 1389.28 569.67 1339.17 592.846C1276.12 622.011 1185.76 642.755 1047.31 632.506C1083.12 612.277 1106.42 596.823 1125.71 584.035C1133.33 578.979 1140.33 574.34 1147.22 569.987C1172.2 554.21 1196 542.061 1243.98 527.139C1340.33 497.19 1397.48 458.786 1429.56 419.381C1445.31 400.025 1486.32 367.539 1530.13 338.277C1552 323.667 1574.52 309.897 1594.85 299.008C1615.22 288.104 1633.29 280.147 1646.29 277.086C1675.27 270.276 1724.12 249.371 1766.76 226.106C1788.09 214.466 1807.92 202.204 1822.97 190.775C1830.5 185.062 1836.86 179.533 1841.63 174.371C1846.37 169.24 1849.65 164.341 1850.81 159.881L1850.81 159.881C1851.39 157.642 1851.45 155.573 1850.96 153.701C1850.47 151.818 1849.44 150.23 1847.98 148.929C1845.12 146.374 1840.64 144.939 1835.23 144.282C1824.38 142.962 1808.8 144.677 1791.8 148.336C1757.77 155.655 1717.28 170.921 1695.95 186.344L1695.95 186.345C1693.4 188.191 1681.98 195.842 1666.05 206.515C1651.75 216.103 1633.8 228.132 1615.36 240.582C1576.49 266.84 1535.44 294.997 1522.26 305.873C1505.27 319.874 1473.06 335.27 1430.93 346.7C1388.85 358.12 1336.99 365.545 1280.79 363.7C1224.13 361.839 1180.5 377.035 1146.58 391.009C1141.53 393.09 1136.7 395.138 1132.09 397.096C1121.18 401.731 1111.44 405.864 1102.65 408.748C1090.15 412.851 1079.95 414.28 1071.38 411.207L1071.37 411.206C1058.5 406.604 1048.46 400.341 1039.31 394.633C1035.66 392.36 1032.16 390.175 1028.67 388.218C1022.61 384.812 1016.62 382.126 1010.17 381.089C1003.69 380.046 996.837 380.682 989.059 383.776C988.022 384.187 987.162 384.494 986.462 384.712C986.962 384.194 987.595 383.592 988.362 382.91C993.371 378.453 1003.29 371.27 1015.34 363.485C1027.37 355.713 1041.45 347.387 1054.75 340.64C1068.08 333.871 1080.48 328.768 1089.19 327.325C1098.1 325.856 1111.79 324.393 1128.17 322.658L1129.44 322.523C1145.51 320.822 1164.03 318.861 1182.99 316.388C1221.83 311.32 1262.71 304.076 1288.06 292.397C1312.94 280.934 1343.09 276.048 1375.74 271.952C1381.41 271.242 1387.15 270.555 1392.94 269.862C1420.48 266.566 1449.32 263.116 1477.65 256.212C1495.01 251.987 1510.66 243.15 1525.9 232.135C1536.91 224.184 1547.78 215.043 1558.96 205.644C1563.24 202.045 1567.57 198.409 1571.96 194.787C1603.77 168.574 1639.56 142.832 1690.14 135.699C1720.64 133.145 1755.96 126.909 1781 118.682C1793.48 114.582 1803.62 109.922 1809.27 104.839C1812.11 102.292 1814.01 99.4709 1814.3 96.3925C1814.59 93.2503 1813.17 90.2458 1810.26 87.4485L1810.26 87.448C1807.19 84.5072 1801.83 82.7057 1795.06 81.6787C1788.21 80.6404 1779.63 80.3542 1769.83 80.6812C1750.22 81.3355 1725.54 84.4527 1699.73 89.075C1648.12 98.3145 1591.68 113.618 1561.77 127.482C1547.19 134.234 1528.61 136.493 1507.85 135.996C1487.1 135.5 1464.33 132.258 1441.48 128.118C1427.74 125.631 1414.04 122.83 1400.73 120.112C1391.85 118.3 1383.16 116.524 1374.75 114.901C1353.8 110.856 1334.69 107.771 1319.48 107.568C1271.2 106.925 1235.16 118.792 1194.31 132.246C1183.93 135.662 1173.25 139.18 1161.98 142.621L1162.4 144.01L1161.98 142.621C1134.14 151.124 1111.56 155.344 1089 154.168C1066.45 152.992 1043.79 146.416 1015.8 133.146C987.469 119.721 962.526 115.919 944.642 115.481C938.665 115.335 933.478 115.564 929.216 115.936C936.838 112.97 947.672 108.816 960.893 103.907C987.949 93.8608 1024.99 80.6593 1064.95 68.0345C1104.92 55.4081 1147.78 43.3669 1186.46 35.6332C1225.21 27.8877 1259.56 24.5087 1282.63 29.0528C1301.3 32.7317 1318.08 36.7703 1334.2 40.6522C1338.23 41.6225 1342.22 42.583 1346.19 43.5257C1366.02 48.2367 1385.3 52.4963 1406.37 55.26C1448.54 60.7914 1497.76 60.316 1572.95 45.6365L1573.08 45.6121L1573.2 45.5667C1634.47 22.3063 1717.53 15.8797 1794.09 21.4853C1832.36 24.2869 1868.95 30.0905 1900.33 38.2755C1931.73 46.4671 1957.8 57.0175 1975.11 69.2558L1975.27 69.3621L1975.44 69.4289C2008.93 82.4556 2036.04 81.8649 2061.95 74.3516C2082.34 68.4394 2102.03 58.2198 2123.44 47.1067C2129.05 44.1942 2134.78 41.2202 2140.67 38.2465Z" stroke="#482D38" stroke-opacity="0.4" stroke-width="3"/>
</svg>
