<svg width="1276" height="672" viewBox="0 0 1276 672" fill="none" xmlns="http://www.w3.org/2000/svg">
<path d="M68.3719 149.153C48.174 153.293 28.1156 158.603 10.5347 183.043C-25.1973 232.716 39.2201 292.092 66.3798 306.584C93.5395 321.075 116.817 337.042 131.799 348.653C146.087 359.735 158.462 369.334 162.845 386.039C166.97 401.742 161.942 415.76 158.789 422.731C152.215 435.459 141.457 453.945 124.908 473.798C98.4135 505.579 94.4148 522.266 98.4238 539.404C102.433 556.542 108.371 573.447 168.995 622.472C183.997 631.898 206.138 644.116 234.675 653.975C276.995 668.6 313.117 671.055 336.776 671.748C448.008 675.002 503.337 645.724 608.57 641.661C642.521 640.351 691.95 641.266 752.603 652.858C826.127 660.618 908.634 665.384 998.657 664.219C1067.7 663.333 1131.99 659.078 1190.86 652.858C1219.1 648.766 1241.77 635.72 1245.1 619.102C1247.45 607.376 1240.72 591.23 1236.65 581.496C1233.9 574.92 1231.04 569.663 1228.88 566.014C1218.44 541.829 1218.87 522.024 1219.93 511.732C1221.71 494.498 1227.57 481.692 1234.18 467.241C1242.23 449.651 1251.19 436.152 1257.94 427.054C1265.12 412.881 1277.62 383.304 1275.83 344.552C1274.42 314.07 1264.75 290.645 1257.94 277.243C1231.66 231.924 1176.73 151.839 1076.82 88.3521C927.682 -6.41587 775.825 -2.24698 723.531 1.50792C703.204 2.95212 687.26 7.02474 676.63 10.4138C661.757 15.1604 650.057 19.6855 640.796 30.8828C628.213 46.095 628.352 64.5132 628.649 70.1456C630.563 106.385 665.366 119.489 661.876 132.554C656.304 153.437 561.224 143.106 412.729 136.126C412.729 136.126 249.102 128.25 137.691 140.468C130.542 141.248 119.863 142.451 106.874 144.03C84.6136 146.746 73.4883 148.103 68.3719 149.153Z" fill="#FFFFDD"/>
</svg>
