<svg xmlns="http://www.w3.org/2000/svg" viewBox="0 0 1170 584"><path fill="var(--dcdw-2022-cream-primary)" d="M1160.94 394.588C1168.71 355.661 1170.23 311.274 1168.36 275.853C1160.99 136.499 916.882 49.2699 916.882 49.2699C845.928 17.2354 761.105 -3.4244 681.621 0.485203C610.216 4.0071 547.758 26.689 475.958 29.0314C411.122 31.1378 343.557 16.4771 278.144 16.4265C171.508 16.3254 79.2483 57.072 34.85 114.957C-9.549 172.841 -8.95399 245.656 24.313 313.584C49.405 364.812 93.8872 415.096 159.703 451.445C265.649 509.969 406.22 523.669 534.322 552.62C607.08 569.067 684.01 591.581 753.489 581.47C787.739 576.482 816.992 563.759 852.025 560.287C897.287 555.788 946.925 567.23 992.875 564.366C1051.29 560.726 1096.27 533.983 1121.06 501.662C1145.85 469.324 1153.53 431.644 1160.94 394.588Z"/></svg>