<svg width="834" height="1818" viewBox="0 0 834 1818" fill="none" xmlns="http://www.w3.org/2000/svg">
<path d="M766.759 42.3407L492.998 70.1554C492.998 70.1554 520.374 458.806 448.699 568.685C377.024 678.565 315.131 725.101 285.016 925.794C293.049 1099.73 161.34 1354.97 56.0475 1422.58C-13.1697 1495.29 7.84718 1558.05 21.8976 1641.69L129.215 1744.68C129.215 1744.68 215.319 1647.28 252.582 1609.69C289.819 1572.1 324.623 1472.21 343.059 1358.9C361.494 1245.59 435.673 1003.61 479.824 908.229C523.949 812.844 547.249 790.733 561.222 786.353C598.584 804.349 580.158 928.761 510.363 1028.45C440.567 1128.14 468.895 1297.28 452.741 1383.91C436.585 1470.59 273.942 1803.26 273.942 1803.26L537.149 1654.04C537.149 1654.04 597.063 1516.32 579.324 1448.87C561.585 1381.42 617.943 1220.12 609.028 1161.12C600.137 1102.15 584.21 1071.74 645.858 912.154C707.505 752.563 603.212 687.951 592.533 608.757C578.95 508.114 511 335.488 766.783 42.3659" fill="#FFCD1E"/>
<mask id="path-2-inside-1_1_1558" fill="white">
<path d="M833.896 23.8299L560.136 51.6445C560.136 51.6445 587.512 440.295 515.837 550.174C444.162 660.054 382.269 706.59 352.153 907.283C360.186 1081.22 228.478 1336.46 123.185 1404.07C53.968 1476.78 74.9849 1539.54 89.0353 1623.18L196.353 1726.17C196.353 1726.17 282.457 1628.77 319.72 1591.18C356.957 1553.58 391.761 1453.7 410.196 1340.39C428.632 1227.08 502.811 985.103 546.962 889.718C591.087 794.333 614.387 772.222 628.36 767.843C665.722 785.839 647.296 910.251 577.5 1009.94C507.705 1109.63 536.033 1278.77 519.878 1365.4C503.723 1452.07 341.08 1784.75 341.08 1784.75L604.287 1635.53C604.287 1635.53 664.201 1497.81 646.462 1430.36C628.723 1362.91 685.081 1201.61 676.166 1142.61C667.275 1083.64 651.348 1053.23 712.995 893.643C774.643 734.052 670.35 669.44 659.67 590.246C646.088 489.603 578.138 316.978 833.921 23.8551"/>
</mask>
<path d="M560.136 51.6445L559.505 45.6744L553.745 46.2596L554.152 52.0407L560.136 51.6445ZM352.153 907.283L346.22 906.368L346.133 906.948L346.16 907.534L352.153 907.283ZM123.185 1404.07L119.929 1399.01L119.326 1399.4L118.832 1399.92L123.185 1404.07ZM89.0353 1623.18L83.1192 1624.15L83.4498 1626.12L84.8917 1627.5L89.0353 1623.18ZM196.353 1726.17L192.209 1730.49L196.726 1734.82L200.855 1730.15L196.353 1726.17ZM319.72 1591.18L323.989 1595.41L323.99 1595.41L319.72 1591.18ZM546.962 889.718L552.407 892.259L552.408 892.257L546.962 889.718ZM628.36 767.843L630.944 762.438L628.803 761.407L626.543 762.116L628.36 767.843ZM519.878 1365.4L513.981 1364.27L513.981 1364.27L519.878 1365.4ZM341.08 1784.75L335.689 1782.09L327.152 1799.56L344.055 1789.97L341.08 1784.75ZM604.287 1635.53L607.262 1640.75L608.994 1639.77L609.789 1637.94L604.287 1635.53ZM676.166 1142.61L670.233 1143.48L670.234 1143.49L676.166 1142.61ZM659.67 590.246L665.616 589.469L665.615 589.469L659.67 590.246ZM833.265 17.8598L559.505 45.6744L560.768 57.6146L834.528 29.8L833.265 17.8598ZM560.136 51.6445C554.152 52.0407 554.152 52.0416 554.152 52.0439C554.152 52.0467 554.153 52.0505 554.153 52.056C554.154 52.0671 554.155 52.084 554.156 52.1067C554.16 52.1522 554.164 52.2211 554.171 52.3131C554.183 52.4971 554.202 52.7733 554.227 53.1394C554.276 53.8714 554.348 54.9624 554.439 56.392C554.621 59.2512 554.879 63.4647 555.183 68.8697C555.79 79.6799 556.577 95.2541 557.299 114.29C558.742 152.368 559.921 204.263 558.866 259.564C557.811 314.89 554.522 373.497 547.059 425.038C539.561 476.822 527.963 520.581 510.808 546.88L520.865 553.468C539.548 524.827 551.406 478.8 558.934 426.809C566.497 374.575 569.803 315.417 570.863 259.845C571.923 204.249 570.738 152.114 569.289 113.886C568.564 94.769 567.773 79.1215 567.162 68.2482C566.857 62.8114 566.597 58.5677 566.413 55.6802C566.321 54.2364 566.248 53.1316 566.198 52.3862C566.173 52.0135 566.154 51.7306 566.141 51.5401C566.134 51.4449 566.129 51.3727 566.126 51.324C566.124 51.2996 566.123 51.2811 566.122 51.2685C566.121 51.2622 566.121 51.2571 566.121 51.254C566.121 51.2504 566.121 51.2483 560.136 51.6445ZM510.808 546.88C492.977 574.215 475.782 597.571 459.368 620.609C442.988 643.598 427.435 666.205 413.171 691.728C384.567 742.912 361.367 805.43 346.22 906.368L358.086 908.199C373.055 808.443 395.86 747.346 423.65 697.619C437.583 672.687 452.825 650.513 469.149 627.602C485.439 604.739 502.859 581.073 520.865 553.468L510.808 546.88ZM346.16 907.534C350.113 993.117 319.626 1099.38 274.755 1192.93C229.816 1286.63 171.16 1366.12 119.929 1399.01L126.441 1409.12C180.503 1374.41 240.348 1292.47 285.578 1198.16C330.876 1103.71 362.227 995.39 358.146 907.032L346.16 907.534ZM118.832 1399.92C83.2652 1437.28 70.603 1472.5 68.8922 1509.22C67.2111 1545.3 76.1972 1582.94 83.1192 1624.15L94.9514 1622.21C87.823 1579.78 79.2754 1544.22 80.8776 1509.83C82.45 1476.08 93.888 1443.56 127.538 1408.22L118.832 1399.92ZM84.8917 1627.5L192.209 1730.49L200.497 1721.85L93.1789 1618.86L84.8917 1627.5ZM196.353 1726.17C200.855 1730.15 200.855 1730.15 200.855 1730.15C200.856 1730.15 200.857 1730.15 200.858 1730.15C200.861 1730.15 200.865 1730.14 200.87 1730.14C200.88 1730.12 200.896 1730.11 200.916 1730.08C200.958 1730.04 201.019 1729.97 201.101 1729.87C201.265 1729.69 201.508 1729.41 201.828 1729.05C202.466 1728.33 203.408 1727.27 204.621 1725.9C207.046 1723.17 210.552 1719.22 214.876 1714.36C223.525 1704.65 235.444 1691.31 248.526 1676.8C274.724 1647.73 305.473 1614.09 323.989 1595.41L315.45 1586.94C296.703 1605.86 265.768 1639.71 239.599 1668.74C226.497 1683.28 214.562 1696.63 205.902 1706.36C201.572 1711.22 198.06 1715.18 195.63 1717.92C194.416 1719.28 193.471 1720.35 192.831 1721.07C192.51 1721.44 192.266 1721.71 192.101 1721.9C192.019 1721.99 191.956 1722.06 191.915 1722.11C191.894 1722.13 191.878 1722.15 191.867 1722.16C191.862 1722.17 191.858 1722.17 191.856 1722.18C191.854 1722.18 191.853 1722.18 191.852 1722.18C191.852 1722.18 191.851 1722.18 196.353 1726.17ZM323.99 1595.41C343.563 1575.65 361.928 1540.25 377.659 1496.22C393.463 1451.98 406.853 1398.32 416.118 1341.38L404.275 1339.4C395.104 1395.77 381.875 1448.71 366.358 1492.14C350.769 1535.77 333.113 1569.11 315.449 1586.95L323.99 1595.41ZM416.118 1341.38C425.269 1285.13 448.327 1196.62 474.675 1110.1C501.026 1023.58 530.512 939.561 552.407 892.259L541.516 887.178C519.26 935.259 489.581 1019.92 463.196 1106.56C436.808 1193.21 413.559 1282.34 404.275 1339.4L416.118 1341.38ZM552.408 892.257C574.404 844.708 591.071 815.737 603.825 798.197C616.659 780.546 625.03 775.183 630.176 773.57L626.543 762.116C617.717 764.882 607.451 772.764 594.111 791.11C580.69 809.566 563.644 839.342 541.515 887.179L552.408 892.257ZM625.776 773.247C632.374 776.425 637.72 784.997 640.061 800.136C642.357 814.98 641.475 834.601 637.219 857.117C628.717 902.092 606.997 957.329 572.581 1006.49L582.419 1013.4C617.8 962.864 640.19 906.049 649.009 859.396C653.413 836.098 654.495 815.011 651.919 798.351C649.388 781.987 643.026 768.258 630.944 762.438L625.776 773.247ZM572.581 1006.49C536.655 1057.8 526.254 1126.5 522.584 1192.21C520.746 1225.12 520.587 1257.72 519.884 1287.16C519.177 1316.78 517.92 1343.15 513.981 1364.27L525.776 1366.52C529.914 1344.34 531.173 1317.08 531.879 1287.5C532.59 1257.75 532.74 1225.59 534.564 1192.93C538.218 1127.5 548.55 1061.77 582.419 1013.4L572.581 1006.49ZM513.981 1364.27C510.068 1385.26 497.11 1421.77 479.562 1465.22C462.087 1508.49 440.281 1558.11 418.957 1605.08C397.636 1652.03 376.818 1696.29 361.327 1728.81C353.583 1745.07 347.172 1758.4 342.697 1767.65C340.46 1772.28 338.707 1775.89 337.514 1778.35C336.917 1779.57 336.46 1780.51 336.153 1781.14C335.999 1781.46 335.883 1781.7 335.805 1781.85C335.766 1781.93 335.737 1781.99 335.718 1782.03C335.708 1782.05 335.701 1782.07 335.696 1782.08C335.693 1782.08 335.692 1782.09 335.69 1782.09C335.689 1782.09 335.689 1782.09 341.08 1784.75C346.472 1787.4 346.472 1787.4 346.474 1787.4C346.475 1787.4 346.477 1787.39 346.479 1787.39C346.484 1787.38 346.492 1787.36 346.502 1787.34C346.522 1787.3 346.552 1787.24 346.591 1787.16C346.67 1787 346.787 1786.76 346.941 1786.44C347.25 1785.81 347.709 1784.87 348.308 1783.63C349.505 1781.17 351.262 1777.55 353.503 1772.92C357.986 1763.64 364.408 1750.3 372.163 1734.01C387.674 1701.45 408.525 1657.12 429.885 1610.08C451.241 1563.04 473.124 1513.25 490.689 1469.76C508.18 1426.45 521.611 1388.87 525.776 1366.52L513.981 1364.27ZM344.055 1789.97L607.262 1640.75L601.312 1630.3L338.105 1779.52L344.055 1789.97ZM604.287 1635.53C609.789 1637.94 609.79 1637.94 609.791 1637.94C609.791 1637.94 609.792 1637.93 609.793 1637.93C609.796 1637.92 609.799 1637.92 609.803 1637.91C609.811 1637.89 609.823 1637.86 609.838 1637.83C609.869 1637.76 609.913 1637.65 609.971 1637.52C610.088 1637.25 610.259 1636.85 610.48 1636.32C610.922 1635.28 611.565 1633.75 612.376 1631.78C613.996 1627.84 616.286 1622.15 618.976 1615.12C624.353 1601.06 631.341 1581.59 637.777 1559.97C644.206 1538.38 650.119 1514.53 653.297 1491.73C656.461 1469.04 656.997 1446.86 652.263 1428.86L640.661 1431.87C644.796 1447.59 644.495 1467.92 641.414 1490.02C638.348 1512.01 632.608 1535.24 626.276 1556.5C619.95 1577.75 613.069 1596.92 607.767 1610.79C605.117 1617.72 602.864 1623.32 601.277 1627.17C600.484 1629.1 599.857 1630.59 599.43 1631.6C599.217 1632.1 599.054 1632.49 598.945 1632.74C598.89 1632.87 598.849 1632.96 598.822 1633.02C598.809 1633.05 598.799 1633.08 598.792 1633.09C598.789 1633.1 598.787 1633.1 598.786 1633.11C598.785 1633.11 598.785 1633.11 598.784 1633.11C598.784 1633.11 598.784 1633.11 604.287 1635.53ZM652.263 1428.86C648.118 1413.1 648.205 1391.28 650.84 1365.89C653.461 1340.64 658.519 1312.54 663.897 1284.47C669.255 1256.52 674.946 1228.53 678.721 1203.91C682.472 1179.45 684.477 1157.49 682.097 1141.74L670.234 1143.49C672.312 1157.24 670.615 1177.56 666.861 1202.05C663.131 1226.37 657.512 1253.99 652.113 1282.17C646.733 1310.23 641.585 1338.79 638.906 1364.6C636.242 1390.27 635.936 1413.9 640.661 1431.87L652.263 1428.86ZM682.098 1141.74C677.563 1111.66 671.565 1090.37 674.111 1056.33C676.659 1022.28 687.846 975.422 718.593 895.827L707.398 891.459C676.497 971.455 664.824 1019.6 662.146 1055.39C659.467 1091.19 665.877 1114.59 670.233 1143.48L682.098 1141.74ZM718.593 895.827C750.053 814.382 739.203 756.698 718.968 709.453C708.995 686.166 696.619 665.185 686.488 645.852C676.221 626.257 668.136 608.159 665.616 589.469L653.725 591.023C656.544 611.931 665.501 631.607 675.866 651.387C686.367 671.429 698.214 691.424 707.943 714.139C727.112 758.896 737.585 813.313 707.398 891.459L718.593 895.827ZM665.615 589.469C658.7 538.228 638.592 471.388 651.721 380.11C664.809 289.126 711.127 173.719 838.448 27.8121L829.394 19.898C700.931 167.114 653.333 284.581 639.845 378.351C626.4 471.827 647.058 541.621 653.725 591.024L665.615 589.469Z" fill="#FFFFDD" mask="url(#path-2-inside-1_1_1558)"/>
</svg>
