<svg width="1508" height="2459" viewBox="0 0 1508 2459" fill="none" xmlns="http://www.w3.org/2000/svg">
<path d="M468.633 2335.9C468.633 2335.9 756.507 1931.49 797.255 1822.48C838.003 1713.46 839.325 1492.12 953.097 1373.94C1066.86 1255.72 1119.12 1098.5 1074.39 1070.09C1055.14 1073.72 1019.71 1098.85 940.425 1215.14C861.142 1331.43 709.417 1631.83 659.627 1774.79C609.87 1917.74 541.749 2041.15 484.574 2084.21C427.388 2127.24 292.824 2240.16 292.824 2240.16L468.644 2335.93L468.633 2335.9Z" fill="#F45999"/>
<path d="M1507.93 188.624L1140.13 163.879C1140.13 163.879 1087.28 669.221 967.486 794.548C847.695 919.874 755.326 965.985 669.607 1217.16C640.381 1442.39 408.046 1741.19 253.552 1804.79C145.519 1882.91 158.893 1968.18 158.289 2078.74L276.39 2234.75C276.39 2234.75 412.37 2128.65 470.175 2088.59C527.946 2048.52 596.769 1927.89 647.056 1786.39C697.343 1644.9 850.69 1350.42 930.822 1237.63C1010.92 1124.84 1046.75 1101.58 1066.2 1099.04C1111.4 1130.41 1058.59 1286.17 943.609 1398.83C828.633 1511.48 827.3 1735.03 786.135 1842.75C744.957 1950.53 454.048 2341.98 454.048 2341.98L835.715 2208.42C835.715 2208.42 946.351 2044.74 938.378 1954.17C930.405 1863.6 1041.75 1668.83 1043.49 1591.07C1045.26 1513.34 1031.19 1470.76 1149.13 1279.35C1267.06 1087.95 1144.17 981.902 1148.2 877.803C1153.32 745.507 1103.14 508.726 1507.96 188.662" fill="#FFCD1E"/>
<path d="M510.476 2399.84L340.907 2307.48C341.644 2306.86 342.497 2306.15 343.459 2305.34C347.249 2302.17 352.727 2297.6 359.48 2291.97C372.986 2280.71 391.589 2265.25 411.978 2248.45C452.775 2214.84 500.663 2175.89 529.195 2154.42L529.196 2154.42C558.288 2132.51 589.854 2090.45 620.302 2036.26C650.798 1981.98 680.335 1915.23 705.261 1843.62C754.967 1700.9 906.576 1400.73 985.71 1284.66C1025.31 1226.57 1053.87 1191.39 1074.86 1170.31C1094.96 1150.11 1107.85 1143.12 1116.57 1141.11C1125.71 1147.61 1130.45 1161.07 1130.08 1180.67C1129.7 1200.79 1123.92 1226.45 1113.14 1255.09C1091.59 1312.34 1050.3 1380.86 993.694 1439.69C936.222 1499.39 907.308 1584.95 887.643 1668.77C880.417 1699.57 874.418 1730.24 868.724 1759.36C866.667 1769.87 864.649 1780.19 862.627 1790.24C854.994 1828.17 847.309 1862.24 837.214 1889.24C827.142 1916.19 801.664 1961.67 768.926 2014.95C736.237 2068.14 696.458 2128.87 657.937 2186.22C619.418 2243.57 582.171 2297.51 554.552 2337.12C540.743 2356.92 529.342 2373.14 521.394 2384.41C517.42 2390.04 514.309 2394.44 512.191 2397.43C511.518 2398.38 510.945 2399.18 510.476 2399.84Z" stroke="#FFFFDD" stroke-width="6"/>
<path d="M313.986 1891C313.986 1905.69 309.61 1928.24 299.852 1928.24C290.095 1928.24 286.602 1905.69 286.602 1891C286.602 1876.31 290.095 1875.04 299.852 1875.04C309.61 1875.04 313.986 1876.31 313.986 1891Z" fill="#FFFFDD"/>
<path d="M329.004 1820.95C329.004 1835.64 327.278 1855.53 317.52 1855.53C307.763 1855.53 299.853 1856.04 299.853 1841.34C299.853 1826.65 307.763 1802.33 317.52 1802.33C327.278 1802.33 329.004 1806.26 329.004 1820.95Z" fill="#FFFFDD"/>
<path d="M419.995 1754.45C419.995 1769.14 415.618 1791.69 405.86 1791.69C396.103 1791.69 392.609 1769.14 392.609 1754.45C392.609 1739.76 396.103 1738.49 405.86 1738.49C415.618 1738.49 419.995 1739.76 419.995 1754.45Z" fill="#FFFFDD"/>
<path d="M405.86 1906.96C405.86 1921.65 401.483 1944.2 391.725 1944.2C381.968 1944.2 378.475 1921.65 378.475 1906.96C378.475 1892.27 381.968 1891 391.725 1891C401.483 1891 405.86 1892.27 405.86 1906.96Z" fill="#FFFFDD"/>
<path d="M420.878 1836.91C420.878 1851.6 419.151 1871.49 409.393 1871.49C399.636 1871.49 391.726 1872 391.726 1857.3C391.726 1842.61 399.636 1818.29 409.393 1818.29C419.151 1818.29 420.878 1822.22 420.878 1836.91Z" fill="#FFFFDD"/>
<path d="M259.216 1917.6C259.216 1932.29 254.84 1954.84 245.082 1954.84C235.324 1954.84 231.831 1932.29 231.831 1917.6C231.831 1902.91 235.324 1901.64 245.082 1901.64C254.84 1901.64 259.216 1902.91 259.216 1917.6Z" fill="#FFFFDD"/>
<path d="M274.234 1847.55C274.234 1862.24 272.508 1882.13 262.75 1882.13C252.992 1882.13 245.082 1882.64 245.082 1867.94C245.082 1853.25 252.992 1828.93 262.75 1828.93C272.508 1828.93 274.234 1832.86 274.234 1847.55Z" fill="#FFFFDD"/>
<path d="M368.757 1781.05C368.757 1795.74 364.381 1818.29 354.623 1818.29C344.865 1818.29 341.372 1795.74 341.372 1781.05C341.372 1766.36 344.865 1765.09 354.623 1765.09C364.381 1765.09 368.757 1766.36 368.757 1781.05Z" fill="#FFFFDD"/>
<path d="M354.622 1933.56C354.622 1948.25 350.246 1970.8 340.488 1970.8C330.731 1970.8 327.237 1948.25 327.237 1933.56C327.237 1918.87 330.731 1917.6 340.488 1917.6C350.246 1917.6 354.622 1918.87 354.622 1933.56Z" fill="#FFFFDD"/>
<path d="M369.64 1863.51C369.64 1878.2 367.914 1898.09 358.156 1898.09C348.398 1898.09 340.488 1898.6 340.488 1883.9C340.488 1869.21 348.398 1844.89 358.156 1844.89C367.914 1844.89 369.64 1848.82 369.64 1863.51Z" fill="#FFFFDD"/>
<path d="M462.396 1788.14C462.396 1802.84 458.019 1825.38 448.262 1825.38C438.504 1825.38 435.011 1802.84 435.011 1788.14C435.011 1773.45 438.504 1772.18 448.262 1772.18C458.019 1772.18 462.396 1773.45 462.396 1788.14Z" fill="#FFFFDD"/>
<path d="M448.262 1940.65C448.262 1955.34 443.886 1977.89 434.128 1977.89C424.37 1977.89 420.877 1955.34 420.877 1940.65C420.877 1925.96 424.37 1924.69 434.128 1924.69C443.886 1924.69 448.262 1925.96 448.262 1940.65Z" fill="#FFFFDD"/>
<path d="M463.28 1870.6C463.28 1885.3 461.553 1905.18 451.796 1905.18C442.038 1905.18 434.128 1905.69 434.128 1891C434.128 1876.31 442.038 1851.98 451.796 1851.98C461.553 1851.98 463.28 1855.91 463.28 1870.6Z" fill="#FFFFDD"/>
<path d="M464.163 1703.91C464.163 1718.6 462.436 1738.49 452.679 1738.49C442.921 1738.49 435.011 1739 435.011 1724.3C435.011 1709.61 442.921 1685.29 452.679 1685.29C462.436 1685.29 464.163 1689.22 464.163 1703.91Z" fill="#FFFFDD"/>
<path d="M503.033 1827.16C503.033 1841.85 498.656 1864.4 488.898 1864.4C479.141 1864.4 475.647 1841.85 475.647 1827.16C475.647 1812.47 479.141 1811.2 488.898 1811.2C498.656 1811.2 503.033 1812.47 503.033 1827.16Z" fill="#FFFFDD"/>
<path d="M510.099 1660.46C510.099 1675.16 505.722 1697.7 495.965 1697.7C486.207 1697.7 482.714 1675.16 482.714 1660.46C482.714 1645.77 486.207 1644.5 495.965 1644.5C505.722 1644.5 510.099 1645.77 510.099 1660.46Z" fill="#FFFFDD"/>
<path d="M488.897 1979.66C488.897 1994.36 484.521 2016.9 474.763 2016.9C465.006 2016.9 461.513 1994.36 461.513 1979.66C461.513 1964.97 465.006 1963.7 474.763 1963.7C484.521 1963.7 488.897 1964.97 488.897 1979.66Z" fill="#FFFFDD"/>
<path d="M503.916 1909.62C503.916 1924.31 502.189 1944.2 492.432 1944.2C482.674 1944.2 474.764 1944.7 474.764 1930.01C474.764 1915.32 482.674 1891 492.432 1891C502.189 1891 503.916 1894.93 503.916 1909.62Z" fill="#FFFFDD"/>
<path d="M504.799 1742.92C504.799 1757.62 503.073 1777.5 493.315 1777.5C483.558 1777.5 475.647 1778.01 475.647 1763.32C475.647 1748.63 483.558 1724.3 493.315 1724.3C503.073 1724.3 504.799 1728.23 504.799 1742.92Z" fill="#FFFFDD"/>
<path d="M561.336 1807.65C561.336 1822.34 556.96 1844.89 547.202 1844.89C537.444 1844.89 533.951 1822.34 533.951 1807.65C533.951 1792.96 537.444 1791.69 547.202 1791.69C556.96 1791.69 561.336 1792.96 561.336 1807.65Z" fill="#FFFFDD"/>
<path d="M568.402 1640.96C568.402 1655.65 564.026 1678.2 554.268 1678.2C544.511 1678.2 541.018 1655.65 541.018 1640.96C541.018 1626.27 544.511 1625 554.268 1625C564.026 1625 568.402 1626.27 568.402 1640.96Z" fill="#FFFFDD"/>
<path d="M547.202 1960.16C547.202 1974.85 542.825 1997.4 533.067 1997.4C523.31 1997.4 519.816 1974.85 519.816 1960.16C519.816 1945.47 523.31 1944.2 533.067 1944.2C542.825 1944.2 547.202 1945.47 547.202 1960.16Z" fill="#FFFFDD"/>
<path d="M562.219 1890.11C562.219 1904.8 560.493 1924.69 550.735 1924.69C540.978 1924.69 533.067 1925.2 533.067 1910.5C533.067 1895.81 540.978 1871.49 550.735 1871.49C560.493 1871.49 562.219 1875.42 562.219 1890.11Z" fill="#FFFFDD"/>
<path d="M563.103 1723.42C563.103 1738.11 561.377 1758 551.619 1758C541.861 1758 533.951 1758.5 533.951 1743.81C533.951 1729.12 541.861 1704.8 551.619 1704.8C561.377 1704.8 563.103 1708.73 563.103 1723.42Z" fill="#FFFFDD"/>
<path d="M568.403 1570.91C568.403 1585.6 566.676 1605.49 556.919 1605.49C547.161 1605.49 539.251 1606 539.251 1591.3C539.251 1576.61 547.161 1552.29 556.919 1552.29C566.676 1552.29 568.403 1556.22 568.403 1570.91Z" fill="#FFFFDD"/>
<path d="M623.174 1692.38C623.174 1707.08 618.798 1729.62 609.04 1729.62C599.282 1729.62 595.789 1707.08 595.789 1692.38C595.789 1677.69 599.282 1676.42 609.04 1676.42C618.798 1676.42 623.174 1677.69 623.174 1692.38Z" fill="#FFFFDD"/>
<path d="M626.707 1538.1C626.707 1552.8 622.33 1575.34 612.573 1575.34C602.815 1575.34 599.322 1552.8 599.322 1538.1C599.322 1523.41 602.815 1522.14 612.573 1522.14C622.33 1522.14 626.707 1523.41 626.707 1538.1Z" fill="#FFFFDD"/>
<path d="M609.039 1844.89C609.039 1859.58 604.663 1882.13 594.905 1882.13C585.147 1882.13 581.654 1859.58 581.654 1844.89C581.654 1830.2 585.147 1828.93 594.905 1828.93C604.663 1828.93 609.039 1830.2 609.039 1844.89Z" fill="#FFFFDD"/>
<path d="M618.756 1765.98C618.756 1780.67 617.03 1800.56 607.272 1800.56C597.515 1800.56 589.604 1801.06 589.604 1786.37C589.604 1771.68 597.515 1747.36 607.272 1747.36C617.03 1747.36 618.756 1751.29 618.756 1765.98Z" fill="#FFFFDD"/>
<path d="M624.941 1608.15C624.941 1622.84 623.215 1642.73 613.457 1642.73C603.699 1642.73 595.789 1643.24 595.789 1628.54C595.789 1613.85 603.699 1589.53 613.457 1589.53C623.215 1589.53 624.941 1593.46 624.941 1608.15Z" fill="#FFFFDD"/>
<path d="M628.474 1469.83C628.474 1484.52 626.748 1504.41 616.99 1504.41C607.232 1504.41 599.322 1504.92 599.322 1490.22C599.322 1475.53 607.232 1451.21 616.99 1451.21C626.748 1451.21 628.474 1455.14 628.474 1469.83Z" fill="#FFFFDD"/>
<path d="M676.178 1568.25C676.178 1582.94 671.802 1605.49 662.044 1605.49C652.286 1605.49 648.793 1582.94 648.793 1568.25C648.793 1553.56 652.286 1552.29 662.044 1552.29C671.802 1552.29 676.178 1553.56 676.178 1568.25Z" fill="#FFFFDD"/>
<path d="M676.178 1394.46C676.178 1409.16 671.802 1431.7 662.044 1431.7C652.286 1431.7 648.793 1409.16 648.793 1394.46C648.793 1379.77 652.286 1378.5 662.044 1378.5C671.802 1378.5 676.178 1379.77 676.178 1394.46Z" fill="#FFFFDD"/>
<path d="M662.043 1720.76C662.043 1735.45 657.667 1758 647.909 1758C638.151 1758 634.658 1735.45 634.658 1720.76C634.658 1706.07 638.151 1704.8 647.909 1704.8C657.667 1704.8 662.043 1706.07 662.043 1720.76Z" fill="#FFFFDD"/>
<path d="M677.061 1650.71C677.061 1665.4 675.335 1685.29 665.577 1685.29C655.819 1685.29 647.909 1685.8 647.909 1671.1C647.909 1656.41 655.819 1632.09 665.577 1632.09C675.335 1632.09 677.061 1636.02 677.061 1650.71Z" fill="#FFFFDD"/>
<path d="M677.945 1484.02C677.945 1498.71 676.219 1518.6 666.461 1518.6C656.703 1518.6 648.793 1519.1 648.793 1504.41C648.793 1489.72 656.703 1465.4 666.461 1465.4C676.219 1465.4 677.945 1469.33 677.945 1484.02Z" fill="#FFFFDD"/>
<path d="M720.346 1440.57C720.346 1455.26 715.969 1477.81 706.212 1477.81C696.454 1477.81 692.961 1455.26 692.961 1440.57C692.961 1425.88 696.454 1424.61 706.212 1424.61C715.969 1424.61 720.346 1425.88 720.346 1440.57Z" fill="#FFFFDD"/>
<path d="M720.346 1266.78C720.346 1281.48 715.969 1304.02 706.212 1304.02C696.454 1304.02 692.961 1281.48 692.961 1266.78C692.961 1252.09 696.454 1250.82 706.212 1250.82C715.969 1250.82 720.346 1252.09 720.346 1266.78Z" fill="#FFFFDD"/>
<path d="M706.212 1593.08C706.212 1607.77 701.835 1630.32 692.078 1630.32C682.32 1630.32 678.827 1607.77 678.827 1593.08C678.827 1578.39 682.32 1577.12 692.078 1577.12C701.835 1577.12 706.212 1578.39 706.212 1593.08Z" fill="#FFFFDD"/>
<path d="M721.23 1523.03C721.23 1537.72 719.504 1557.61 709.746 1557.61C699.988 1557.61 692.078 1558.12 692.078 1543.42C692.078 1528.73 699.988 1504.41 709.746 1504.41C719.504 1504.41 721.23 1508.34 721.23 1523.03Z" fill="#FFFFDD"/>
<path d="M722.113 1356.34C722.113 1371.03 720.386 1390.92 710.629 1390.92C700.871 1390.92 692.961 1391.42 692.961 1376.73C692.961 1362.04 700.871 1337.72 710.629 1337.72C720.386 1337.72 722.113 1341.65 722.113 1356.34Z" fill="#FFFFDD"/>
<path d="M732.714 1196.74C732.714 1211.43 730.988 1231.32 721.23 1231.32C711.473 1231.32 703.562 1231.82 703.562 1217.13C703.562 1202.44 711.473 1178.12 721.23 1178.12C730.988 1178.12 732.714 1182.05 732.714 1196.74Z" fill="#FFFFDD"/>
<path d="M775.117 1328.85C775.117 1343.54 770.74 1366.09 760.982 1366.09C751.225 1366.09 747.731 1343.54 747.731 1328.85C747.731 1314.16 751.225 1312.89 760.982 1312.89C770.74 1312.89 775.117 1314.16 775.117 1328.85Z" fill="#FFFFDD"/>
<path d="M775.117 1155.06C775.117 1169.76 770.74 1192.3 760.982 1192.3C751.225 1192.3 747.731 1169.76 747.731 1155.06C747.731 1140.37 751.225 1139.1 760.982 1139.1C770.74 1139.1 775.117 1140.37 775.117 1155.06Z" fill="#FFFFDD"/>
<path d="M760.983 1481.36C760.983 1496.05 756.606 1518.6 746.849 1518.6C737.091 1518.6 733.598 1496.05 733.598 1481.36C733.598 1466.67 737.091 1465.4 746.849 1465.4C756.606 1465.4 760.983 1466.67 760.983 1481.36Z" fill="#FFFFDD"/>
<path d="M776.001 1411.31C776.001 1426 774.274 1445.89 764.516 1445.89C754.759 1445.89 746.849 1446.4 746.849 1431.7C746.849 1417.01 754.759 1392.69 764.516 1392.69C774.274 1392.69 776.001 1396.62 776.001 1411.31Z" fill="#FFFFDD"/>
<path d="M776.883 1244.62C776.883 1259.31 775.157 1279.2 765.399 1279.2C755.642 1279.2 747.731 1279.7 747.731 1265.01C747.731 1250.32 755.642 1226 765.399 1226C775.157 1226 776.883 1229.93 776.883 1244.62Z" fill="#FFFFDD"/>
<path d="M783.951 1086.79C783.951 1101.48 782.224 1121.37 772.467 1121.37C762.709 1121.37 754.799 1121.88 754.799 1107.18C754.799 1092.49 762.709 1068.17 772.467 1068.17C782.224 1068.17 783.951 1072.1 783.951 1086.79Z" fill="#FFFFDD"/>
<path d="M828.12 1197.62C828.12 1212.32 823.744 1234.86 813.986 1234.86C804.229 1234.86 800.735 1212.32 800.735 1197.62C800.735 1182.93 804.229 1181.66 813.986 1181.66C823.744 1181.66 828.12 1182.93 828.12 1197.62Z" fill="#FFFFDD"/>
<path d="M838.721 1027.38C838.721 1042.08 834.344 1064.62 824.587 1064.62C814.829 1064.62 811.336 1042.08 811.336 1027.38C811.336 1012.69 814.829 1011.42 824.587 1011.42C834.344 1011.42 838.721 1012.69 838.721 1027.38Z" fill="#FFFFDD"/>
<path d="M822.821 1367.86C822.821 1382.56 818.444 1405.1 808.686 1405.1C798.929 1405.1 795.436 1382.56 795.436 1367.86C795.436 1353.17 798.929 1351.9 808.686 1351.9C818.444 1351.9 822.821 1353.17 822.821 1367.86Z" fill="#FFFFDD"/>
<path d="M823.704 1280.08C823.704 1294.78 821.977 1314.66 812.22 1314.66C802.462 1314.66 794.552 1315.17 794.552 1300.48C794.552 1285.79 802.462 1261.46 812.22 1261.46C821.977 1261.46 823.704 1265.39 823.704 1280.08Z" fill="#FFFFDD"/>
<path d="M829.887 1118.71C829.887 1133.4 828.161 1153.29 818.403 1153.29C808.646 1153.29 800.735 1153.8 800.735 1139.1C800.735 1124.41 808.646 1100.09 818.403 1100.09C828.161 1100.09 829.887 1104.02 829.887 1118.71Z" fill="#FFFFDD"/>
<path d="M881.124 1142.65C881.124 1157.34 876.748 1179.89 866.99 1179.89C857.232 1179.89 853.739 1157.34 853.739 1142.65C853.739 1127.96 857.232 1126.69 866.99 1126.69C876.748 1126.69 881.124 1127.96 881.124 1142.65Z" fill="#FFFFDD"/>
<path d="M881.124 968.864C881.124 983.555 876.748 1006.1 866.99 1006.1C857.232 1006.1 853.739 983.555 853.739 968.864C853.739 954.174 857.232 952.904 866.99 952.904C876.748 952.904 881.124 954.174 881.124 968.864Z" fill="#FFFFDD"/>
<path d="M866.989 1295.16C866.989 1309.85 862.613 1332.4 852.855 1332.4C843.098 1332.4 839.604 1309.85 839.604 1295.16C839.604 1280.47 843.098 1279.2 852.855 1279.2C862.613 1279.2 866.989 1280.47 866.989 1295.16Z" fill="#FFFFDD"/>
<path d="M874.94 1221.56C874.94 1236.26 873.214 1256.14 863.456 1256.14C853.698 1256.14 845.788 1256.65 845.788 1241.96C845.788 1227.27 853.698 1202.94 863.456 1202.94C873.214 1202.94 874.94 1206.87 874.94 1221.56Z" fill="#FFFFDD"/>
<path d="M882.891 1058.42C882.891 1073.11 881.165 1093 871.407 1093C861.649 1093 853.739 1093.5 853.739 1078.81C853.739 1064.12 861.649 1039.8 871.407 1039.8C881.165 1039.8 882.891 1043.73 882.891 1058.42Z" fill="#FFFFDD"/>
<path d="M929.462 998.106C930.026 1012.79 926.518 1035.49 916.768 1035.87C907.018 1036.24 902.661 1013.85 902.097 999.166C901.533 984.486 904.975 983.082 914.725 982.705C924.476 982.327 928.898 983.426 929.462 998.106Z" fill="#FFFFDD"/>
<path d="M920.747 1159.9C921.311 1174.58 917.804 1197.28 908.053 1197.66C898.303 1198.04 893.946 1175.64 893.382 1160.96C892.818 1146.28 896.26 1144.88 906.011 1144.5C915.761 1144.12 920.183 1145.22 920.747 1159.9Z" fill="#FFFFDD"/>
<path d="M926.453 1080.11C927.017 1094.79 926.055 1114.73 916.305 1115.11C906.554 1115.49 898.669 1116.3 898.105 1101.62C897.541 1086.94 904.512 1062.33 914.262 1061.95C924.013 1061.57 925.889 1065.43 926.453 1080.11Z" fill="#FFFFDD"/>
<path d="M927.994 913.867C928.558 928.547 927.596 948.488 917.846 948.866C908.095 949.243 900.21 950.053 899.646 935.373C899.082 920.693 906.053 896.083 915.803 895.705C925.554 895.328 927.43 899.187 927.994 913.867Z" fill="#FFFFDD"/>
</svg>
