<svg width="2724" height="3541" viewBox="0 0 2724 3541" fill="none" xmlns="http://www.w3.org/2000/svg">
<path d="M2723.7 339.293L1858.05 276.464C1858.05 276.464 1874.66 993.165 1629.68 1162.92C1384.7 1332.68 1181.8 1391.52 1051.25 1743.3C1045.42 2062.31 585.727 2471.02 242.614 2550.15C12.0083 2653.46 66.8655 2776.07 96.0896 2933.69L415.077 3165.02C415.077 3165.02 703.185 3023.89 827.054 2971.09C950.843 2918.27 1078.11 2751.39 1156.33 2553.38C1234.54 2355.36 1510.99 1946.89 1666.85 1792.05C1822.62 1637.2 1899.83 1606.71 1944.54 1604.55C2058.78 1652.67 1978.62 1870.84 1741.37 2022.89C1504.12 2174.93 1562.95 2493.63 1496.68 2644.16C1430.4 2794.78 859.613 3331.24 859.613 3331.24L1713.77 3169.36C1713.77 3169.36 1926.75 2944.22 1883.04 2814.46C1839.32 2684.7 2045.33 2415.28 2027.85 2304.51C2010.44 2193.8 1965.8 2132.02 2188.14 1867.89C2410.47 1603.77 2094.14 1443.33 2074.71 1295.18C2050 1106.9 1867.23 765.474 2723.77 339.349" fill="#FFCD1E"/>
</svg>
