<svg width="2162" height="2410" viewBox="0 0 2162 2410" fill="none" xmlns="http://www.w3.org/2000/svg">
<path d="M764.077 2311.07C764.077 2311.07 929.1 1589.15 887.235 1416.51C845.37 1243.86 569.636 941.915 687.31 713.256C804.985 484.55 729.263 239.436 588.697 227.454C548.138 243.911 496.785 299.198 457.531 504.712C418.277 710.225 441.169 1209.45 504.706 1433.68C568.243 1657.91 564.152 1866.41 484.338 1959.09C404.525 2051.76 231.495 2285.67 231.495 2285.67L764.077 2311.12V2311.07Z" fill="#FF78B0"/>
<path d="M727.544 2370.63C726.981 2384.31 579.091 2331.59 579.091 2331.59C579.091 2331.59 643.236 2149.91 615.886 2064.73C588.536 1979.56 646.434 1767.84 630.78 1692.82C615.125 1617.81 592.904 1580.06 657.532 1370.13C722.16 1160.2 587.035 1085.67 567.584 984.855C542.864 856.717 444.724 640.575 741.372 243.444C742.887 449.472 774.824 464.955 736.348 632.114C697.873 799.272 709.433 915.755 745.329 996.093C781.225 1076.43 811.239 1350.24 783.455 1438.66C753.174 1534.95 743.375 1796.84 790.136 1837.52C836.887 1878.17 895.441 1677.28 883.398 1589.05C880.617 1568.67 855.751 1288.32 843.804 1231.18C828.149 1156.17 859.865 987.226 969.458 824.563C1079.02 661.909 1028.15 517.35 1083.1 475.093C1138.04 432.806 1195.64 433.769 1203.38 379.075C1211.12 324.381 1234.01 518.311 1211.01 576.081C1187.98 633.861 1094.39 804.222 1086.81 897.971C1079.27 991.71 1008.02 1093.54 972.99 1208.42C937.962 1323.31 1048.26 1462.21 978.532 1624.7C931.153 1718.6 890.698 1853.33 945.155 1839.3C999.642 1825.25 1095.86 1552.73 1104.54 1441.57C1113.25 1330.41 1303.78 1189.04 1360.39 1101.11C1416.99 1013.17 1423.39 936.847 1446.24 840.051C1469.09 743.256 1501.35 691.432 1597.26 631.569C1693.21 571.696 1713.09 498.919 1713.09 498.919C1713.09 498.919 1646.05 995.401 1529.56 1117.22C1413.08 1239.04 1325.03 1283.27 1236.06 1529.32C1200.89 1750.53 973.025 2041.63 826.224 2102.29C722.377 2177.8 731.958 2261.86 727.534 2370.6L727.544 2370.63Z" fill="#F45999"/>
</svg>
