<svg xmlns="http://www.w3.org/2000/svg" width="1121" height="2081" fill="none" viewBox="0 0 1121 2081"><path fill="#F45999" d="M579.124 2075.48C581.737 2088.93 425.508 2070.41 425.508 2070.41C425.508 2070.41 446.004 1879.21 399.684 1802.32C353.363 1725.43 360.833 1506.36 328.251 1436.77C295.67 1367.18 265.303 1335.34 279.742 1116.52C294.181 897.693 145.347 855.103 103.106 761.227C49.4194 641.908 -96.1148 453.172 101.057 0.501744C150.14 200.838 184.825 208.829 185.975 380.185C187.125 551.542 225.301 662.431 278.828 732.711C332.356 802.992 424.86 1063.02 418.228 1155.31C410.985 1255.82 461.956 1513.08 516.901 1542.32C571.831 1571.54 582.443 1362.87 550.325 1279.6C542.908 1260.37 453.906 992.829 429.066 939.826C396.485 870.236 388.338 698.646 457.497 515.879C526.628 333.128 443.672 203.62 487.429 150.262C531.171 96.8761 587.502 85.0245 582.399 30.0345C577.296 -24.9556 644.409 158.851 635.353 220.227C626.269 281.619 574.478 468.331 588.765 561.324C603.079 654.302 557.207 769.302 549.637 888.981C542.067 1008.66 681.592 1119.46 651.226 1293.21C626.775 1395.19 618.504 1535.4 668.302 1509.64C718.129 1483.86 748.874 1197.06 731.644 1086.87C714.442 976.651 867.355 796.663 902.166 698.443C936.977 600.222 925.579 524.465 925.467 425.112C925.356 325.76 944.799 268.121 1024.39 188.519C1104.01 108.9 1106.56 33.6001 1106.56 33.6001C1106.56 33.6001 1155.98 532.064 1070.67 676.578C985.359 821.091 909.821 883.723 880.015 1143.13C896.881 1366.4 742.202 1700.52 613.232 1792.2C529.533 1888.8 558.288 1968.55 579.108 2075.45L579.124 2075.48Z"/></svg>