<svg width="874" height="2357" viewBox="0 0 874 2357" fill="none" xmlns="http://www.w3.org/2000/svg">
<path d="M150.022 2356.98L560.51 2239.27C560.51 2239.27 403.557 1760.37 480.65 1600.94C557.743 1441.51 638.631 1364.44 625.267 1103.75C561.476 888.14 687.353 528.338 828.381 411.72C912.721 299.629 861.991 227.314 815.734 126.719L621.094 30.0974C621.094 30.0974 518.235 178.244 472.371 236.645C426.547 295.039 402.89 430.78 408.243 578.397C413.597 726.013 371.79 1051.79 332.503 1184.72C293.257 1317.65 264.165 1352.41 244.09 1362.13C181.616 1350.88 172.959 1189.35 250.195 1043.26C327.43 897.169 234.019 693.72 233.077 580.241C232.122 466.701 382.383 0.460721 382.383 0.460721L23.9862 267.171C23.9862 267.171 -26.8772 457.929 20.2271 537.112C67.3314 616.295 28.8924 835.548 59.9987 906.808C91.0596 978.045 124.423 1011.34 77.3877 1230.05C30.3521 1448.76 209.002 1498.19 248.787 1594.23C299.363 1716.28 454.41 1912.11 149.976 2356.96" fill="#FFC31A" fill-opacity="0.85"/>
</svg>
