<svg xmlns="http://www.w3.org/2000/svg" width="2069" height="2417" fill="none" viewBox="0 0 2069 2417"><path fill="#F45999" d="M732.061 1391.6C732.061 1391.6 923.368 940.248 939.276 825.841C955.184 711.434 908.705 495.193 993.297 357.443C1077.87 219.666 1094.52 55.9479 1045.1 37.0459C1027.26 44.3833 998.396 75.886 946.769 204.986C895.141 334.085 813.14 657.118 795.808 806.433C778.504 955.731 739.213 1089.58 693.178 1142.86C647.126 1196.12 541.277 1332.83 541.277 1332.83L732.078 1391.63L732.061 1391.6Z"/><path stroke="#FFD" stroke-width="6" d="M748.813 1579.66L533.143 1513.2C533.915 1512.21 534.847 1511.01 535.931 1509.61C539.409 1505.13 544.439 1498.67 550.642 1490.71C563.049 1474.8 580.151 1452.94 598.929 1429.14C636.502 1381.52 680.74 1326.19 707.537 1295.2L707.538 1295.2C734.793 1263.65 759.808 1208.62 780.521 1139.98C801.264 1071.24 817.792 988.535 827.896 901.356C848.076 727.51 943.625 351.114 1003.72 200.831C1033.79 125.637 1057.18 79.0157 1075.57 50.1723C1093.29 22.3888 1106.18 11.4355 1115.62 7.14411C1127.92 12.4868 1136.79 26.9947 1141.33 49.5445C1145.99 72.6063 1145.91 103.193 1140.95 138.287C1131.03 208.441 1101.67 295.945 1052.57 375.93C1002.81 456.96 991.71 560.842 990.61 660.705C990.205 697.398 991.153 733.656 992.053 768.088C992.379 780.531 992.698 792.736 992.945 804.637C993.876 849.552 993.777 890.107 989.175 923.199C984.584 956.222 967.264 1013.86 943.731 1082C920.23 1150.04 890.625 1228.29 861.59 1302.39C832.556 1376.49 804.101 1446.43 782.904 1497.84C772.305 1523.54 763.522 1544.62 757.388 1559.26C754.321 1566.59 751.917 1572.3 750.279 1576.19C749.69 1577.59 749.199 1578.75 748.813 1579.66Z"/><path fill="#F45999" d="M1065.14 2312.7C1065.14 2312.7 1220.58 1685.35 1217.36 1530.18C1214.14 1375.01 1107.92 1090.76 1189.64 896.199C1271.33 701.609 1258.72 480.28 1190.11 460.787C1168.31 472.725 1137.17 518.342 1096.76 697.416C1056.34 876.49 1016.93 1319 1025.62 1521.11C1034.34 1723.2 1011.06 1907.17 962.036 1984.01C912.985 2060.81 803.244 2256.48 803.244 2256.48L1065.17 2312.73L1065.14 2312.7Z"/></svg>